<?xml version="1.0" encoding="utf-8"?>
<!-- Generator: Adobe Illustrator 26.2.1, SVG Export Plug-In . SVG Version: 6.00 Build 0)  -->
<svg version="1.1" id="Layer_1" xmlns="http://www.w3.org/2000/svg" xmlns:xlink="http://www.w3.org/1999/xlink" x="0px" y="0px"
	 viewBox="0 0 714 714" style="enable-background:new 0 0 714 714;" xml:space="preserve">
<style type="text/css">
	.st0{fill:#ED1C24;}
	.st1{fill:#E8E6E6;}
	.st2{fill:#FFF200;}
	.st3{fill:#E27E7A;}
	.st4{fill:#BF6767;}
	.st5{fill:#74512F;}
	.st6{fill:#CE9868;}
	.st7{fill:#46AAC1;}
	.st8{fill:#72594B;}
	.st9{fill:#4A3222;}
	.st10{fill:#F2D2B9;}
	.st11{fill:#00A8DE;}
	.st12{fill:#B4812C;}
	.st13{fill:#00AEEF;}
	.st14{fill:#00A9A3;}
	.st15{fill:#844E27;}
	.st16{fill:#FEE2CC;}
	.st17{fill:#EDC8AF;}
	.st18{fill:#99887C;}
	.st19{fill:#303030;}
	.st20{fill:#FFFFFF;}
	.st21{fill:#BA6A33;}
	.st22{fill:#E88039;}
	.st23{fill:#F68C43;}
	.st24{fill:#695D56;}
	.st25{fill:#327D3D;}
	.st26{fill:#DCDBDB;}
	.st27{fill:#211B1D;}
	.st28{fill:#D39E2F;}
	.st29{fill:#8C90C7;}
	.st30{fill:#7478A5;}
	.st31{fill:#1A7D3F;}
	.st32{fill:#EE1F50;}
	.st33{fill:#383A38;}
	.st34{fill:#F47721;}
	.st35{fill:#477052;}
	.st36{fill:#23B34B;}
	.st37{fill:#B25827;}
	.st38{fill:#DDC043;}
	.st39{fill:#FEE14D;}
	.st40{fill:#946036;}
	.st41{fill:#BD7D3F;}
	.st42{fill:#A92526;}
	.st43{fill:#CB2D27;}
	.st44{fill:#644A3A;}
	.st45{fill:#8E6C55;}
	.st46{fill:#1E3A1C;}
	.st47{fill:#244F26;}
	.st48{fill:#BE1E2D;}
	.st49{fill:#A35EA6;}
	.st50{fill:#4666B0;}
	.st51{fill:#ECC19C;}
	.st52{fill:#F0D0B4;}
	.st53{fill:#B08874;}
	.st54{fill:#CEA28B;}
	.st55{fill:#CC8363;}
	.st56{fill:#EAD87F;}
	.st57{fill:#5A78AE;}
	.st58{fill:#8A8C8E;}
	.st59{fill:#5776A4;}
	.st60{fill:#E8D997;}
	.st61{fill:#3C71B2;}
	.st62{fill:#F5E0CD;}
	.st63{fill:#ED4D63;}
	.st64{fill:#ECBD97;}
	.st65{fill:#4A8750;}
	.st66{fill:#7F7F7F;}
	.st67{fill:#E61E25;}
	.st68{fill:#D7972D;}
	.st69{fill:#D3D335;}
	.st70{fill:#ECE70E;}
	.st71{fill:#7C4C1F;}
	.st72{fill:#5E3D1B;}
	.st73{fill:#7A4F2C;}
	.st74{fill:#8C6930;}
	.st75{fill:#23562B;}
	.st76{fill:#D58728;}
	.st77{fill:#BCBCBC;}
	.st78{fill:#28763A;}
	.st79{fill:#CE7C44;}
	.st80{fill:#CC8553;}
	.st81{fill:#D26B37;}
	.st82{fill:#CC6428;}
	.st83{fill:#4F2D17;}
	.st84{fill:#825020;}
	.st85{fill:#7C441C;}
	.st86{fill:#35312F;}
	.st87{fill:#2B7040;}
	.st88{fill:#5CABC6;}
	.st89{fill:#878686;}
	.st90{fill:#164F27;}
	.st91{fill:#C4B52F;}
	.st92{fill:#848484;}
	.st93{fill:#B22225;}
	.st94{fill:#636464;}
	.st95{fill:#D6D6D6;}
	.st96{fill:#9A9B9B;}
	.st97{fill:#3A3A3A;}
	.st98{fill:#ADDEDC;}
	.st99{fill:#7D7D7D;}
	.st100{fill:#D0EBEB;}
	.st101{fill:#E5E5E5;}
	.st102{fill:#48494A;}
	.st103{fill:#4F4F4F;}
	.st104{fill:#E7C63A;}
	.st105{fill:#3E403F;}
	.st106{fill:#E0D5A4;}
	.st107{fill:#CB9A68;}
	.st108{fill:#C06E29;}
	.st109{fill:#B7783D;}
	.st110{fill:#AD6B33;}
	.st111{fill:#63C6BF;}
	.st112{fill:#9E9E9E;}
	.st113{fill:#B7B7B7;}
	.st114{fill:#8E8E8E;}
	.st115{fill:#83D1DE;}
	.st116{fill:#5DBFC9;}
	.st117{fill:#515251;}
	.st118{fill:#BA363B;}
	.st119{fill:#88252C;}
	.st120{fill:#E7323A;}
	.st121{fill:#D8D8D8;}
</style>
<g>
	<g>
		<path class="st65" d="M479.0400696,483.1364441c-37.2746582-1.8009644-78.5009766-2.8031006-121.8735352-2.8031006
			c-166.6979828,0-301.833252,14.7745972-301.833252,33.0000305c0,18.2253418,135.1352539,33,301.833252,33
			c9.6623535,0,19.2126465-0.0517578,28.6428223-0.1488647c0.4626465-0.9229126,0.9575195-1.8533936,1.5007324-2.7944336
			C403.9377747,514.5900879,453.7507629,486.4335022,479.0400696,483.1364441z"/>
		<path class="st65" d="M658.666687,513.75c0-13.0422974-69.2097168-24.3161011-169.6593933-29.6743164
			c0.5273438,0.1906128,1.0209961,0.409668,1.4677734,0.6675415c15.2392578,8.7984009,0.8201294,26.5003967-20.3917847,58.8401489
			C597.0635376,539.6864014,658.666687,528.8780518,658.666687,513.75z"/>
		<path class="st66" d="M479.0400696,483.1364441c3.4675293,0.1675415,6.9030762,0.3413696,10.3005371,0.522583
			C486.7585754,482.7257996,483.2370911,482.5892639,479.0400696,483.1364441z"/>
		<path class="st66" d="M490.8083801,484.3265686c-0.4467773-0.2578735-0.9404297-0.4769287-1.4677734-0.6675415
			c-3.3974609-0.1812134-6.8330078-0.3550415-10.3005371-0.522583
			c-25.2893066,3.2970581-75.1022949,31.4536438-91.7299805,60.2536316c-0.5432129,0.94104-1.0380859,1.871521-1.5007324,2.7944336
			c18.2189941-0.1875,67.1425781-2.0753784,84.2739258-2.6011353
			C491.2951965,511.2436218,506.0476379,493.1249695,490.8083801,484.3265686z"/>
	</g>
	<path class="st67" d="M315.4981995,491.0873718c-0.6821289,15.0169373-12.6197815,26.6734314-26.6635132,26.035553
		c-14.0437317-0.6379395-24.8754578-13.3287048-24.1933289-28.3456421s11.7286072-57.1393738,25.7723389-56.5014648
		C304.457428,432.9137573,316.1803284,476.0704346,315.4981995,491.0873718z"/>
	<path class="st68" d="M307.7700195,485.698761c0,9.9234009-7.5082092,17.967926-16.77005,17.967926
		s-16.77005-8.0445251-16.77005-17.967926s6.0108643-38.032074,15.2727051-38.032074
		S307.7700195,475.7753601,307.7700195,485.698761z"/>
	<path class="st69" d="M302.166626,482.3467407c0,6.6076965-4.9994812,11.9642944-11.1666565,11.9642944
		s-11.166687-5.3565979-11.166687-11.9642944s4.0024719-25.3244019,10.1696472-25.3244019
		S302.166626,475.7390442,302.166626,482.3467407z"/>
	<path class="st70" d="M299.3600159,481.7645264c0,4.9469299-3.7429199,8.9572144-8.3600464,8.9572144
		c-4.617157,0-8.3600769-4.0102844-8.3600769-8.9572144s2.9964905-18.9594421,7.6136169-18.9594421
		C294.8706665,462.8050842,299.3600159,476.8175964,299.3600159,481.7645264z"/>
	<path class="st71" d="M315.666626,510h-56c-3.5750122,0-6.5,2.9249878-6.5,6.5l0,0c0,3.5750122,2.9249878,6.5,6.5,6.5h56
		c3.5750122,0,6.5-2.9249878,6.5-6.5l0,0C322.166626,512.9249878,319.2416382,510,315.666626,510z"/>
	<path class="st72" d="M293.5340881,488.989624l-52.759613,18.7730103
		c-3.3681183,1.1984558-5.1433105,4.9347534-3.9448547,8.3028564v0.000061
		c1.1984558,3.368103,4.9347534,5.1433105,8.3028717,3.9448242l52.7595978-18.7729797
		c3.3681335-1.1984558,5.1433411-4.9347534,3.9448853-8.302887l0,0
		C300.6385193,489.5663757,296.9022217,487.7911682,293.5340881,488.989624z"/>
	<path class="st73" d="M280.4658203,484.989624l52.759613,18.7730103c3.3681335,1.1984558,5.1433105,4.9347534,3.9448853,8.3028564
		l-0.0000305,0.000061c-1.1984558,3.368103-4.9347229,5.1433105-8.3028564,3.9448242l-52.759613-18.7729797
		c-3.3681335-1.1984558-5.1433105-4.9347534-3.9448853-8.302887h0.0000305
		C273.3614197,485.5663757,277.0976868,483.7911682,280.4658203,484.989624z"/>
	<path class="st71" d="M333.4999695,508.3333435H239.666626c-3.5749969,0-6.5,2.9249878-6.5,6.4999695v0.000061
		c0,3.5749512,2.9250031,6.499939,6.5,6.499939h93.8333435c3.5749817,0,6.5-2.9249878,6.5-6.499939v-0.000061
		C339.9999695,511.2583313,337.0749512,508.3333435,333.4999695,508.3333435z"/>
	<path class="st74" d="M227.666626,498.8333435l-0.3000641,0.191803c-10.9500122,6.9992981-23.6253967,6.928894-34.5332489-0.191803
		h-0.0000153v-237.5c0-6.6000061,3.9599915-12,8.7999878-12h17.2333374c4.8399963,0,8.8000031,5.3999939,8.8000031,12V498.8333435z"
		/>
	<polygon class="st75" points="266.816925,375.327179 292.9165344,375.327179 256.4189758,331.993866 281.5832825,331.993866 
		250.0894012,288.660553 272.9165344,288.660553 241.5832977,239.5857849 210.2500458,190.5110168 178.9165497,239.5857849 
		147.5832977,288.660553 170.4104462,288.660553 138.9165497,331.993866 164.0808563,331.993866 127.5832901,375.327179 
		153.6829071,375.327179 120.9165421,411.327179 210.2500458,411.327179 299.5832825,411.327179 	"/>
	<g>
		<path class="st68" d="M452.9170532,317L345.6485291,502.7945557l52.9020386,5.134491
			c39.3234253,3.8166199,78.9187927,3.9236145,118.2622375,0.3195496l59.5385742-5.4540405L469.0828552,317
			C465.490448,310.7778015,456.5094604,310.7778015,452.9170532,317z"/>
		<path d="M459.7273254,326.1533508L440.717804,509.2029724c-0.0783691,0.7548523,0.5137329,1.4116211,1.272644,1.4116211h38.019043
			c0.7588806,0,1.3510132-0.6567688,1.2726135-1.4116211L462.272583,326.1533508
			C462.1137085,324.6236267,459.8862,324.6236267,459.7273254,326.1533508z"/>
		<path class="st76" d="M495.8032532,509.1844482l-30.0656738-181.2245178
			c-0.1674805-1.0404663-2.3632812-2.3178406-4.0102539-2.7692261c-0.359375-1.2645569-4.9401855,0.3783875-5.1994629,1.987915
			l-30.0656738,181.2245178c-0.1191406,0.7400513,0.3713379,1.4367371,1.0847168,1.5406189l14.036377,0.2593689
			c0.7133789,0.1038818,1.3684082-0.4258118,1.4487305-1.1715698l17.0275879-167.0073242l0.8120117,93.1617432
			c0.1398926,16.0664062,3.059082,31.9749451,8.6171875,46.9624634l9.9694824,26.8827209
			c0.0803223,0.745697,0.7353516,1.2754822,1.4487305,1.1715088l13.4262695,0.1306763
			C495.0466614,510.2293701,495.9226379,509.9244995,495.8032532,509.1844482z"/>
	</g>
	<path class="st77" d="M637.000061,223.9999695c0-9.9879761-9.2919922-18.6766357-22.9838867-23.1401978
		c-5.2021484-11.0724487-22.185791-19.1931152-42.3496094-19.1931152c-8.5031738,0-16.4384766,1.4475708-23.1682129,3.9476318
		c-7.4052734-8.298645-22.013916-13.9476318-38.8318176-13.9476318c-11.6408691,0-22.2180176,2.7102661-30.0874023,7.1278687
		c-7.9707031-6.7304688-21.0793457-11.1278687-35.9125977-11.1278687c-15.8718262,0-29.7770996,5.031189-37.5163574,12.5725708
		c-6.2768555-2.0634155-13.4833984-3.2392578-21.1501465-3.2392578c-23.8273926,0-43.2180176,11.3372192-43.9643555,25.4891357
		c-6.4619141,3.8536377-10.0356445,8.0787354-10.0356445,12.5108643c0,0.7012939,0.0998535,1.3967896,0.2756348,2.0870972
		c-13.6567383,5.1438599-21.6091309,11.2980957-21.6091309,17.9129028c0,3.703186,2.4943848,7.2619629,7.0822754,10.5803223
		c2.9204102,12.848877,21.3144531,22.7530518,43.5844727,22.7530518c6.4423828,0,12.5551758-0.8355103,18.0698242-2.3245239
		c7.6494141,7.7722778,21.7675781,12.9911499,37.9301758,12.9911499c9.998291,0,19.2133789-1.9990845,26.6020508-5.3613892
		c8.0144043,6.4867554,20.8833008,10.6947632,35.3979492,10.6947632c15.2480469,0,28.6813965-4.6432495,36.5762024-11.6947021
		c0.7280273-0.0722046,1.4499512-0.1550293,2.1655273-0.2483521c5.121582,1.2492065,10.7199707,1.9430542,16.5915527,1.9430542
		c9.9645996,0,19.1523438-1.9849243,26.5285645-5.3267822c5.1787109,1.2821045,10.8520508,1.9934082,16.8049316,1.9934082
		c24.3005371,0,44-11.7897949,44-26.333313c0-0.1157837-0.012207-0.2297974-0.0146484-0.3452759
		C630.7659302,239.4914856,637.000061,232.181427,637.000061,223.9999695z"/>
</g>
</svg>
