<?xml version="1.0" encoding="utf-8"?>
<!-- Generator: Adobe Illustrator 24.2.1, SVG Export Plug-In . SVG Version: 6.00 Build 0)  -->
<svg version="1.1" id="Layer_1" xmlns="http://www.w3.org/2000/svg" xmlns:xlink="http://www.w3.org/1999/xlink" x="0px" y="0px"
	 viewBox="0 0 714 714" style="enable-background:new 0 0 714 714;" xml:space="preserve">
<style type="text/css">
	.st0{fill:#FFD11D;}
	.st1{fill:#8B5E3C;}
	.st2{fill:#009444;}
	.st3{fill:#FECD8A;}
	.st4{fill:#3C2415;}
	.st5{fill:#FBAB18;}
	.st6{fill:#D1772C;}
	.st7{fill:#ED1C24;}
	.st8{fill:#39B54A;}
	.st9{fill:#FFFFFF;}
	.st10{fill:#96531F;}
	.st11{fill:#F7941D;}
	.st12{fill:#FFDE17;}
	.st13{fill:#63B7E6;}
	.st14{fill:#0B6C95;}
	.st15{fill:#482610;}
	.st16{fill:#EE2A7B;}
	.st17{fill:#312042;}
	.st18{fill:#006838;}
	.st19{fill:#D7DF23;}
	.st20{fill:#F48CA8;}
	.st21{fill:#414042;}
	.st22{fill:#8E73B4;}
</style>
<g>
	
		<ellipse transform="matrix(0.7071068 -0.7071068 0.7071068 0.7071068 -182.1427155 355.6687317)" class="st0" cx="338.2587891" cy="397.7000732" rx="242.0834961" ry="242.083374"/>
	<path class="st1" d="M497.5844727,214.9277344l-20.6308594-12.3085938l-19.5063477,23.5751953
		c-0.2744141-0.0297852-0.5483398-0.0595703-0.8222656-0.0893555c-0.7392578,1.262207-1.4580078,2.4912109-2.1625977,3.6962891
		l-0.0004883,0.0004883h0.0004883c-2.0717773,3.543457-4.0161133,6.875-5.9643555,10.2001953
		c-0.5712891,0.9663086-1.3041992,1.3994141-2.0297852,0.4614258c-1.8652344-2.3920898-2.8808594-0.7739258-3.9121094,1.2548828
		c-3.246582,6.4179688-6.5097656,12.8237305-9.8061523,19.2158203c-0.4921875,0.953125-0.9550781,2.9960938-2.105957,1.9101563
		c-3.0805664-2.9145508-3.7856445,0.3388672-4.7753906,2.6455078c-2.684082,6.2211914-5.237793,12.519043-7.9042969,18.7416992
		c-0.5078125,1.1943359-0.9448242,3.4086914-2.5571289,2.0234375c-2.2324219-1.9121094-2.9384766-0.2836914-3.7036133,1.9296875
		c-2.3920898,6.9257813-4.809082,13.8383789-7.2749023,20.7250977c-0.4213867,1.1923828-0.6713867,3.5205078-2.4116211,2.0380859
		c-2.4633789-2.1040039-3.081543-0.065918-3.769043,2.2397461c-2.0893555,6.9135742-4.1879883,13.8369141-6.3017578,20.737793
		c-0.3720703,1.21875-0.5683594,3.1831055-2.1396484,2.2446289c-2.8144531-1.6958008-3.300293,0.7460938-3.8920898,3.0400391
		c-1.7402344,6.7905273-3.4477539,13.5947266-5.1538086,20.3886719c-0.390625,1.5751953-0.597168,3.4648438-2.5478516,2.4462891
		c-1.8525391-0.9658203-2.5961914,0.1728516-3.0229492,2.1982422c-1.4467773,6.8730469-2.9008789,13.734375-4.3735352,20.6044922
		c-0.480957,2.2207031-0.5693359,4.828125-3.5864258,3.6933594c-1.4887695-0.5507813-1.6835938,1.3925781-1.9262695,2.6982422
		c-1.3334961,7.03125-2.6152344,14.0683594-3.9477539,21.0898438c-0.3051758,1.5839844-0.2006836,4.0742188-2.355957,3.3730469
		c-2.5053711-0.8203125-2.734375,0.9501953-3.0146484,3.0644531c-0.9448242,7.1123047-1.8969727,14.2138672-2.8759766,21.3232422
		c-0.1953125,1.4365234-0.3081055,3.5996094-1.9443359,3.0556641c-3.0800781-1.0253906-3.199707,1.3789063-3.4575195,3.7802734
		c-0.7529297,7.0048828-1.4467773,14.0273438-2.1923828,21.0439453c-0.1503906,1.4199219-0.1166992,3.4072266-1.9780273,2.8720703
		c-2.565918-0.7314453-2.6533203,1.2646484-2.8520508,3.3349609c-0.668457,7.0234375-1.3198242,14.0498047-2.0126953,21.0615234
		c-0.1308594,1.3056641-0.065918,3.328125-1.4663086,3.2714844c-3.237793-0.1337891-3.0317383,2.5458984-3.1508789,4.9404297
		c-0.3344727,6.7939453-0.5566406,13.578125-0.8989258,20.3603516c-0.0166016,0.3359375-0.0112305,0.7167969-0.0224609,1.0849609
		c-0.0507813,1.1132813-0.2929688,2.1552734-1.8081055,1.8662109c-2.3852539-0.4707031-2.6962891,1.1757813-2.7558594,3.4912109
		c-0.190918,7.2519531-0.4863281,14.5136719-0.7285156,21.7597656l41.6801758,4.171875
		c1.8388672-5.7041016,3.5449219-11.4638672,5.2685547-17.2216797c0.3632813-1.2197266,1.168457-2.9755859-0.4458008-3.3896484
		c-0.5380859-0.1386719-0.9506836-0.328125-1.2646484-0.5488281c-1.4921875-1.0361328-0.6806641-2.8544922-0.0952148-4.7373047
		c1.8476563-5.9667969,3.6796875-11.9462891,5.4770508-17.9287109c0.4614258-1.5058594,1.1391602-3.3691406-0.8208008-3.8603516
		c-2.3461914-0.6044922-1.8198242-2.1552734-1.1303711-4.0488281c2.2573242-6.1796875,4.465332-12.3857422,6.6816406-18.5898438
		c0.5380859-1.4970703,1.3520508-3.3369141-0.59375-3.8896484c-2.3652344-0.6699219-1.8242188-2.1982422-1.1181641-4.0800781
		c2.3603516-6.2636719,4.6865234-12.53125,7.0385742-18.796875c0.4692383-1.2402344,1.359375-2.8076172-0.2021484-3.4072266
		c-2.7910156-1.0703125-1.9047852-2.9443359-0.9804688-5.1103516c2.5048828-5.9013672,4.9545898-11.8505859,7.4355469-17.7646484
		c0.6220703-1.4785156,1.0664063-2.9853516-0.6474609-3.5263672c-2.1318359-0.6777344-1.7612305-2.0546875-0.9194336-3.8271484
		c2.8330078-5.9853516,5.6411133-11.9824219,8.4169922-18.0048828c0.5429688-1.2011719,1.8212891-2.8564453,0.0063477-3.6816406
		c-2.4995117-1.1367188-1.8134766-2.7353516-0.784668-4.7431641c2.9487305-5.7617188,5.8481445-11.5498047,8.7719727-17.3251953
		c0.6567383-1.3056641,1.5820313-2.7119141-0.2504883-3.5283203c-1.949707-0.8603516-1.6542969-2.0859375-0.6494141-3.8535156
		c3.2963867-5.7900391,6.512207-11.6416016,9.7211914-17.5043945c0.6420898-1.159668,1.918457-2.625,0.0839844-3.6000977
		c-2.1791992-1.1469727-1.519043-2.484375-0.440918-4.2124023c3.387207-5.4018555,6.7192383-10.8613281,10.0581055-16.2998047
		c0.8549805-1.3916016,1.6503906-2.8735352-0.1225586-3.9482422c-1.8857422-1.1489258-1.0864258-2.2402344-0.0830078-3.6489258
		c3.8081055-5.3066406,7.5698242-10.6601563,11.3076172-16.0371094c0.6967773-1.0170898,2.3378906-2.2456055,0.5585938-3.5107422
		c-2.2617188-1.6191406-1.2568359-2.9541016,0.0244141-4.5561523c3.8320313-4.7661133,7.6567383-9.543457,11.4511719-14.3657227
		c0.8496094-1.0761719,2.5097656-2.2397461,0.699707-3.8032227c-1.9370117-1.6708984-1.0439453-2.8374023,0.3061523-4.2641602
		c4.1293945-4.3774414,8.184082-8.8676758,12.3369141-13.222168c1.3579102-1.4150391,2.3310547-2.6054688,0.5771484-4.3847656
		c-1.0810547-1.0893555-0.6298828-2.0678711,0.3032227-3.0297852c2.1298828-2.2089844,4.355957-4.2519531,6.6176758-6.2324219
		l6.2636719-4.78125l0.0366211,0.0024414l-0.0043945-0.0268555l10.2446289-7.8188477L497.5844727,214.9277344z"/>
	<path class="st2" d="M657.449707,247.7651367c-0.7304688,0.8662109-1.6113281,0.1767578-2.359375-0.1513672
		c-11.8994141-5.2011719-23.7866211-10.421875-35.6992188-15.6030273c-1.3549805-0.5893555-2.0849609-1.6225586-2.753418-2.8500977
		c-1.2915039-2.3876953-3.0410156-4.4091797-5.0849609-6.4501953c-0.1733398,0.5737305-0.3017578,0.8037109-0.2924805,1.0263672
		c0.4604492,7.2109375,0.4707031,7.2119141-6.2158203,4.8544922c-10.3754883-3.6660156-20.762207-7.3222656-31.1254883-11.0083008
		c-4.5039063-1.6010742-9.3486328-2.6450195-11.9316406-7.409668c-0.3647461-0.6801758-1.0927734-1.6289063-2.0424805-1.3125
		c-1.0605469,0.3691406-0.5581055,1.4638672-0.5341797,2.2788086c0.1367188,4.2241211-0.2133789,4.453125-4.3100586,3.6313477
		c-11.2333984-2.2636719-22.5073242-2.7485352-34.7651367-0.7885742c9.65625,3.8896484,18.3110352,7.7739258,26.3681641,12.8857422
		c19.7548828,12.5400391,35.3012695,28.6474609,43.3339844,51.0839844
		c5.7050781,15.956543,6.5805664,32.3051758,3.9599609,49.0009766c-2.1386719,13.6728516-6.434082,26.6445313-11.7358398,39.3466797
		c-0.4550781,1.0625-0.5742188,2.78125-2.0786133,2.7363281c-1.2211914-0.0273438-1.3823242-1.5839844-1.8330078-2.5576172
		c-6.9384766-14.9194336-13.8432617-29.8564453-20.7817383-44.7753906c-1.0175781-2.1699219-1.796875-3.7675781,0.5385742-6.1191406
		c2.7241211-2.7558594,2.8579102-6.9423828,3.1245117-11.4003906c-2.4541016,1.1157227-3.7070313,2.984375-5.253418,4.4125977
		c-1.6499023,1.5126953-2.628418,1.2773438-3.6494141-0.6503906c-5.7446289-10.8212891-11.5336914-21.6152344-17.3452148-32.4008789
		c-0.7915039-1.472168-0.484375-2.75,0.074707-4.2241211c1.5883789-4.1674805,0.5073242-9.7104492-2.6445313-13.434082
		c-0.6728516,2.7182617-1.2568359,5.1816406-1.8833008,7.6416016c-0.1962891,0.8032227-0.1000977,1.9521484-1.2529297,1.9741211
		c-0.8242188,0.0126953-1.0571289-0.9287109-1.4047852-1.5649414c-3.8330078-6.9370117-8.015625-13.6445313-12.8056641-19.9804688
		c-2.9365234-3.8710938-6.3359375-7.2294922-10.2915039-10.4111328c-0.5410156,1.190918,0.1567383,1.8095703,0.5263672,2.4375
		c13.6923828,23.5620117,19.8847656,48.9907227,17.8227539,76.1362305
		c-1.7592773,23.0605469-10.0244141,43.9604492-22.9550781,63.0854492
		c-6.9716797,10.2978516-15.0498047,19.6308594-23.8486328,28.3632813
		c-1.0185547,1.0058594-1.9799805,2.9150391-3.4038086,2.4873047c-1.753418-0.5126953-0.847168-2.6064453-0.9013672-3.9628906
		c-0.6162109-16.3017578-1.0947266-32.6113281-1.7314453-48.9150391c-0.0991211-2.3842773,0.7021484-3.8554688,2.5654297-5.2832031
		c3.7958984-2.9233398,7.7568359-5.703125,10.8466797-10.1108398c-4.0844727,0.1083984-7.4921875,1.4765625-10.996582,2.3291016
		c-2.2392578,0.5463867-3.2119141,0.2485352-3.0454102-2.362793c0.7363281-11.4707031,1.4111328-22.9580078,1.9384766-34.4492188
		c0.1416016-2.8876953,1.2885742-4.4404297,3.9760742-5.4589844c2.8730469-1.0839844,5.6899414-2.4487305,8.0952148-4.4448242
		c0.5527344-0.4619141,1.3383789-0.9316406,1.0541992-1.7832031c-0.2910156-0.8842773-1.2167969-0.7026367-1.9116211-0.7192383
		c-1.4848633-0.0322266-2.9726563-0.0336914-4.449707,0.0717773c-2.8891602,0.1855469-4.0966797-0.5048828-3.059082-3.8095703
		c3.3476563-10.6708984,5.1523438-21.6445313,5.7207031-32.8046875c0.1049805-1.8891602,0.0424805-3.7949219-0.0004883-5.6879883
		c-0.0048828-0.5810547-0.0219727-1.1523438-0.0268555-1.7333984c-0.015625-1.109375-0.2851563-1.6850586-0.7563477-1.8271484
		c-1.3964844-6.2919922-2.7919922-12.5942383-4.1870117-18.8964844c-7.6323242-0.8164063-15.2539063-1.6323242-22.8862305-2.4487305
		c-9.7695313,0.8266602-18.7050781,2.5917969-27.5776367,4.6796875c-5.5097656,1.284668-5.4755859,1.3618164-5.8125-4.3383789
		c-0.0200195-0.4345703-0.262207-0.8598633-0.5024414-1.6230469c-1.8066406,1.7084961-2.9541016,3.5771484-3.3730469,5.5507813
		c-0.6040039,2.8735352-2.4106445,3.6318359-4.9077148,4.1206055c-10.4301758,2.0478516-20.8417969,4.2246094-31.2763672,6.3139648
		c-4.0058594,0.8022461-4.2739258,0.5327148-3.9165039-3.5683594c0.1264648-1.4750977,0.2939453-2.9355469,0.4790039-4.784668
		c-2.8115234,1.3120117-3.8149414,3.8496094-4.6875,6.2421875c-0.9887695,2.7080078-2.6855469,3.7412109-5.4770508,4.0102539
		c-15.6333008,1.5273438-31.2407227,3.2158203-46.859375,4.8076172c-1.1616211,0.1157227-2.6787109,0.7241211-3.4067383-0.5415039
		c-0.6225586-1.0541992,0.4931641-2.0820313,1.0292969-3.0097656c9.5058594-16.5341797,23.3178711-28.4375,40.3481445-36.546875
		c20.9760742-9.9936523,43.2807617-12.5942383,66.2373047-10.855957
		c14.2958984,1.0820313,28.4057617,3.2856445,42.3071289,6.9350586
		c-15.5102539-7.503418-31.3769531-13.9775391-48.0761719-18.2446289c-1.6572266-0.4189453-4.1982422-0.3354492-4.5908203-1.7890625
		c-0.4995117-1.8647461,2.0302734-2.7832031,3.2695313-4.0942383c1.0605469-1.1074219,2.5756836-1.7998047,3.5722656-3.7470703
		c-4.1259766,0.3149414-6.793457,2.6123047-9.4067383,4.6826172c-2.2578125,1.7895508-4.2949219,2.21875-7.1357422,1.5019531
		c-11.387207-2.8383789-22.8554688-5.3896484-34.2905273-8.0644531c-3.793457-0.8964844-3.8740234-1.2529297-1.4414063-4.4707031
		c1.4609375-1.9428711,3.3271484-3.6132813,4.5161133-6.4282227c-4.9785156,0.293457-8.5244141,2.6186523-11.7060547,5.519043
		c-1.5561523,1.4165039-3.0615234,2.2260742-5.2504883,2.0595703c-14.4282227-1.1274414-28.8671875-2.1503906-43.2988281-3.2460938
		c-0.9223633-0.0610352-2.1899414,0.1606445-2.5219727-1.0546875c-0.3027344-1.0854492,0.6855469-1.7885742,1.3457031-2.4824219
		c11.4375-12.2148438,24.9169922-21.4287109,40.7231445-27.0014648c26.4033203-9.2919922,51.4077148-5.0273438,75.3525391,8.2485352
		c18.9765625,10.5097656,34.5605469,25.0805664,48.746582,41.284668c1.4580078,1.6655273,2.9394531,3.3120117,4.4199219,4.9692383
		c-4.8208008-12.1430664-11.0834961-23.4804688-18.7124023-34.0258789
		c-3.4580078-4.7783203-3.5605469-4.7041016,1.3295898-7.5917969c-1.0395508-1.2119141-2.4614258-1.765625-3.8554688-1.862793
		c-4.6943359-0.3325195-7.4355469-3.203125-9.96875-6.7807617c-4.4291992-6.2470703-9.0981445-12.3173828-13.6977539-18.4443359
		c-2.7548828-3.6845703-2.7631836-3.7060547,0.9868164-6.1694336c1.1064453-0.7231445,2.1577148-1.5253906,3.4760742-2.4697266
		c-2.4790039-1.6938477-5.0385742-1.4223633-7.40625-1.8071289c-2.1386719-0.3510742-4.0014648-0.9282227-5.6269531-2.5048828
		c-11.9726563-11.6450195-24.015625-23.2128906-36.0112305-34.8388672c-3.25-3.1640625-3.0830078-3.7802734,1.4194336-4.9023438
		c21.0014648-5.1899414,40.4550781-1.237793,56.9375,12.3676758c27.5078125,22.6967773,44.4174805,51.7519531,48.3354492,87.6738281
		c0.4760742,4.4165039,0.4833984,8.8808594,0.480957,13.4394531c0.7397461-3.7036133,1.6450195-7.3701172,2.1967773-11.0922852
		c1.5859375-10.5732422,1.5522461-21.203125,0.8852539-31.8325195c-0.3388672-5.5742188-0.3818359-5.5678711,4.8974609-4.121582
		c-0.1083984-2.7124023-1.565918-4.7045898-3.1943359-6.4609375c-2.6381836-2.8496094-3.8613281-6.1269531-4.3862305-9.9467773
		c-1.2177734-8.8173828-2.7768555-17.5947266-4.1552734-26.3857422c-0.6943359-4.4487305-0.5273438-4.5375977,3.7436523-2.9282227
		c0.7324219,0.2739258,1.4624023,0.9907227,2.6108398,0.3774414c-1.6000977-3.1992188-4.1464844-5.4907227-6.8457031-7.6181641
		c-1.2119141-0.965332-2.1083984-1.9204102-2.3671875-3.550293c-1.9672852-12.5009766-5.4072266-24.6323242-9.1162109-36.7060547
		c-0.309082-1.0229492-1.1826172-2.3134766-0.2998047-3.1220703c1.1401367-1.0571289,2.2915039,0.1977539,3.2880859,0.7827148
		c31.597168,18.5268555,50.2548828,45.1923828,51.4189453,82.5908203
		c0.5595703,17.6044922-3.949707,34.3007813-10.3642578,50.5219727c-2.1181641,5.3491211-4.6020508,10.5561523-7.2529297,16.590332
		c9.2109375-3.5732422,17.9448242-6.1708984,26.9101563-7.9223633c17.8012695-3.4736328,35.6044922-4.2246094,53.2695313,0.7304688
		c24.5102539,6.8847656,41.0561523,22.9130859,51.7602539,45.5429688c2.6474609,5.6044922,4.8994141,11.359375,6.6142578,17.3139648
		C657.496582,246.3452148,657.9760742,247.1425781,657.449707,247.7651367z"/>
	<path class="st1" d="M190.3325195,323.6459961l14.1455078-9.4414063l14.6357422,15.9697266
		c0.1928711-0.0307617,0.3852539-0.0615234,0.578125-0.0922852c0.5678711,0.8662109,1.1201172,1.7089844,1.6611328,2.5361328
		c1.5913086,2.4311523,3.0854492,4.7172852,4.5820313,6.9980469c0.4384766,0.6630859,0.972168,0.9428711,1.4516602,0.2539063
		c1.2329102-1.7583008,2.0092773-0.6503906,2.8105469,0.7470703c2.5253906,4.4213867,5.0620117,8.8334961,7.6210938,13.2348633
		c0.3823242,0.65625,0.7827148,2.0839844,1.5571289,1.2753906c2.0737305-2.1713867,2.6889648,0.1035156,3.4711914,1.6992188
		c2.1206055,4.3022461,4.1513672,8.6635742,6.2597656,12.9672852c0.4013672,0.8261719,0.7900391,2.3769531,1.8798828,1.3398438
		c1.5102539-1.4316406,2.0678711-0.3056641,2.6879883,1.2314453c1.9389648,4.8105469,3.8950195,9.6113281,5.8852539,14.3925781
		c0.340332,0.828125,0.6005859,2.4648438,1.7783203,1.3544922c1.6660156-1.5751953,2.1757813-0.1572266,2.7446289,1.4482422
		c1.7246094,4.8134766,3.456543,9.6337891,5.1977539,14.4365234c0.3066406,0.8486328,0.5161133,2.2304688,1.5927734,1.5107422
		c1.9291992-1.2998047,2.3603516,0.4091797,2.8608398,2.0097656c1.4736328,4.7392578,2.9243164,9.4882813,4.3740234,14.2304688
		c0.3325195,1.0996094,0.5458984,2.4287109,1.8886719,1.6386719c1.2753906-0.7490234,1.8417969,0.0292969,2.2163086,1.4462891
		c1.2685547,4.8066406,2.5424805,9.6064453,3.8295898,14.4101563c0.4194336,1.5527344,0.5751953,3.3935547,2.6679688,2.4833984
		c1.0327148-0.4423828,1.2397461,0.9248047,1.4584961,1.8388672c1.1943359,4.9238281,2.3525391,9.8525391,3.5458984,14.7695313
		c0.2724609,1.1083984,0.2875977,2.8730469,1.7861328,2.3007813c1.7421875-0.6699219,1.9672852,0.5732422,2.2412109,2.0585938
		c0.9228516,4.9951172,1.8500977,9.9814453,2.796875,14.9726563c0.1894531,1.0087891,0.3466797,2.5341797,1.4838867,2.0908203
		c2.1411133-0.8359375,2.3120117,0.8603516,2.5800781,2.5488281c0.7827148,4.9257813,1.5249023,9.8652344,2.3032227,14.7998047
		c0.1572266,0.9990234,0.2045898,2.4042969,1.5014648,1.9599609c1.7875977-0.6083984,1.9213867,0.7998047,2.1357422,2.2558594
		c0.7241211,4.9423828,1.4360352,9.8857422,2.1772461,14.8183594c0.1391602,0.9189453,0.1655273,2.3505859,1.1533203,2.2607422
		c2.284668-0.2099609,2.2348633,1.6914063,2.4047852,3.3798828c0.4799805,4.7919922,0.8793945,9.5800781,1.3647461,14.3632813
		c0.0234375,0.2373047,0.0332031,0.5058594,0.0541992,0.7666016c0.0761719,0.7851563,0.284668,1.5126953,1.3452148,1.2539063
		c1.6694336-0.4179688,1.9487305,0.7353516,2.0737305,2.3701172c0.3945313,5.1201172,0.8632813,10.2441406,1.2939453,15.3583984
		l-29.3193359,4.4414063c-1.5039063-3.9667969-2.9165039-7.9785156-4.3413086-11.9873047
		c-0.3007813-0.8496094-0.9326172-2.0615234,0.1938477-2.4130859c0.3754883-0.1162109,0.6601563-0.2646484,0.8745117-0.4326172
		c1.0175781-0.7861328,0.3789063-2.0419922-0.1020508-3.3525391c-1.5205078-4.1523438-3.0292969-8.3144531-4.5146484-12.4804688
		c-0.3798828-1.0478516-0.9257813-2.3408203,0.4423828-2.7578125c1.637207-0.5117188,1.2094727-1.5898438,0.6542969-2.9033203
		c-1.8173828-4.2880859-3.6005859-8.5966797-5.3896484-12.9042969c-0.434082-1.0390625-1.0751953-2.3105469,0.2807617-2.7714844
		c1.6479492-0.5576172,1.2109375-1.6191406,0.6445313-2.9248047c-1.8930664-4.34375-3.762207-8.6914063-5.6494141-13.0371094
		c-0.3764648-0.8603516-1.0615234-1.9365234,0.0209961-2.4160156c1.9345703-0.8574219,1.2412109-2.1503906,0.5102539-3.6484375
		c-1.9824219-4.0830078-3.9272461-8.2011719-5.8930664-12.2939453c-0.4926758-1.0234375-0.8608398-2.0722656,0.331543-2.5166016
		c1.4829102-0.5546875,1.1713867-1.515625,0.5131836-2.7382813c-2.2172852-4.1298828-4.4174805-8.2705078-6.5957031-12.4287109
		c-0.4267578-0.8300781-1.3896484-1.9541016-0.1362305-2.6025391c1.7265625-0.8935547,1.184082-1.9990234,0.3847656-3.3818359
		c-2.2910156-3.9677734-4.5478516-7.9560547-6.8217773-11.9345703c-0.5112305-0.9003906-1.2158203-1.8613281,0.0507813-2.5039063
		c1.3476563-0.6777344,1.0947266-1.5341797,0.3212891-2.7480469c-2.5380859-3.9755859-5.0214844-7.9970703-7.5-12.0273438
		c-0.4951172-0.796875-1.4501953-1.7880859-0.1884766-2.5429688c1.5-0.8886719,0.9853516-1.8105469,0.1611328-2.9941406
		c-2.5878906-3.6972656-5.1391602-7.4384766-7.6943359-11.1630859c-0.6547852-0.9541016-1.2700195-1.9736328-0.0551758-2.7958984
		c1.2924805-0.8798828,0.6884766-1.6230469-0.0717773-2.5830078c-2.8823242-3.6162109-5.7333984-7.2666016-8.5688477-10.9335938
		c-0.5288086-0.6943359-1.7333984-1.5048828-0.5205078-2.4628906c1.5410156-1.2255859,0.7832031-2.1328125-0.1806641-3.2197266
		c-2.8798828-3.2324219-5.7548828-6.4736328-8.6103516-9.7470703c-0.6391602-0.7304688-1.8544922-1.4941406-0.6308594-2.6640625
		c1.3100586-1.2509766,0.6367188-2.0429688-0.3686523-3.0039063c-3.0766602-2.9472656-6.1040039-5.9765625-9.1958008-8.90625
		c-1.0107422-0.9521484-1.7412109-1.7587891-0.5649414-3.0795898c0.7250977-0.809082,0.3710938-1.4848633-0.3232422-2.1313477
		c-1.5849609-1.4858398-3.2314453-2.8500977-4.9018555-4.1699219l-4.5996094-3.1557617l-0.0258789,0.0029297l0.0024414-0.019043
		l-7.5234375-5.1616211L190.3325195,323.6459961z"/>
	<path class="st2" d="M78.480957,352.5854492c0.5473633,0.5859375,1.1455078,0.0668945,1.6625977-0.1918945
		c8.2270508-4.1030273,16.4443359-8.2197266,24.6811523-12.309082c0.9370117-0.465332,1.4165039-1.222168,1.8452148-2.1137695
		c0.8271484-1.734375,1.9921875-3.2265625,3.3637695-4.7421875c0.1430664,0.3989258,0.2421875,0.5571289,0.2436523,0.7148438
		c-0.0673828,5.1147461-0.074707,5.1157227,4.5683594,3.2094727c7.2045898-2.9628906,14.4174805-5.9199219,21.6123047-8.8969727
		c3.1269531-1.293457,6.5146484-2.2050781,8.1704102-5.6660156c0.2338867-0.4936523,0.7143555-1.1904297,1.3974609-1.0009766
		c0.7626953,0.2226563,0.4467773,1.0151367,0.4589844,1.5922852c0.0546875,2.9912109,0.3105469,3.1401367,3.1772461,2.4130859
		c7.8613281-2.0029297,15.8149414-2.7490234,24.5512695-1.8022461c-6.6879883,3.0957031-12.6679688,6.1518555-18.1816406,10.0541992
		c-13.5180664,9.5732422-23.9326172,21.5180664-28.8085938,37.668457
		c-3.4628906,11.4853516-3.496582,23.0761719-1.0458984,34.7861328c2.0019531,9.5908203,5.5029297,18.6083984,9.7060547,27.3984375
		c0.3598633,0.7353516,0.5053711,1.9462891,1.5673828,1.8603516c0.862793-0.0625,0.9204102-1.1689453,1.2045898-1.8740234
		c4.371582-10.7958984,8.71875-21.6044922,13.090332-32.4003906c0.6416016-1.5703125,1.1352539-2.7285156-0.6000977-4.3076172
		c-2.0244141-1.8505859-2.269043-4.8056641-2.6171875-7.9482422c1.7749023,0.7011719,2.7275391,1.9775391,3.8720703,2.9316406
		c1.2207031,1.0107422,1.9042969,0.8095703,2.5571289-0.5898438c3.6738281-7.8564453,7.3808594-15.6953125,11.1030273-23.5292969
		c0.5073242-1.0693359,0.2441406-1.9619141-0.2036133-2.9833984c-1.2724609-2.8896484-0.706543-6.8476563,1.3886719-9.5932617
		c0.5732422,1.8979492,1.0742188,3.6186523,1.6049805,5.3354492c0.1674805,0.5605469,0.1411133,1.3769531,0.956543,1.3515625
		c0.5834961-0.0214844,0.7143555-0.6953125,0.9375-1.1572266c2.4614258-5.0419922,5.1787109-9.934082,8.3383789-14.5849609
		c1.9375-2.8422852,4.2207031-5.3383789,6.9033203-7.7294922c0.425293,0.8227539-0.0458984,1.2851563-0.284668,1.7421875
		c-8.8374023,17.1489258-12.3051758,35.3486328-9.8754883,54.4677734
		c2.0693359,16.2412109,8.6611328,30.7216797,18.487793,43.7802734c5.2978516,7.03125,11.3432617,13.3408203,17.8769531,19.2001953
		c0.7563477,0.6738281,1.5043945,1.9892578,2.4956055,1.6367188c1.2211914-0.4257813,0.5053711-1.8740234,0.4956055-2.8349609
		c-0.1479492-11.546875-0.3935547-23.0957031-0.5268555-34.6455078c-0.015625-1.6894531-0.6347656-2.7001953-2.0029297-3.6435547
		c-2.7885742-1.9306641-5.6884766-3.7539063-8.0307617-6.7597656c2.8911133-0.0693359,5.3500977,0.7753906,7.8579102,1.2529297
		c1.6025391,0.3056641,2.2797852,0.0605469,2.0683594-1.7792969c-0.9311523-8.0839844-1.8193359-16.1816406-2.6035156-24.2871094
		c-0.2036133-2.0361328-1.0703125-3.0927734-3.0063477-3.7167969c-2.0703125-0.6640625-4.1108398-1.5273438-5.8828125-2.8535156
		c-0.4072266-0.3066406-0.9799805-0.6103516-0.809082-1.2226563c0.1743164-0.6357422,0.8349609-0.5400391,1.3256836-0.5771484
		c1.0488281-0.0761719,2.1005859-0.1298828,3.1489258-0.1083984c2.0488281,0.0283203,2.8779297-0.5039063,2.0258789-2.8027344
		c-2.7485352-7.4248047-4.4174805-15.1181641-5.21875-22.9887695c-0.1416016-1.331543-0.1655273-2.6811523-0.203125-4.0214844
		c-0.0175781-0.4106445-0.0258789-0.8154297-0.0429688-1.2265625c-0.0288086-0.784668,0.1411133-1.2016602,0.4692383-1.3188477
		c0.7617188-4.4985352,1.5229492-9.0043945,2.2836914-13.5097656c5.3666992-0.8505859,10.7265625-1.7001953,16.0932617-2.5507813
		c6.9370117,0.2348633,13.3173828,1.1625977,19.6650391,2.3212891c3.9418945,0.7109375,3.9204102,0.7670898,3.9545898-3.2753906
		c-0.0014648-0.3081055,0.1547852-0.6171875,0.296875-1.1650391c1.3383789,1.1430664,2.2167969,2.4233398,2.5834961,3.8037109
		c0.5302734,2.0097656,1.8344727,2.480957,3.6176758,2.7373047c7.4477539,1.074707,14.8862305,2.2407227,22.3388672,3.3447266
		c2.8608398,0.4233398,3.0410156,0.2231445,2.6411133-2.6630859c-0.1420898-1.0385742-0.3125-2.0654297-0.5097656-3.3662109
		c2.034668,0.8271484,2.8349609,2.5854492,3.5375977,4.2456055c0.7958984,1.8793945,2.0322266,2.5488281,4.0161133,2.6396484
		c11.1074219,0.5200195,22.2021484,1.1547852,33.3017578,1.7211914c0.8256836,0.0405273,1.9199219,0.4160156,2.3896484-0.5043945
		c0.4023438-0.7675781-0.4233398-1.4545898-0.8354492-2.0913086c-7.3129883-11.3496094-17.5039063-19.2709961-29.8354492-24.3945313
		c-15.1879883-6.3149414-31.0507813-7.3554688-47.2192383-5.3046875c-10.0688477,1.2773438-19.965332,3.340332-29.6635742,6.4179688
		c10.6972656-5.8603516,21.6835938-11.0053711,33.3378906-14.6201172c1.15625-0.355957,2.9560547-0.3876953,3.1816406-1.4291992
		c0.2861328-1.3364258-1.5351563-1.8950195-2.4584961-2.777832c-0.7890625-0.7451172-1.8852539-1.1801758-2.659668-2.5214844
		c2.9282227,0.0751953,4.8964844,1.6040039,6.8183594,2.9741211c1.6601563,1.1845703,3.1162109,1.4150391,5.0986328,0.8066406
		c7.9492188-2.4145508,15.9663086-4.6289063,23.9555664-6.9291992c2.6499023-0.7700195,2.6938477-1.0249023,0.8588867-3.2128906
		c-1.1025391-1.3212891-2.4814453-2.4355469-3.4228516-4.3828125c3.5302734,0.0288086,6.1206055,1.5458984,8.4736328,3.4824219
		c1.1508789,0.9462891,2.2441406,1.4643555,3.7861328,1.2685547c10.1606445-1.3134766,20.3325195-2.5537109,30.496582-3.8452148
		c0.6499023-0.0761719,1.5541992,0.0351563,1.7456055-0.8359375c0.1748047-0.7783203-0.5488281-1.2397461-1.0405273-1.706543
		c-8.5234375-8.2265625-18.3837891-14.2587891-29.7583008-17.6328125
		c-19.0004883-5.6245117-36.5263672-1.7143555-52.9799805,8.5292969
		c-13.0410156,8.1098633-23.5375977,18.9697266-32.9868164,30.9335938c-0.9716797,1.2299805-1.9599609,2.4472656-2.9472656,3.671875
		c2.9736328-8.7578125,6.9956055-16.9980469,12.012207-24.7270508c2.2734375-3.5019531,2.3486328-3.453125-1.2119141-5.3193359
		c0.6914063-0.894043,1.6767578-1.3369141,2.6586914-1.4555664c3.3071289-0.402832,5.1425781-2.5302734,6.8056641-5.1503906
		c2.9077148-4.5756836,5.9912109-9.034668,9.0239258-13.53125c1.815918-2.7036133,1.8212891-2.7192383-0.918457-4.3266602
		c-0.8081055-0.4711914-1.5800781-1.0009766-2.5458984-1.621582c1.6918945-1.2861328,3.5117188-1.1860352,5.171875-1.5424805
		c1.4990234-0.3251953,2.7958984-0.7998047,3.8886719-1.9726563c8.0478516-8.6616211,16.1484375-17.2714844,24.2128906-25.9208984
		c2.1845703-2.3530273,2.0444336-2.7832031-1.1787109-3.4150391c-15.0341797-2.9174805-28.6469727,0.5727539-39.8134766,10.7822266
		c-18.6352539,17.0322266-29.5507813,38.1796875-31.0351563,63.7172852
		c-0.1782227,3.1396484-0.0234375,6.2963867,0.1416016,9.519043c-0.65625-2.5922852-1.4272461-5.1518555-1.9506836-7.7636719
		c-1.4995117-7.4189453-1.8564453-14.9355469-1.765625-22.4746094c0.0405273-3.953125,0.0708008-3.9501953-3.6098633-2.7382813
		c-0.0205078-1.921875,0.9384766-3.3828125,2.0273438-4.6826172c1.7631836-2.109375,2.5102539-4.4702148,2.7451172-7.1894531
		c0.5449219-6.277832,1.3330078-12.5390625,1.9931641-18.8037109c0.331543-3.1704102,0.2104492-3.2270508-2.7514648-1.9365234
		c-0.5083008,0.2197266-0.9990234,0.7529297-1.8325195,0.3603516c1.0166016-2.3193359,2.7348633-4.0302734,4.5673828-5.6313477
		c0.8222656-0.7260742,1.421875-1.4331055,1.5463867-2.5947266c0.9433594-8.9086914,2.940918-17.6088867,5.1313477-26.2783203
		c0.1816406-0.734375,0.7529297-1.6777344,0.1000977-2.2177734c-0.84375-0.706543-1.6132813,0.2216797-2.296875,0.6708984
		c-21.6762695,14.2299805-33.9130859,33.7509766-33.3974609,60.2333984
		c0.2348633,12.4672852,4.0209961,24.1103516,9.1362305,35.3491211c1.6894531,3.7060547,3.6318359,7.2983398,5.722168,11.4702148
		c-6.6401367-2.1967773-12.9082031-3.7207031-19.3095703-4.6381836
		c-12.7099609-1.8183594-25.3242188-1.7119141-37.6362305,2.4233398
		c-17.0825195,5.7451172-28.2070313,17.6699219-34.9648438,34.0527344
		c-1.6708984,4.0571289-3.0571289,8.206543-4.0566406,12.4780273
		C78.3969727,351.5830078,78.0864258,352.1640625,78.480957,352.5854492z"/>
	<path class="st3" d="M56.3115234,660.3818359c12.2421875-14.6777344,111.6376953-129.75,275.8974609-125.8574219
		C486.6821289,538.1845703,578.09375,644.203125,591.5712891,660.3818359
		C413.1513672,660.3818359,234.7314453,660.3818359,56.3115234,660.3818359z"/>
</g>
</svg>
