<?xml version="1.0" encoding="utf-8"?>
<!-- Generator: Adobe Illustrator 26.2.1, SVG Export Plug-In . SVG Version: 6.00 Build 0)  -->
<svg version="1.1" id="Layer_1" xmlns="http://www.w3.org/2000/svg" xmlns:xlink="http://www.w3.org/1999/xlink" x="0px" y="0px"
	 viewBox="0 0 714 714" style="enable-background:new 0 0 714 714;" xml:space="preserve">
<style type="text/css">
	.st0{fill:#CE9B4A;}
	.st1{fill:#1D1D1B;}
	.st2{fill:#016B46;}
	.st3{fill:#F4F4F4;}
	.st4{fill:#C3B49A;}
	.st5{fill:#CC6699;}
	.st6{fill:#97917F;}
	.st7{fill:#735447;}
	.st8{fill:#666666;}
	.st9{fill:#99CCFF;}
	.st10{fill:#FFFF99;}
	.st11{fill:#99CC66;}
	.st12{fill:#FF9966;}
	.st13{fill:#FF99CC;}
	.st14{fill:#ECC091;}
	.st15{fill:#4F2E11;}
	.st16{fill:#A38064;}
	.st17{fill:#CC9966;}
	.st18{fill:#FEE3C5;}
	.st19{fill:#9999FF;}
	.st20{fill:#D1A882;}
	.st21{fill:#A1BFE3;}
	.st22{fill:#194377;}
	.st23{fill:#FFAB37;}
	.st24{fill:#6587A2;}
	.st25{fill:#F7DFBC;}
</style>
<g>
	<g>
		<path class="st23" d="M498.1914978,418.4712219c-12.797821-8.3860168-27.9292603-12.4691162-42.9961853-15.1322632
			c-1.4582825-0.2579651-3.165802-0.4325256-4.2250366,0.602356c-1.0280151,1.004303-0.9356079,2.6594543-0.717804,4.0798645
			c2.4789124,16.1665344,12.0205688,31.1225586,25.6365356,40.1838379
			c13.6159363,9.0612793,31.096283,12.0881653,46.9662781,8.1325684l0.2050171-1.0229797
			C521.2629395,440.1201172,510.9894409,426.8568115,498.1914978,418.4712219z"/>
		<path class="st23" d="M599.3930054,403.9413147c-1.0592651-1.0348816-2.7668457-0.860321-4.2251587-0.602356
			c-15.0669556,2.663147-30.1983643,6.7462463-42.9962158,15.1322632
			c-12.7977905,8.3855896-23.0714111,21.6488953-24.8687744,36.8433838l0.2051392,1.0229797
			c15.869873,3.9555969,33.3502197,0.9287109,46.9662476-8.1325684
			c13.6159668-9.0612793,23.1576538-24.0173035,25.6365356-40.1838379
			C600.3286133,406.600769,600.4208984,404.9456177,599.3930054,403.9413147z"/>
		<g>
			<path class="st21" d="M592.4661255,378.9634399c-7.0969849-8.6521606-18.9033203-12.0910034-29.7262573-10.0507812
				c-11.6569214,2.1971436-21.4746094,10.1754456-27.8167725,19.9553528
				c-3.9356079,6.0689392-6.6397705,12.8566589-8.526001,19.8181763c-0.0646973,0.2388611-0.0308838,0.4415588,0.0386353,0.6237183
				c-0.0663452,0.0993958-0.133728,0.1990051-0.2000732,0.2984314c-0.7531738,1.1289673,1.0675659,2.1831665,1.815979,1.0613708
				c7.0961304-10.6357117,14.6922607-21.5106812,25.756897-28.3684387
				c9.2821655-5.7532654,21.0647583-7.9953918,31.0999756-3.4532471
				c-23.9346924,2.1757812-42.8788452,20.1927795-59.3008423,36.5012512
				c-0.961731,0.9549866,0.5252075,2.4421387,1.4869995,1.4871216
				c16.8253174-16.7089233,36.3236694-35.4379883,61.3612061-36.0841064
				c0.3589478,0.2012634,0.6987305,0.1556702,0.9659424-0.0246277c0.762146-0.0053406,1.5283203,0.0020447,2.3007202,0.0310059
				C592.7122803,380.7954407,593.0043945,379.6198425,592.4661255,378.9634399z M588.9719238,378.6282654
				c-10.7850342-6.6873169-24.4034424-5.0276489-35.0384521,1.1447754
				c-10.0211182,5.8163147-17.3572998,14.8414612-23.8997192,24.2457275
				c4.2185669-12.1816101,11.5802002-23.4170227,23.2680664-29.5602722
				c11.6322021-6.1141052,26.6239014-5.3424988,36.0181274,4.1642456
				C589.2035522,378.6237488,589.0879517,378.6266479,588.9719238,378.6282654z"/>
			<path class="st21" d="M465.4548645,378.8480225c10.0349731-4.5419312,21.8177185-2.3000183,31.099884,3.4532471
				c11.0644531,6.8575745,18.6607666,17.7329407,25.756897,28.3684387c0.7475586,1.1205444,2.5698853,0.0686035,1.8158569-1.0613708
				c-0.0662842-0.0994263-0.1334229-0.198822-0.1997681-0.2982178c0.069519-0.1819763,0.1030884-0.3848877,0.0383301-0.6239319
				c-3.2153931-11.8673706-9.0020142-23.4353027-18.7043152-31.3029175
				c-8.8029175-7.1385193-20.3463745-10.8721008-31.5675354-8.1461182
				c-6.1445007,1.4928894-11.7751465,4.8231201-15.7970581,9.7262878c-0.5371704,0.6549683-0.2427673,1.8320007,0.7434692,1.7952271
				c0.7723083-0.0289612,1.538269-0.0363464,2.3003235-0.0310059c0.2671204,0.1802979,0.6069946,0.2263184,0.9663086,0.0246277
				c25.0376587,0.6461182,44.5361328,19.3753662,61.3612366,36.0841064
				c0.9613647,0.9545898,2.4492188-0.5317078,1.4871216-1.4871216
				C508.3334961,399.040802,489.3896179,381.0238037,465.4548645,378.8480225z M461.3913574,378.6282654
				c-0.1160278-0.0016174-0.2316589-0.0045166-0.3480225-0.0055237c9.3944092-9.5071716,24.3855591-10.2785645,36.0179749-4.1642456
				c11.6873474,6.1430664,19.0496521,17.3788757,23.268219,29.5604553
				c-6.5425415-9.4044495-13.878418-18.4295959-23.8998413-24.2459106
				C485.7946777,373.6006165,472.1764832,371.9407654,461.3913574,378.6282654z"/>
		</g>
		<path class="st22" d="M614.1167603,447.0540771c-1.414978-3.3985596-3.647644-6.9676514-7.2321167-8.3682861
			c-3.739624-1.4613037-7.6242065,0.2501221-10.3208618,2.9366455c-2.8597412,2.8492432-4.9607544,6.9736328-4.8519287,11.0782471
			c0.0981445,3.7055664,2.1452026,7.5583496,5.7062988,8.9780273c3.4122925,1.3598633,7.980835,0.1334229,9.5075073-3.418457
			c1.4103394-3.2810059-0.3442383-7.3972168-3.7970581-8.4143066c-1.3008423-0.3831787-1.8565063,1.6455078-0.559021,2.0279541
			c2.7894287,0.8216553,3.6068726,4.65979,1.6528931,6.7113037c-2.2123413,2.3226318-6.0475464,1.8574219-8.1566772-0.3148193
			c-5.0546875-5.2064209-0.8696289-14.3172607,4.7560425-17.2244873c7.086853-3.6622314,11.6501465,5.675293,12.7240601,11.208374
			c1.3051758,6.7247314-2.2942505,12.4237061-8.1497192,15.5235596c-7.4777832,3.9584961-16.3912354,2.53125-24.3674927,1.2583008
			c-0.2642822-0.0423584-0.4876709,0.0212402-0.6826782,0.1252441c-3.1269531-1.7132568-6.5880737-2.8969727-10.1724854-3.4006348
			c-15.4631958-2.1724854-28.9696045,6.3468018-39.8151855,16.668457c0-8.685791,0-17.3718262,0-26.0578613
			c3.9472656-1.5773926,7.7437744-3.4414062,11.4108887-5.5341797c0.1105957,0.0870361,0.2476196,0.1555176,0.4190674,0.1931152
			c6.675354,1.4630127,13.3505249,2.9262695,20.0256958,4.3896484c1.3191528,0.2891846,1.8827515-1.737915,0.5591431-2.027832
			c-6.1605835-1.3505859-12.3209839-2.7009277-18.4815063-4.0512695c1.8609009-1.1296387,3.6922607-2.3087158,5.4938354-3.536499
			c0.442688,0.0129395,0.8773804-0.2218018,1.0249634-0.6898193c1.7640991-1.2248535,3.5032959-2.487793,5.2191162-3.7845459
			c0.0388184,0.0137939,0.0631714,0.0394287,0.105896,0.0499268c7.154541,1.737915,14.3092041,3.4758301,21.4637451,5.2137451
			c1.3148193,0.3195801,1.8758545-1.7078857,0.5591431-2.0279541c-6.673645-1.6210938-13.347229-3.2420654-20.020874-4.8632812
			c1.8939209-1.4730225,3.7719727-2.9665527,5.6199951-4.4921875c1.2182617-1.0058594,2.420166-2.0322266,3.632019-3.0463867
			c0.1219482,0.130127,0.2755127,0.2399902,0.5030518,0.2874756c7.2538452,1.508667,14.6798096,1.9698486,22.0621338,1.3280029
			c1.3380127-0.1164551,1.3503418-2.2205811,0-2.1030273c-6.9158325,0.6013184-13.8666382,0.2373047-20.6759644-1.0968018
			c3.024231-2.5456543,6.0368042-5.1054688,9.0344849-7.6838379c0.1344604,0.0716553,0.2887573,0.1209717,0.473938,0.1260986
			c5.1561279,0.1429443,10.3122559,0.2858887,15.4683228,0.428833c1.3537598,0.0375977,1.3527222-2.0655518,0-2.1030273
			c-4.5652466-0.1265869-9.1303711-0.2532959-13.6956177-0.3797607
			c6.3829346-5.5083008,12.7349854-11.0534668,19.1225586-16.5488281c1.02771-0.8840332-0.4655151-2.3659668-1.4871216-1.4870605
			c-8.4403687,7.2613525-16.824585,14.5982666-25.2944946,21.8300781
			c-0.2481079-5.2236328,0.3391724-10.4346924,1.7781982-15.4760742c0.3720093-1.3037109-1.6566162-1.8603516-2.0280151-0.559082
			c-1.6420288,5.7529297-2.2427368,11.7714844-1.7509766,17.7340088c-2.4942017,2.1207275-4.9923096,4.2366943-7.5075073,6.3314209
			c-0.803833,0.6694336-1.6203003,1.3278809-2.432373,1.9901123c-0.2091064-6.4912109-0.4180298-12.9827881-0.6271362-19.4742432
			c-0.043396-1.3498535-2.1467285-1.355835-2.1030884,0c0.2182617,6.7767334,0.4364624,13.5535889,0.6546631,20.3303223
			c0.008606,0.2680664,0.112854,0.4682617,0.2511597,0.6300049c-2.6931763,2.1552734-5.43573,4.2567139-8.246521,6.2564697
			c0.0379028-7.1669922,0.0758057-14.3334961,0.1137085-21.5004883c0.0070801-1.3535156-2.0960083-1.3552246-2.1030884,0
			c-0.0404663,7.6477051-0.0808105,15.2954102-0.1212769,22.9432373c-2.6036987,1.7823486-5.2666016,3.4683838-8.0009155,5.0296631
			c-0.0762939-6.078125-0.1525879-12.15625-0.2290039-18.234375c-0.0170288-1.3525391-2.1201172-1.3562012-2.1030884,0
			c0.0812378,6.4650879,0.1624756,12.9302979,0.2435913,19.3956299c-2.7050171,1.4589844-5.475769,2.7978516-8.3307495,3.9720459
			c0-22.6125488,0-45.2255859,0-67.8383789c6.2333374-16.5283203,19.8463745-29.9556885,36.6397705-35.689209
			c1.2735596-0.4348145,0.7267456-2.467041-0.5591431-2.0280762c-15.8344727,5.40625-28.9519653,17.3415527-36.0806274,32.3413086
			c0-10.222168,0-20.4442139,0-30.6665039c0-0.8122559-0.2058716-1.4880371-0.5279541-2.0566406
			c5.8389282-0.8636475,11.2526855-3.8605957,14.4379272-9.2095947c2.2841187-3.8358154,2.9087524-8.4112549,1.8637695-12.6658936
			c6.3947754,5.5788574,15.6698608,6.9750977,23.6012573,3.5913086c8.6398315-3.6861572,15.7344971-13.1364746,13.479126-22.8707275
			c-1.1553345-4.9868164-4.8233643-8.9422607-9.482666-10.894165c-0.0488281-0.0202637-0.0888672-0.0133057-0.135498-0.0262451
			c3.5025635-7.0540771,5.4815674-14.9984131,5.4815674-23.4083252c0-29.1164551-23.6033936-52.7197266-52.7197266-52.7197266
			s-52.7198486,23.6032715-52.7198486,52.7197266c0,8.479248,2.0134277,16.4840088,5.5702515,23.581543
			c-0.2410889-0.0776367-0.5198975-0.0539551-0.8044434,0.1289062c-4.2797852,2.7496338-8.8146973,5.7924805-10.6830444,10.7651367
			c-1.9205933,5.1123047,0.468689,9.9995117,3.4928589,14.1062012c5.9752808,8.1136475,16.2622681,15.0229492,26.7111816,11.401123
			c3.3035889-1.1450195,6.1553955-3.3366699,8.0593262-6.1911621c-0.506897,3.9711914-0.5689697,7.9970703,1.0582275,11.7497559
			c2.0061035,4.626709,6.5291748,7.3308105,11.1328125,8.8934326c1.3981934,0.4746094,2.8461304,0.8077393,4.3112183,1.0283203
			c-0.3284302,0.5726318-0.5386353,1.2545166-0.5386353,2.0770264c0,11.744873,0,23.4901123,0,35.2352295
			c-6.4867554-17.12854-20.6110229-30.9654541-38.0218506-36.9100342c-1.2836304-0.4382324-1.8347168,1.5924072-0.559021,2.0280762
			c18.3933716,6.2797852,33.0011597,21.7768555,38.2407837,40.4833984c0.0647583,0.2314453,0.192749,0.385376,0.3400879,0.5057373
			c0,21.1002197,0,42.2003174,0,63.300415c-3.5460815-1.3415527-6.9586182-2.9468994-10.2719727-4.7340088
			c0.0812378-6.465332,0.1624756-12.930542,0.2436523-19.3956299c0.0169678-1.3537598-2.0861206-1.3544922-2.1030273,0
			c-0.076416,6.078125-0.15271,12.15625-0.229126,18.234375c-2.734314-1.5615234-5.3972168-3.2473145-8.0009155-5.0296631
			c-0.0404663-7.6478271-0.0808105-15.2957764-0.1211548-22.9432373c-0.0072021-1.3530273-2.1102905-1.355835-2.1030884,0
			c0.0377808,7.166748,0.0756836,14.3334961,0.1135864,21.5002441c-2.81073-1.9995117-5.5531006-4.1005859-8.2462158-6.2558594
			c0.1381836-0.1619873,0.2423096-0.3620605,0.2509155-0.6303711c0.2182617-6.7767334,0.4364624-13.5535889,0.6546631-20.3303223
			c0.0435791-1.3535156-2.0595093-1.3521729-2.1030884,0c-0.2090454,6.4914551-0.4180298,12.9830322-0.6270752,19.4742432
			c-0.8121948-0.6622314-1.6286621-1.3206787-2.4324951-1.9901123c-2.5151978-2.0947266-5.0133057-4.2106934-7.5075073-6.3314209
			c0.4917603-5.9625244-0.1089478-11.9810791-1.7509766-17.7340088c-0.3707886-1.2991943-2.4006348-0.7469482-2.0278931,0.559082
			c1.4389038,5.0413818,2.0261841,10.2524414,1.7780762,15.4760742
			c-8.4699097-7.2318115-16.8540649-14.5687256-25.2944946-21.8300781
			c-1.0211182-0.8786621-2.5152588,0.6025391-1.4871216,1.4870605c6.3875732,5.4953613,12.7396851,11.0405273,19.1226196,16.5488281
			c-4.5652466,0.1264648-9.1303711,0.2531738-13.6956177,0.3797607c-1.3505859,0.0374756-1.3560181,2.140625,0,2.1030273
			c5.1561279-0.1429443,10.3121338-0.2858887,15.4682617-0.428833c0.1849365-0.005127,0.3392944-0.0544434,0.4738159-0.1262207
			c2.9978027,2.5782471,6.010376,5.1381836,9.0345459,7.68396c-6.8092651,1.3341064-13.7600098,1.6981201-20.6759033,1.0968018
			c-1.3480835-0.1174316-1.34021,1.9863281,0,2.1030273c7.3823242,0.6418457,14.8084106,0.1806641,22.0622559-1.3280029
			c0.227356-0.0474854,0.3807373-0.1573486,0.5027466-0.2874756c1.2119141,1.013916,2.4138794,2.0402832,3.6322021,3.0463867
			c1.8480225,1.5256348,3.7259521,3.019165,5.619873,4.4921875c-6.673584,1.6212158-13.3471069,3.2421875-20.0206909,4.8632812
			c-1.3145752,0.3193359-0.7579346,2.3479004,0.559082,2.0279541c7.154541-1.737915,14.3092041-3.4758301,21.4637451-5.2137451
			c0.0427246-0.010498,0.0670776-0.0361328,0.105835-0.0499268c1.7159424,1.2967529,3.4552002,2.5596924,5.2194214,3.7849121
			c0.1477661,0.467041,0.5823364,0.7020264,1.0247192,0.6896973c1.8016968,1.2276611,3.6330566,2.4066162,5.4939575,3.5362549
			c-6.1606445,1.3503418-12.3210449,2.7006836-18.4815674,4.0512695c-1.3214722,0.2895508-0.7622681,2.3173828,0.559021,2.027832
			c6.6752319-1.4633789,13.3505249-2.9266357,20.0257568-4.3896484c0.1713867-0.0375977,0.3081665-0.1062012,0.4187622-0.1936035
			c4.2669067,2.4353027,8.6953735,4.5865479,13.3505859,6.3027344c0.0006104,0.0002441,0.0012207,0.0002441,0.0018311,0.0004883
			c0,6.4980469,0,12.9963379,0,19.4943848c0,2.5567627,0,5.1135254,0,7.6700439
			c-9.8783569-9.9088135-21.8623047-18.4742432-36.2985229-18.8582764
			c-5.4556274-0.1451416-10.9279785,1.1801758-15.6372681,3.7116699c-0.1936646-0.1013184-0.4143677-0.1633301-0.6757812-0.121582
			c-7.2270508,1.1533203-15.0841064,2.4406738-22.1369019-0.2431641
			c-5.8433228-2.2233887-10.7999268-7.2531738-10.6786499-13.8227539
			c0.0986938-5.3505859,3.8413086-15.7902832,10.840271-14.6662598c6.4116211,1.029541,11.1312256,10.1829834,8.3240967,15.9572754
			c-1.5331421,3.1538086-5.3024292,5.026123-8.5474243,3.1081543c-2.8695679-1.6960449-2.7600098-6.4887695,0.6578369-7.4954834
			c1.2952881-0.3815918,0.7439575-2.4119873-0.5591431-2.0279541c-3.100708,0.9135742-4.8166504,4.2739258-4.1347046,7.385498
			c0.7229614,3.2983398,4.1761475,5.1783447,7.3790283,4.987793c3.8273315-0.2277832,6.7365112-3.2088623,7.7578735-6.7758789
			c1.1409912-3.9848633-0.2106323-8.2592773-2.5426025-11.5463867c-2.2889404-3.2260742-5.9258423-6.1542969-10.1165771-5.7226562
			c-3.6685181,0.3776855-6.385437,3.2663574-8.1056519,6.3208008c-2.1550903,3.8261719-3.5117798,8.4677734-2.9086914,12.8730469
			c0.5270996,3.8513184,2.69104,7.2746582,5.6519775,9.7414551c7.3671265,6.137207,16.927002,5.7814941,25.9262085,4.5227051
			c-5.3618774,4.1114502-9.0855103,10.1088867-9.4936523,17.5185547
			c-0.8347778,15.1523438,15.4714355,25.3271484,29.3774414,24.046875
			c6.5618286-0.604248,12.916626-4.6807861,14.1558228-11.5078125c1.1716309-6.4553223-1.864624-13.246582-6.8823242-17.3063965
			c-5.456604-4.4147949-15.2672119-5.5054932-18.7703247,1.9997559c-1.3623047,2.9187012-1.2191162,6.5427246,1.0473022,8.975708
			c2.1697388,2.3284912,5.4465332,3.0147705,8.3477783,1.7821045c1.2416382-0.5275879,0.1712036-2.3398438-1.0614624-1.815918
			c-2.8735352,1.2209473-6.2325439-0.7543945-6.9702148-3.6845703c-0.8171387-3.2459717,1.2826538-6.5706787,4.18927-7.9084473
			c6.0953369-2.8056641,12.7980347,1.7009277,15.8703003,6.8740234c2.9313354,4.9362793,3.5783081,11.7631836-0.6104126,16.2095947
			c-4.7866211,5.0810547-12.4157104,4.987915-18.6672974,3.2651367c-5.6223145-1.5496826-11.2312012-4.4932861-14.6862793-9.333252
			c-3.4345703-4.8111572-4.03125-10.9959717-2.3405762-16.5797119
			c3.6341553-12.0023193,16.7680664-17.6588135,28.5153809-16.4586182
			c13.5805054,1.387085,24.5925903,10.0196533,33.7838745,19.5803223c0,8.4451904,0,16.8901367,0,25.335083
			c0,5.4128418,8.4122925,5.421875,8.4122925,0c0-9.1047363,0-18.2092285,0-27.3140869
			c7.5737305-7.5526123,16.2549438-14.1375732,26.8060303-16.7231445
			c11.4639282-2.8092041,25.4576416,0.2862549,31.6677856,11.1925049c2.8552856,5.0144043,3.7124023,11.2834473,1.755249,16.7695312
			c-2.0290527,5.6877441-7.0257568,9.6477051-12.4223022,11.9733887c-5.9490967,2.5640869-13.421875,4.012207-19.4639893,0.9848633
			c-5.7327271-2.8723145-7.7815552-8.9577637-6.0210571-14.9401855c1.8336182-6.2307129,7.9346924-12.4534912,14.8936157-11.5750732
			c3.6629028,0.4622803,7.0293579,3.2286377,7.055542,7.1442871c0.0239258,3.5794678-3.5988159,6.6877441-7.1279297,5.1883545
			c-1.2315674-0.5234375-2.3044434,1.2875977-1.0615234,1.815918c5.5942993,2.3769531,11.2287598-2.6472168,10.1397095-8.4831543
			c-1.3258667-7.1057129-9.4866943-9.2851562-15.475708-6.7487793c-5.9849243,2.53479-10.2911987,8.6534424-11.0551147,15.0517578
			c-0.8128662,6.8083496,2.9545898,12.708374,9.3309326,15.1300049c7.0776367,2.6878662,15.5687866,0.6204834,22.0441895-2.8017578
			c6.055542-3.2004395,10.9083252-8.585083,12.0336914-15.4959717c1.4819336-9.0998535-2.6580811-17.0307617-9.3060913-22.1655273
			c8.0949707,1.1618652,16.6717529,1.6643066,23.8021851-2.904541c3.2132568-2.05896,5.8964233-4.9902344,7.1933594-8.6186523
			C616.6773071,455.822876,615.8190308,451.1428223,614.1167603,447.0540771z M505.9726562,321.4797363
			c-1.3311157,5.2946777-5.9959106,9.0512695-11.3204346,9.8598633c-6.0130615,0.9133301-12.0276489-1.6162109-16.5066528-5.5161133
			c-3.8813477-3.3793945-8.7401733-8.7772217-9.050293-14.1867676c-0.3650513-6.3649902,5.6787109-10.3879395,10.3683472-13.4008789
			c0.2460327-0.1580811,0.3728638-0.3708496,0.4346313-0.5942383c5.7057495,10.609375,14.9369507,19.0383301,26.12854,23.7202148
			C506.0108643,321.4040527,505.9844971,321.4328613,505.9726562,321.4797363z M572.7250366,297.8149414
			c0.1107178,0.1445312,0.2477417,0.2741699,0.4456787,0.3570557c4.9325562,2.0665283,8.3007812,6.9453125,8.3493652,12.3081055
			c0.050415,5.5582275-3.0113525,10.793457-7.2253418,14.2520752c-8.7338867,7.1679688-21.8343506,6.4278564-29.1192017-2.40625
			c-0.0958252-0.1162109-0.2000122-0.1906738-0.3065186-0.2480469
			C556.8147583,317.5960693,566.7047119,308.9106445,572.7250366,297.8149414z M527.4805908,346.387207
			c-0.8441162-0.244873-1.7597656-0.2485352-2.6069946-0.013916c-5.0366821-0.3323975-10.553772-2.2374268-13.9431763-5.921875
			c-4.3658447-4.7460938-3.2733154-11.7362061-2.2821045-17.5102539c0.0389404-0.2266846-0.0023193-0.4211426-0.076355-0.5950928
			c5.5568848,1.991333,11.5422363,3.0831299,17.7841797,3.0831299c6.0509644,0,11.8577271-1.0327148,17.2701416-2.9091797
			c-0.0429077,0.0700684-0.0810547,0.1435547-0.1096802,0.2209473c-0.3856201,0.2897949-0.6237183,0.7995605-0.3555908,1.3518066
			c2.510498,5.1708984,1.5291138,11.5028076-2.1554565,15.8669434
			C537.6461792,343.9390869,532.6307373,346.1341553,527.4805908,346.387207z"/>
		<path class="st22" d="M476.5954895,254.1194611c1.2208862,0.5625305,2.2905884-1.249527,1.0614014-1.8159485
			c-11.7986755-5.4375916-14.5149841-21.2295227-5.2757568-30.3975983
			c9.3465576-9.2748718,24.1821289-6.1613464,32.0169067,3.2938538c0.6425171,0.7752991,1.6219788,0.1472473,1.7319641-0.6508484
			c0.6271973,0.3834381,1.6468201,0.1168671,1.6237183-0.8344421c-0.1445007-5.9444733,0.9664917-12.0388641,4.4963379-16.9541779
			c3.232666-4.5014648,8.2553711-7.4889069,13.873291-7.401825c5.2983398,0.081955,10.4896851,2.7309113,13.3074341,7.2783966
			c2.779541,4.4858704,3.2192383,10.0497589,1.2581787,14.9297485c-0.5046387,1.2554779,1.5287476,1.801178,2.0278931,0.5590515
			c3.4678955-8.6293793-0.3289185-19.1400146-8.8649292-23.0859375c-8.8430786-4.0876465-18.6221313-0.6340027-23.8775635,7.3320007
			c-3.316864,5.0274506-4.4311523,11.1382599-4.322998,17.0790253c-6.8687744-8.0717621-18.180481-11.7159882-28.1883545-7.4478302
			c-9.9268494,4.2334595-15.2722168,15.8605347-11.7407532,26.1302643
			C467.5431519,247.4286499,471.5182495,251.7793884,476.5954895,254.1194611z"/>
		<path class="st22" d="M546.5956421,223.9477844c7.0916748-9.3044586,21.0505981-11.0181274,29.9639282-3.2388153
			c9.2562866,8.0787506,7.8501587,22.8409119-2.9912109,28.7557983c-1.1885376,0.6481781-0.1283569,2.4649506,1.0614014,1.8159637
			c8.9058838-4.8588409,12.7612305-15.8178101,8.5971069-25.1395111c-4.190918-9.3816681-15.3649292-14.221405-25.19104-11.9702606
			c-5.3306274,1.2211761-9.9612427,4.3924255-13.2561646,8.7152252
			C543.9594727,223.9623566,545.7850952,225.0112305,546.5956421,223.9477844z"/>
		<path class="st22" d="M591.4921875,257.9220276c-4.2835693-3.1623993-9.7194824-4.6318817-15.005127-3.9853516
			c-1.3262329,0.1622467-1.3424072,2.2673645,0,2.1030579c11.302063-1.3825989,21.512146,7.476593,21.1591187,18.9716187
			c-0.3544922,11.5455322-11.3634644,19.9399414-22.6108398,17.5252991c-1.3197632-0.2834167-1.883728,1.7436829-0.559021,2.0279236
			c9.1495972,1.9642334,19.2109375-2.4768677,23.2574463-11.0822144
			C601.9060059,274.6098328,599.4122925,263.769165,591.4921875,257.9220276z"/>
		<path class="st22" d="M477.7416077,296.2897339c1.3371277-0.1203308,1.3498535-2.2246399,0-2.1030579
			c-12.31427,1.1092529-23.9658813-6.9768982-26.5553894-19.2246399c-1.3744812-6.5006104,0.7631836-12.506897,6.495697-16.0239868
			c5.6392822-3.4598083,12.5252991-3.3378143,18.866333-2.5395203c1.339386,0.1686401,1.3271484-1.9360809,0-2.1030579
			c-9.7911987-1.2324677-22.5670471,0.0856476-26.8268738,10.6375427
			c-3.9033203,9.668396,2.4200745,21.393219,10.4232483,26.8731079
			C465.2704468,295.3158264,471.5776978,296.8450928,477.7416077,296.2897339z"/>
		<path class="st21" d="M496.9280396,228.6825714c-2.0990906-2.1080017-4.7947693-3.6809998-7.7305603-4.160965
			c-2.9357605-0.4797668-6.1038208,0.2051697-8.3981934,2.0985565c-2.294281,1.8935852-3.5843811,5.0335999-3.0002747,7.9503937
			c0.5853271,2.9235535,2.8247681,5.204895,5.0728455,7.1631622L496.9280396,228.6825714z"/>
		<path class="st21" d="M533.645813,210.8122101c-1.1442261-2.2940674-3.4790649-3.914093-6.0078125-4.3359375
			c-2.5286255-0.4214478-5.197937,0.3146362-7.25177,1.8488007c-3.385498,2.5288239-4.9525146,7.2510834-3.7507324,11.3019562
			l17.4680176,0.430069C534.5914917,216.9569092,535.0466919,213.6207581,533.645813,210.8122101z"/>
		<path class="st21" d="M573.1826172,231.8589478c-0.7637939-3.6347809-3.8325195-6.6760254-7.473999-7.4067535
			c-3.6415405-0.7311554-7.6461182,0.8901062-9.753479,3.9485931l13.3671265,13.2468872
			C572.3615723,239.512558,573.9464722,235.4937286,573.1826172,231.8589478z"/>
		<path class="st21" d="M588.3921509,283.1274719c2.5383301-3.2299805,2.9992065-7.9949646,1.0040894-11.5859985
			c-1.9953003-3.5910339-6.3845215-5.7257385-10.4175415-4.9440613l-1.5889893,20.5731201
			C581.4265137,287.9324951,585.8538818,286.357666,588.3921509,283.1274719z"/>
		<path class="st21" d="M461.7525024,279.9776001c0.8912354,2.7378845,3.0904236,4.9364624,5.6757507,6.2034302
			c2.5853882,1.2671814,5.5281372,1.6689148,8.4054871,1.5682678l-2.9978027-18.4985962
			c-3.3216858,0.1034851-6.9679565,0.3879395-9.3415222,2.7138672
			C461.4380798,273.9797363,460.8613892,277.2396851,461.7525024,279.9776001z"/>
		<path class="st21" d="M479.0465698,315.7365723c0.8171997,4.1669312,4.5386658,7.5924377,8.7587585,8.0623169
			c4.2201233,0.4701233,8.6040039-2.052948,10.3177795-5.9378662l-14.0115967-12.8977661
			C480.3814392,306.9924011,478.2294922,311.5698853,479.0465698,315.7365723z"/>
		<path class="st21" d="M516.8452759,335.1439819c1.2669678,1.4885864,2.9832153,2.5649719,4.8345337,3.1928101
			c4.1094971,1.394104,8.9194336,0.4836731,12.2353516-2.3154297c3.3158569-2.7993164,5.0202637-7.3884888,4.3356323-11.6736755
			l-22.7363892,0.4633179C513.920166,328.1200562,514.4645386,332.3465271,516.8452759,335.1439819z"/>
		<path class="st21" d="M553.0425415,319.1105347c2.4314575,3.0270691,6.6079712,4.5408936,10.4144287,3.7748413
			s7.0720825-3.77771,8.1431274-7.5098572c1.0709229-3.7323303-0.100647-8.017334-2.9215698-10.6853943L553.0425415,319.1105347z"/>
		<path class="st23" d="M544.9432373,222.2421112c-21.2001343-7.8511963-45.8010254-1.1453857-60.1212158,16.3220215
			c-14.2981262,17.4406891-16.1882019,42.6837311-4.469635,61.997879
			c11.6680298,19.2307739,34.6548767,29.2694702,56.6979065,24.8528137
			c21.692627-4.3466187,39.0175781-22.4030457,42.4129028-44.2725525c0.4336548-2.7935486,0.6486816-5.6063843,0.6641846-8.4328003
			C580.0042725,250.3750153,565.9367065,230.0167084,544.9432373,222.2421112z M578.024353,272.7094727
			c-0.0029907,0.5421753-0.0518799,1.0773926-0.0718994,1.6173401c-5.6395874,0.0367737-11.2790527,0.0739441-16.9186401,0.1109009
			c-0.4413452,0.0028687-0.723938,0.2372131-0.8776855,0.5399475c0.0297852-0.598053,0.0905762-1.188324,0.0905762-1.7937622
			c0-3.4150391-0.5083008-6.7064209-1.4031372-9.8339233c0.1628418,0.0371704,0.340332,0.0435486,0.5455933-0.0320435
			c5.4216309-1.9991455,10.8433228-3.998291,16.2650146-5.9972534c0.7442627,2.3495483,1.3379517,4.7604675,1.7353516,7.2307434
			C577.8236694,267.2505188,578.0093384,269.9775391,578.024353,272.7094727z M573.5477295,293.4017029
			c-4.9504395-2.8153076-9.9008179-5.6302185-14.8511963-8.4455566c-0.1448975-0.0823364-0.2879639-0.1254883-0.425354-0.1394348
			c0.9726562-2.8216858,1.6011963-5.7963867,1.8369141-8.8881531c0.1378174,0.344635,0.4411011,0.6153259,0.9257202,0.6122437
			c5.6083374-0.0367737,11.2166138-0.0737305,16.8250122-0.1102905
			C577.3960571,282.3527832,575.8961792,288.0776978,573.5477295,293.4017029z M566.3766479,305.2364197
			c-4.5402222-3.0509033-9.0802002-6.1017761-13.6203613-9.1524658c-0.2422485-0.1626587-0.4766235-0.1887512-0.6912231-0.1493225
			c2.2764893-2.7530823,4.1338501-5.859436,5.5096436-9.2150879c0.0239258,0.0158081,0.0343018,0.0377808,0.0604248,0.0525818
			c5.0151367,2.8518677,10.0303345,5.703949,15.0454712,8.5560303
			C570.9524536,298.8565674,568.8378906,302.183075,566.3766479,305.2364197z M574.961731,255.3418732
			c-5.3771973,1.9827118-10.7543945,3.9654388-16.1316528,5.9481659c-0.2353516,0.0866699-0.3889771,0.2378235-0.5053101,0.4074707
			c-1.3479004-3.9662781-3.3595581-7.6205597-5.9251709-10.8226166c0.2814941,0.4156952,0.9622192,0.6695404,1.3997803,0.3347778
			c4.4173584-3.378479,8.8346558-6.7569427,13.2518921-10.1354065
			C570.3997803,245.3613129,573.0849609,250.167984,574.961731,255.3418732z M565.7470093,239.4439697
			c-4.3364258,3.3166504-8.6726685,6.6333008-13.0090332,9.9497375c-0.4454346,0.3407288-0.6798096,0.8931885-0.3832397,1.4212189
			c-2.0485229-2.5458679-4.4447632-4.7906494-7.1072998-6.6928558c0.1086426-0.0566864,0.2156372-0.1300049,0.3134155-0.245224
			c3.6647339-4.319519,7.3294067-8.6386108,10.9942017-12.9581299
			C559.946228,233.3902435,563.0393066,236.2468414,565.7470093,239.4439697z M554.8439331,229.6959076
			c-3.5900269,4.2311859-7.1801147,8.4623871-10.7701416,12.6938019c-0.2041626,0.2404938-0.2700806,0.5062561-0.2538452,0.7596893
			c-2.4770508-1.5949707-5.1594849-2.8908997-8.0057373-3.8397522c0.0126343-0.0262909,0.0321655-0.0476379,0.043457-0.0747528
			c2.1677246-5.2042847,4.3353882-10.4081573,6.5031738-15.6124268
			C546.8093262,225.0896759,551.0080566,227.1299133,554.8439331,229.6959076z M536.4911499,222.0320129
			c1.3113403,0.2628784,2.6052856,0.5767059,3.8800049,0.9393921c-2.1804199,5.2348938-4.3609009,10.4697723-6.5413818,15.7044525
			c-0.0067139,0.0160065-0.0004272,0.0328522-0.0058594,0.0492859c-2.2845459-0.6157227-4.6552124-1.0055389-7.0965576-1.1550446
			c0.0056763-0.0410767,0.0257568-0.0714722,0.0272217-0.1150208c0.1816406-5.455246,0.3632812-10.9102936,0.5449829-16.3653412
			C530.3596802,221.1328735,533.43396,221.4195709,536.4911499,222.0320129z M524.5386353,324.2788696
			c-3.8585205-0.1546631-7.6846313-0.7420349-11.4038086-1.7315369c1.9592896-4.3673706,3.593811-8.870697,4.843811-13.4929199
			c0.0841064-0.3109436,0.0271606-0.5752869-0.1032715-0.7864075c2.1557617,0.4060364,4.3721924,0.6413879,6.6459351,0.6413879
			c0.3849487,0,0.7583618-0.0455933,1.1403198-0.0577087c-0.0866699,0.1398621-0.1517334,0.2996521-0.1644897,0.4978333
			C525.1776733,314.3260498,524.8580933,319.3023682,524.5386353,324.2788696z M500.4283752,317.2756958
			c2.2468567-4.3228149,4.8668518-8.4529724,7.8762512-12.2857361c0.0002136-0.0003967,0.0004272-0.000824,0.0006409-0.0010071
			c2.5249939,1.2901611,5.2206726,2.2831726,8.0487366,2.9457397c-0.1782227,0.1207581-0.3307495,0.2926636-0.4032593,0.5606689
			c-1.2449951,4.6035461-2.8555908,9.099884-4.8286438,13.4415894
			C507.4037476,320.7870483,503.8170166,319.2271729,500.4283752,317.2756958z M507.2549438,241.8351898
			c-3.60849-3.7044067-7.2167664-7.4084015-10.8252563-11.1126099c3.565033-2.5201874,7.4275818-4.5848541,11.4929504-6.1496277
			c3.2406616,4.5207825,6.4812927,9.0415649,9.7220764,13.5619354c-3.6854248,0.7192383-7.1672668,1.9995575-10.3529968,3.7573853
			C507.2756958,241.8737946,507.2726135,241.8534546,507.2549438,241.8351898z M519.5603638,237.2129517
			c-3.1983643-4.461853-6.3967896-8.9234772-9.5951538-13.3851166c4.8883057-1.6532898,10.0206299-2.5943298,15.2311401-2.7360382
			c-0.1816406,5.454422-0.3632202,10.9088593-0.5448608,16.3632812c-0.0001221,0.0037079,0.0018311,0.0061646,0.00177,0.0102692
			c-0.0444946-0.0003967-0.0874023-0.0067749-0.131958-0.0067749c-1.6288452,0-3.2199097,0.147049-4.7909546,0.3581848
			C519.7440186,237.6251373,519.7106934,237.4226379,519.5603638,237.2129517z M494.7370605,231.9575195
			c0.0299683,0.039856,0.0406494,0.0829773,0.078125,0.1213837c3.5481262,3.6423798,7.0961304,7.2845612,10.6441345,10.9267273
			c-2.6535645,1.6795807-5.0613403,3.6972198-7.1805115,5.9958038c-0.0718994-0.0755768-0.140686-0.1525879-0.2475891-0.2119446
			c-4.3010254-2.3852539-8.6020508-4.7705231-12.9030762-7.156189
			C487.9107971,237.9673004,491.1446838,234.7194519,494.7370605,231.9575195z M483.8703918,243.3403931
			c4.3369751,2.4053955,8.6738281,4.8107758,13.0108032,7.2161713c-2.3981934,2.9258118-4.3101501,6.2529449-5.68927,9.8458099
			c-0.0888367-0.0591431-0.1760254-0.1199341-0.2951355-0.1542358c-4.5009766-1.2990112-9.001709-2.5982361-13.502594-3.8970337
			c1.1590576-3.525116,2.6842957-6.9524689,4.6304626-10.1961975
			C482.6047668,245.187973,483.2319641,244.2592621,483.8703918,243.3403931z M476.7855835,258.364624
			c4.517395,1.3037415,9.03479,2.6076965,13.552063,3.911438c0.0590515,0.0170288,0.1078186,0.0055237,0.1636963,0.0131226
			c-1.0997009,3.4361877-1.7053528,7.0933533-1.7053528,10.8947144c0,4.4575195,0.8533325,8.7065735,2.344696,12.6414185
			c-0.1452026,0.0039062-0.296875,0.0377808-0.4513245,0.1113281c-4.0993347,1.9519043-8.1987,3.9038086-12.2980347,5.8559265
			c-2.0007935-5.1063232-3.1600647-10.4995422-3.4919434-15.947998c4.2263794-0.0221863,8.4526367-0.0445862,12.678894-0.0667725
			c1.3529358-0.006958,1.3558044-2.1100464,0-2.1030579c-4.2541809,0.022583-8.5083923,0.0447693-12.7626953,0.0671692
			C474.706543,268.5669861,475.3619995,263.3799744,476.7855835,258.364624z M479.2217712,293.7184143
			c4.1763611-1.9884644,8.3527222-3.977356,12.5290833-5.9658203c0.0541077-0.0258789,0.0805054-0.0651245,0.125885-0.0953064
			c1.5729065,3.5415344,3.712738,6.76474,6.2917786,9.587677c-0.1464539,0.0511169-0.288147,0.122406-0.4144592,0.2261047
			c-3.5618591,2.9233704-7.1237488,5.8467102-10.6856079,8.77005c-0.1321716-0.1540222-0.2771606-0.2932739-0.4076843-0.4493408
			C483.5728149,302.1040039,481.1134033,298.0210876,479.2217712,293.7184143z M488.4764099,307.7933655
			c3.5881653-2.9450989,7.1765137-5.8902283,10.764679-8.8353577c0.1060791-0.0870667,0.1798096-0.1986084,0.2298279-0.3203735
			c2.0917664,2.0586853,4.4484863,3.839325,6.9945679,5.335907c-2.9770813,3.8457031-5.610321,7.933136-7.8551941,12.2477417
			C494.9155273,313.8900146,491.5158081,311.0531311,488.4764099,307.7933655z M526.6412964,324.2850342
			c0.3195801-4.9785767,0.6393433-9.9569397,0.9589233-14.9355164c0.0158081-0.2460327-0.0574341-0.431488-0.161438-0.5875854
			c2.0944214-0.1698303,4.1291504-0.5319214,6.105896-1.0474243c0.0010376,0.0166321-0.0062866,0.0275269-0.0045166,0.0443726
			c0.5473022,5.2794495,1.5945435,10.4849548,3.1260376,15.5649719
			C533.3439331,323.9862061,529.9876099,324.2839966,526.6412964,324.2850342z M538.7153931,322.8430786
			c-1.4909668-4.9216919-2.541687-9.9674072-3.0721436-15.084198c-0.0235596-0.2271423-0.1173706-0.4017334-0.2345581-0.5522766
			c2.487854-0.7954102,4.8425903-1.8744812,7.0599976-3.1671143c0.0256348,0.0747375,0.0344849,0.1478577,0.0809937,0.2242737
			c2.8145142,4.6185303,5.6290894,9.2370605,8.4436035,13.8556213c-2.1928101,1.1981812-4.4816284,2.2550354-6.8723755,3.1268616
			C542.3406372,321.8954468,540.5326538,322.4019165,538.7153931,322.8430786z M552.8064575,317.0534668
			c-2.8136597-4.6170959-5.6272583-9.2342224-8.4407959-13.8513184c-0.0532227-0.0872803-0.1225586-0.1386414-0.1868896-0.2014771
			c2.6226196-1.7325745,4.9844971-3.8144836,7.0617676-6.1588745c-0.0628052,0.3781128,0.0510864,0.7872009,0.4542236,1.0581055
			c4.4328613,2.9788208,8.8656616,5.9573975,13.2985229,8.9360046
			C561.5044556,310.8237305,557.4086914,314.2833252,552.8064575,317.0534668z"/>
		<g>
			<path class="st22" d="M551.609375,296.1064148c-2.7589722-6.1227112-7.2383423-11.4350281-12.7492676-15.2686157
				c7.470459,1.0523682,15.3526611-1.0507202,21.2250366-5.7969971l-0.305603,0.0172424
				c-6.3345947-3.5559082-13.7255249-5.1755371-20.9680786-4.6468811c0.0874023-0.0591431,0.1783447-0.1150208,0.2645264-0.1749878
				c6.6143799-4.6062012,11.0234375-12.2446289,11.7038574-20.2761536l-0.1989136,0.2320862
				c-7.8203735,2.3766327-14.8096924,7.4059143-19.5339966,14.0765991
				c-0.7618408,1.0757751-1.4819946,2.2965393-1.7850342,3.5579834c-0.3826294-0.266571-0.7861938-0.4982605-1.2089844-0.6925354
				c1.6462402-1.6036072,2.5056152-3.9596863,2.9663696-6.2541809c1.5870972-7.9021149-0.5161133-16.4676208-5.5828857-22.7361755
				l0.0172729,0.305603c-4.0008545,7.1274414-5.5658569,15.5947723-4.3601685,23.6792908
				c0.2331543,1.5637207,0.654541,3.2371521,1.6068726,4.4402466c-0.2615967,0.0587463-0.522522,0.1203613-0.7770386,0.2045593
				c-0.1916504,0.0554504-0.3764648,0.1281738-0.5628662,0.2033386c-0.0466309,0.0192871-0.0958862,0.0303955-0.1421509,0.0513306
				h0.0175781c-0.1032715,0.0439453-0.1999512,0.1031189-0.3010864,0.1524048
				c0.1289062-1.8796387-0.9973145-3.6996765-2.2059326-5.203064c-5.1209106-6.3712311-12.4028931-10.9663544-20.353302-12.8632355
				l-0.2127686-0.2201538c1.1672668,7.9756622,6.0323792,15.3318939,12.9144897,19.5277557
				c2.0588074,1.2552795,4.4532166,2.2550354,6.8166199,2.0603638c-0.1662598,0.4128113-0.3018188,0.8367004-0.395874,1.2733154
				c-1.0778198-0.5721741-2.3575439-0.8761292-3.5765991-1.0576782c-8.0843811-1.2059937-16.5516968,0.3590088-23.6790466,4.3601685
				l-0.305603-0.0172424c6.2686462,5.0666809,14.8338623,7.1697388,22.7363586,5.5825806
				c0.0804443-0.0160217,0.1611328-0.037384,0.2417603-0.0546265c-6.0789795,4.1942139-10.8872986,10.2122192-13.5750732,17.0936279
				l-0.2471924,0.1807251c8.0601807-0.0579224,16.0164185-3.8635864,21.1201782-10.1021423
				c0.3345337-0.4091187,0.652771-0.8403931,0.9572754-1.2823792c-0.8048096,7.6145935,0.7734375,15.4666138,4.522522,22.1450806
				l-0.0172729,0.305603c4.5565186-5.637207,6.6895752-13.1285706,5.9241333-20.3283081
				c5.3690186,5.1282959,12.8406372,8.0187683,20.2658081,7.6930542L551.609375,296.1064148z M559.1520996,275.0933838
				l-26.6630249,1.5045776c0.0723267-0.2714844,0.1433716-0.5438232,0.1856689-0.8223267
				c0.1098022-0.7229309,0.1140747-1.4581909,0.0228882-2.1819458L559.1520996,275.0933838z M550.1724243,250.6694031
				l-17.9663696,20.9908752c-0.3773804-0.9993591-0.9419556-1.92276-1.6619873-2.7089539L550.1724243,250.6694031z
				 M525.4890747,239.0766296l1.5615234,27.671814c-1.0025024-0.3101196-2.0615845-0.4382629-3.109436-0.3659668
				L525.4890747,239.0766296z M498.8123169,249.5657043l21.6641235,17.8469543
				c-0.7553101,0.4444275-1.4221802,1.0416565-1.9091187,1.7621155c-0.111084,0.1647339-0.1983643,0.3405457-0.2938843,0.5126343
				L498.8123169,249.5657043z M490.8698425,275.0933838l26.4322815-1.4984436
				c-0.0095825,1.0141602,0.132019,2.0352783,0.3970947,3.0124817L490.8698425,275.0933838z M499.8475342,297.2918701
				l19.1911621-17.6489563c0.4574585,0.6925354,1.0002441,1.3222046,1.6690063,1.8163452
				c0.1416626,0.1047668,0.2947998,0.1893616,0.4442139,0.2809753L499.8475342,297.2918701z M524.295105,282.6985168
				c0.97229,0.0579224,1.9573975-0.069397,2.8807373-0.3787231l-1.4478149,25.6566772L524.295105,282.6985168z
				 M529.6960449,281.7636414c-0.1113892-0.1947021-0.2601318-0.3590088-0.3834229-0.5442505
				c0.7354736-0.5352173,1.3700562-1.2014465,1.9000244-1.9424744l19.8712769,16.4852905L529.6960449,281.7636414z"/>
		</g>
		<g>
			<path class="st23" d="M590.0527344,341.775238c-1.3151855-3.2872925-3.97052-6.0151062-7.2211304-7.418457
				c-4.8688965-2.1016541-10.9866943-0.9811096-14.7067261,2.7986755
				c-3.7199707,3.7793579-4.7246704,10.0033569-2.2739258,14.7062988l0.1428223-2.4006653
				c0.7045898,4.7140503,4.4651489,8.7988281,9.0826416,9.9805603c4.6175537,1.1815491,9.8283081-0.5549316,12.8869019-4.2104492
				S591.8233032,346.2003174,590.0527344,341.775238z"/>
			<path class="st23" d="M467.5316467,334.356781c-3.2506104,1.4033508-5.9060669,4.1311646-7.2211914,7.418457
				c-1.7704773,4.4250793-0.9690857,9.8004456,2.0895081,13.4559631s8.2693481,5.3919983,12.8867493,4.2104492
				c4.6175232-1.1817322,8.3782043-5.26651,9.0826416-9.9805603l0.1428528,2.4006653
				c2.4508667-4.7029419,1.446167-10.9269409-2.2738342-14.7062988
				C478.5183411,333.3756714,472.4005432,332.255127,467.5316467,334.356781z"/>
		</g>
	</g>
	<g>
		<path class="st23" d="M177.0047455,453.5004883c-4.5995483-13.138855-13.8235931-25.8533936-24.8961334-34.1321716
			c-1.6018524-1.1977844-3.3025818-2.3101196-5.0692444-3.3522034c3.4664764,9.1582336,7.9631195,17.8900757,13.3829498,26.046051
			C165.904068,445.9399109,171.4362335,449.746582,177.0047455,453.5004883z"/>
		<path class="st23" d="M128.8289032,410.1353149c-0.193161-0.7849426,0.4506989-1.2881165,1.0702209-1.2971497
			c-5.6335144-1.578949-11.4249725-2.5540771-17.0123825-2.9020081c6.1128693,4.9742737,12.2821198,9.8782959,18.5235519,14.6886597
			C130.5498657,417.1284485,129.6893311,413.631897,128.8289032,410.1353149z"/>
		<path class="st23" d="M130.8568115,409.5762939c1.0238037,4.1599121,2.0475159,8.3198547,3.0712128,12.4795837
			c0.0463257,0.1881409,0.0350189,0.3553162-0.0029755,0.5093384c7.232193,5.5324707,14.5529938,10.947876,21.9531708,16.253418
			c-4.3968353-7.2093811-8.0998993-14.818634-11.0598145-22.7376099c-0.1936646-0.518158,0.0360413-0.9049072,0.3998718-1.1086426
			c-4.5851593-2.4990234-9.6042023-4.4866943-14.7665863-5.9729919
			C130.634491,409.1203613,130.7884216,409.2982178,130.8568115,409.5762939z"/>
		<path class="st23" d="M154.5183105,440.4212036c-7.6960297-5.5217896-15.3033295-11.165802-22.818222-16.9315796
			c-5.4287567,0.8812866-10.8575134,1.7627563-16.286377,2.644043c-1.3261261,0.2152405-1.8915329-1.8116455-0.5590439-2.0281067
			c4.8590469-0.7886658,9.7181854-1.5775146,14.5772324-2.3663635
			c-6.5592728-5.0662842-13.0467529-10.2255859-19.4638901-15.4723816
			c0.163887,10.1514282,3.4841309,20.1742859,9.1872787,28.5672913c0.2153397-0.1511841,0.4876709-0.2329102,0.8069305-0.179718
			C131.4808502,436.5767212,142.9995728,438.4988708,154.5183105,440.4212036z"/>
		<path class="st23" d="M120.6040268,436.8829346c3.0316849,4.0383606,6.6371002,7.640686,10.7213516,10.6190796
			c12.710022,9.2689209,29.7465515,12.2592163,44.8764496,7.9881897c-5.98349-4.0311584-11.922821-8.1270142-17.8065948-12.3009338
			C145.7981567,441.0872498,133.2010956,438.9849854,120.6040268,436.8829346z"/>
		<path class="st23" d="M181.1675568,453.5004883c4.5995483-13.138855,13.8235779-25.8533936,24.8961334-34.1321716
			c1.6018524-1.1977844,3.3025818-2.3101196,5.0692444-3.3522034c-3.4664764,9.1582336-7.9631195,17.8900757-13.3829498,26.046051
			C192.2682343,445.9399109,186.7360687,449.746582,181.1675568,453.5004883z"/>
		<path class="st23" d="M229.343399,410.1353149c0.193161-0.7849426-0.4506989-1.2881165-1.0702209-1.2971497
			c5.6335144-1.578949,11.4249725-2.5540771,17.0123901-2.9020081c-6.1128845,4.9742737-12.282135,9.8782959-18.5235748,14.6886597
			C227.6224365,417.1284485,228.4829712,413.631897,229.343399,410.1353149z"/>
		<path class="st23" d="M227.3154907,409.5762939c-1.0238037,4.1599121-2.0475159,8.3198547-3.0712128,12.4795837
			c-0.0463257,0.1881409-0.0350189,0.3553162,0.0029755,0.5093384c-7.232193,5.5324707-14.5529938,10.947876-21.9531708,16.253418
			c4.3968353-7.2093811,8.0998993-14.818634,11.0598145-22.7376099c0.1936646-0.518158-0.0360413-0.9049072-0.3998718-1.1086426
			c4.5851593-2.4990234,9.604187-4.4866943,14.766571-5.9729919
			C227.5378113,409.1203613,227.3838806,409.2982178,227.3154907,409.5762939z"/>
		<path class="st23" d="M203.6539917,440.4212036c7.6960297-5.5217896,15.3033295-11.165802,22.818222-16.9315796
			c5.4287567,0.8812866,10.8575134,1.7627563,16.286377,2.644043c1.3261261,0.2152405,1.8915253-1.8116455,0.5590363-2.0281067
			c-4.8590393-0.7886658-9.7181854-1.5775146-14.5772247-2.3663635
			c6.5592651-5.0662842,13.0467529-10.2255859,19.4638977-15.4723816
			c-0.1638947,10.1514282-3.4841461,20.1742859-9.1872864,28.5672913c-0.2153473-0.1511841-0.4876709-0.2329102-0.8069305-0.179718
			C226.691452,436.5767212,215.1727142,438.4988708,203.6539917,440.4212036z"/>
		<path class="st23" d="M237.5682831,436.8829346c-3.0316925,4.0383606-6.6371002,7.640686-10.7213593,10.6190796
			c-12.710022,9.2689209-29.7465515,12.2592163-44.8764496,7.9881897c5.98349-4.0311584,11.922821-8.1270142,17.8065948-12.3009338
			C212.3741302,441.0872498,224.9712067,438.9849854,237.5682831,436.8829346z"/>
		<path class="st22" d="M248.3506317,245.575943c-8.9008942-12.4138794-28.1826019-15.7568207-40.7429047-7.0637817
			c0.1007385-15.0160065-13.1197662-28.8736877-28.1238556-29.4793549
			c-15.0041046-0.6058655-28.6011658,10.7991943-29.7113342,25.7743378
			c-12.9008179-6.6895752-30.6037979-1.6711578-38.0747299,10.7936401
			c-7.4708328,12.464798-3.5513992,30.4427948,8.4298401,38.6669464
			c-13.4886093,8.5158081-18.5397873,28.0758057-10.8610077,42.0577393
			c7.6788864,13.9821472,26.8951797,20.2149353,41.3188858,13.4013367
			c2.2917175,12.0889587,13.6048584,21.7501526,25.8388214,22.4264526c-0.7539368,0.6765137-1.2573242,1.6684875-1.2573242,2.987854
			c0,6.9407349,0,13.8815002,0,20.8220215c-4.1843719-8.7478638-13.8238983-14.7576294-22.7752991-18.3172302
			c-7.6820679-3.0552063-15.7365875-5.1726685-23.1012268-8.9974365c-6.8292389-3.546875-12.9399567-8.2756958-18.165802-13.9168091
			c-0.9217377-0.9950562-2.406311,0.4949646-1.4870377,1.4871216c4.8574982,5.2433167,10.4912262,9.7431641,16.7298889,13.2407532
			c6.4886093,3.6376343,13.5612259,5.8920898,20.5380173,8.3759155
			c12.0749969,4.2989807,27.3377686,11.9240417,28.2614594,26.1378479c0,0.9028625,0,1.8056946,0,2.7085266
			c-0.0141754,0.2326965-0.0189972,0.4612732-0.0405579,0.6974792c-0.0125275,0.1367798,0.0114899,0.2501526,0.0405579,0.3589783
			c0,1.5304871,0,3.0611877,0,4.5916443c-3.4486084-6.8144226-8.6031799-12.7221375-15.1531067-16.9761353
			c-5.4565887-3.5437927-11.6834412-5.8468933-18.1283112-6.7195435c-6.8356018-0.9258728-14.1895676-0.3972168-20.251709-4.2195129
			c-0.6378021-0.4023438-1.6511383,0.1121521-1.5822372,0.9077759
			c1.0443497,12.0667725,11.0338364,19.9064636,21.0097733,25.1370544
			c11.1999817,5.8723755,22.7063904,11.2173157,34.1055908,16.7116089c0,11.6923828,0,23.3847656,0,35.0769348
			c-4.9465332-3.3501282-9.868103-6.7364197-14.7447052-10.1859436c-5.4198303-8.1559753-9.9164734-16.8878174-13.3829498-26.046051
			c-0.6010437-0.3544617-1.2038269-0.7073059-1.8210907-1.0437317c-0.3638306,0.2037354-0.5935364,0.5904846-0.3998718,1.1086426
			c2.9599152,7.9189758,6.6629791,15.5282288,11.0598145,22.7376099c-7.400177-5.305542-14.7209778-10.7209473-21.9531708-16.253418
			c0.0379944-0.1540222,0.0493011-0.3211975,0.0029755-0.5093384c-1.0236969-4.159729-2.0474091-8.3196716-3.0712128-12.4795837
			c-0.0683899-0.2780762-0.2223206-0.4559326-0.4051208-0.5769043c-0.1844177-0.0531921-0.3677216-0.1094666-0.5525665-0.1612244
			c-0.6195221,0.0090332-1.263382,0.512207-1.0702209,1.2971497c0.8604279,3.496582,1.7209625,6.9931335,2.5813904,10.489502
			c-6.2414322-4.8103638-12.4106827-9.714386-18.5235519-14.6886597c-0.985405-0.0611877-1.9655762-0.106781-2.9360886-0.129364
			c0.00103,0.153595,0.0148926,0.3063965,0.0173569,0.460022c6.4171371,5.2467957,12.9046173,10.4060974,19.4638901,15.4723816
			c-4.8590469,0.7888489-9.7181854,1.5776978-14.5772324,2.3663635c-1.332489,0.2164612-0.7670822,2.2433472,0.5590439,2.0281067
			c5.4288635-0.8812866,10.8576202-1.7627563,16.286377-2.644043c7.5148926,5.7657776,15.1221924,11.40979,22.818222,16.9315796
			c-11.5187378-1.9223328-23.0374603-3.8444824-34.5560913-5.7668152c-0.3192596-0.0531921-0.5915909,0.0285339-0.8069305,0.179718
			c0.4702148,0.6921082,0.9465866,1.3799133,1.4487381,2.0488281c12.5970688,2.1020508,25.1941299,4.2043152,37.7912064,6.3063354
			c5.5432587,3.9324036,11.1394958,7.7904053,16.7717896,11.5952454c0,7.8232727,0,15.6465149,0,23.469574
			c-6.8468933-8.7737427-16.7161255-15.9954529-28.3139343-14.8782043
			c-5.4575043,0.5257874-10.9133759,2.7590637-14.6294861,6.8941345c-4.5874329,5.1048889-5.5248795,12.310791-5.1945267,18.9272461
			c0.3118668,6.2447205,2.2647018,12.5325623,7.4343796,16.4281921c4.5373077,3.4191284,10.7963104,4.6793213,16.2259979,2.830719
			c11.1112518-3.7826538,16.855072-20.2841492,6.6120453-28.3066406c-5.0333099-3.9420166-12.8427124-3.484436-16.2435608,2.354248
			c-3.2329559,5.550354,0.4871521,12.91745,7.0956116,12.9525757c1.3535309,0.0073853,1.3551788-2.0956726,0-2.1030579
			c-6.496109-0.0345154-7.9627228-8.0436401-3.5780029-11.8291626c4.6130981-3.9826965,11.447876-1.2772522,14.1911163,3.5281677
			c5.4624329,9.5690002-2.5540771,22.0941772-13.2600403,22.1506653c-4.8959045,0.0256653-9.8592682-2.2840271-12.7812805-6.2552185
			c-3.3354492-4.5335083-3.8547516-10.5675049-3.5899048-16.011261c0.2607269-5.3599548,1.7029877-10.6476135,5.7628021-14.37854
			c3.4602051-3.1800537,8.1789703-4.8616943,12.8257599-5.1490173c11.5854797-0.716156,21.1582489,7.3726501,27.4430237,16.375
			c0,10.2803955,0,20.5603943,0,30.8408203c0,5.4129028,8.4122925,5.421936,8.4122925,0c0-10.4736938,0-20.9471436,0-31.4205933
			c5.5881195-7.8123779,13.651886-14.9283142,23.5551147-15.7584534c4.6027222-0.3857117,9.3733521,0.5571899,13.3596344,2.9286804
			c4.613205,2.744873,7.3184509,7.1816711,8.2724304,12.4171448c1.9023132,10.4400024-0.7189331,23.6554565-12.7081909,26.0975952
			c-10.2612,2.0903625-19.9794769-7.4367371-17.9645081-17.7904663c1.1816406-6.0713806,7.5861511-11.770813,13.9432068-8.7189026
			c2.6199188,1.2577515,4.6396027,4.1326294,4.4255981,7.1052551c-0.2330017,3.236969-3.0518188,5.8512268-6.2674255,5.8682861
			c-1.3529205,0.0073853-1.3558044,2.1104431,0,2.1030579c5.633316-0.0299683,9.704422-5.7715454,7.9298553-11.1146545
			c-1.8310547-5.51297-7.9564514-8.012207-13.2961731-6.2260437c-5.842392,1.9545898-9.180603,7.9446411-9.1028748,13.9232178
			c0.0756836,5.8269653,3.3346252,11.4101868,8.1737366,14.5900574c4.8081055,3.1595154,10.9680176,3.422821,16.2031097,1.1809082
			c5.8349915-2.4988403,9.4481049-7.7024841,10.651001-13.8445129c1.2699585-6.4842224,1.022583-14.3267822-2.176178-20.2400208
			c-2.6871796-4.9676819-7.6958313-8.2779846-13.0862885-9.6630554c-12.7743073-3.2827454-24.17659,4.0858154-31.9120483,13.7020264
			c0-7.7904053,0-15.5808105,0-23.3712158c5.4378967-3.6791382,10.843338-7.4055176,16.1977539-11.2037964
			c12.5970612-2.1020203,25.1941376-4.2042847,37.791214-6.3063354c0.5021362-0.6689148,0.9785156-1.35672,1.4487305-2.0488281
			c-0.2153473-0.1511841-0.4876709-0.2329102-0.8069305-0.179718c-11.518631,1.9223328-23.0373688,3.8444824-34.5560913,5.7668152
			c7.6960297-5.5217896,15.3033295-11.165802,22.818222-16.9315796c5.4287567,0.8812866,10.8575134,1.7627563,16.286377,2.644043
			c1.3261261,0.2152405,1.8915253-1.8116455,0.5590363-2.0281067c-4.8590393-0.7886658-9.7181854-1.5775146-14.5772247-2.3663635
			c6.5592651-5.0662842,13.0467529-10.2255859,19.4638977-15.4723816c0.0024567-0.1536255,0.0163269-0.306427,0.0173492-0.460022
			c-0.97052,0.022583-1.9506836,0.0681763-2.9360809,0.129364c-6.1128845,4.9742737-12.282135,9.8782959-18.5235748,14.6886597
			c0.8604431-3.4963684,1.7209778-6.9929199,2.5814056-10.489502c0.193161-0.7849426-0.4506989-1.2881165-1.0702209-1.2971497
			c-0.184845,0.0517578-0.3681488,0.1080322-0.5525818,0.1612244c-0.182785,0.1209717-0.3367157,0.2988281-0.4051056,0.5769043
			c-1.0238037,4.1599121-2.0475159,8.3198547-3.0712128,12.4795837c-0.0463257,0.1881409-0.0350189,0.3553162,0.0029755,0.5093384
			c-7.232193,5.5324707-14.5529938,10.947876-21.9531708,16.253418c4.3968353-7.2093811,8.0998993-14.818634,11.0598145-22.7376099
			c0.1936646-0.518158-0.0360413-0.9049072-0.3998718-1.1086426c-0.6172638,0.3364258-1.220047,0.68927-1.8210907,1.0437317
			c-3.4664764,9.1582336-7.9631195,17.8900757-13.3829498,26.046051c-4.6875458,3.31604-9.4182281,6.5712891-14.1706696,9.7946777
			c0-11.6254272,0-23.2510376,0-34.8764648c11.2696991-5.4258728,22.6424103-10.7100525,33.7079773-16.520813
			c9.9741821-5.2375488,19.9650116-13.0649414,21.0097656-25.1370544c0.0689087-0.7956238-0.9444275-1.3101196-1.5822296-0.9077759
			c-6.062149,3.8222961-13.4163208,3.2922058-20.2517242,4.2195129c-6.4453735,0.8742676-12.6708984,3.1751404-18.1283112,6.7195435
			c-6.2982178,4.0905151-11.3128357,9.7063904-14.7554779,16.1903687c0-1.2406921,0-2.4811707,0-3.7218628
			c0-2.2433472,0-4.4866943,0-6.7300415c2.6434174-12.3795776,16.6317139-19.2578735,27.8638458-23.2568054
			c6.976593-2.4836426,14.0498047-4.7384644,20.5380096-8.3759155c6.2385712-3.4975891,11.8724976-7.9974365,16.7298889-13.2407532
			c0.918869-0.9917603-0.5648956-2.482605-1.48703-1.4871216c-5.2258453,5.6411133-11.3365631,10.3699341-18.165802,13.9168091
			c-7.3646545,3.8247681-15.4191742,5.9422302-23.1012268,8.9974365c-8.6695251,3.4474487-17.99646,9.1873779-22.3776855,17.4924316
			c0-6.6659546,0-13.3314819,0-19.9972229c0-1.5462952-0.697052-2.6360474-1.677948-3.2996216
			c11.3783569-1.908783,21.3069458-11.4526978,23.1295776-22.9263611
			c4.5822906,6.0028076,13.4172516,7.0674744,20.7297363,5.1812744
			c11.6767731-3.0120544,21.4329529-12.5606995,24.6953735-24.170105
			c3.2623291-11.6092224-0.0917969-24.8421326-8.4902191-33.4955139
			C254.2297821,277.3245239,257.2514954,257.9898071,248.3506317,245.575943z M138.1726837,380.3382568
			c6.5093536,0.5717773,12.7080688,2.1866455,18.4310303,5.4094543
			c8.5914917,4.8382874,15.1077271,12.6165771,18.5633087,21.6868896c0,1.0630493,0,2.1256714,0,3.1886902
			c-5.7232666-6.5540161-12.5643158-12.1027222-20.2229614-16.2913818
			c-5.2241974-2.8574524-10.7080994-4.8005066-16.3520966-6.6365967
			c-5.4763031-1.7814636-11.5399933-4.2952881-14.2448196-9.6359253
			C128.7210846,379.6769409,133.5022888,379.9279175,138.1726837,380.3382568z M144.7603912,399.9896545
			c-8.6687012-4.3269043-18.3380051-10.2984924-21.5605927-19.7713318c2.2207565,3.4595947,5.7377472,5.9091187,9.5678406,7.569397
			c5.9487762,2.5783386,12.2877808,3.9586792,18.1412506,6.8200073c9.3856812,4.5879211,17.6729889,11.2163086,24.2581329,19.29422
			c0,0.3093262,0,0.6181946,0,0.9274902C165.0189819,409.9089966,154.8500977,405.0255127,144.7603912,399.9896545z
			 M183.5793152,406.4518738c3.5438995-8.6468201,9.8875122-16.0422974,18.1656799-20.7041626
			c5.7230682-3.2229919,11.9214783-4.8372803,18.4310455-5.4094543c4.6708069-0.4103394,9.4514008-0.6611023,13.8254395-2.2786865
			c-2.7049408,5.3406677-8.7690277,7.8514099-14.2447205,9.6357422c-5.6420441,1.8387451-11.1308746,3.7746277-16.3520966,6.6365967
			c-7.4851074,4.1026306-14.1811523,9.4968872-19.8253479,15.8565979
			C183.5793152,408.9429016,183.5793152,407.6974792,183.5793152,406.4518738z M183.5793152,413.4308167
			c6.5215759-7.8618774,14.66008-14.3259277,23.8605042-18.8230896c5.8535919-2.8615417,12.1915588-4.2435303,18.1412506-6.8200073
			c3.830307-1.658844,7.3471985-4.1094055,9.567749-7.5690002c-3.2227936,9.4728699-12.8924103,15.4411621-21.5604858,19.7709351
			c-9.9564209,4.9730225-19.9925232,9.7932434-30.0090179,14.6475525
			C183.5793152,414.2350769,183.5793152,413.8329468,183.5793152,413.4308167z"/>
		<path class="st21" d="M239.5352783,267.570282c1.5871735-10.4500427-4.1829224-21.4780273-14.036972-25.6320038
			c-8.4555206-3.5643311-18.4249725-1.4279938-25.1128082,4.5743866
			c1.6261902-9.6572876-3.3763123-20.0724182-12.6411285-24.0119781
			c-10.5174103-4.4719086-23.3281708-0.206604-28.3441162,10.2101593c-2.139328,4.442749-2.8274384,9.4905243-1.8983154,14.2877502
			c-7.5901489-6.4425049-19.3169403-7.6318512-27.6443939-1.6923218
			c-9.5558319,6.8160858-12.8132324,20.1282959-6.5519791,30.2365723c2.6496887,4.2776184,6.6325912,7.6291809,11.2689896,9.4786072
			c-11.140419,3.2875061-19.4931488,14.4543152-17.871994,26.3619385
			c1.7669678,12.9792786,13.977829,23.1074829,27.1328125,21.2315674
			c5.6650391-0.8075562,10.9230194-3.5376282,14.8581696-7.6109009c-1.6046143,9.2397461,1.4632263,20.064209,9.5884857,24.9386597
			c10.247757,6.1477661,24.8372955,2.3536377,29.7046509-8.8164673c1.9938202-4.5758362,2.2977753-9.747467,0.9694977-14.5001221
			c8.2469482,6.4414978,20.252533,7.3100281,28.8805695,0.7167664c9.6622162-7.3833313,12.6324921-20.989624,6.0659485-31.381134
			c-2.7617188-4.3704529-6.8538818-7.8082886-11.6133118-9.7256775
			C230.9068451,283.8006897,237.9004822,276.5498352,239.5352783,267.570282z M217.8984985,284.9465027
			c-1.0997009,0.0911865-1.5235901,1.8190308-0.2795258,2.0654907
			c10.5023193,2.0819092,18.7431183,12.1813965,17.7472382,23.0278015
			c-1.0228882,11.1401367-10.9335022,20.3537903-22.2054749,19.8144836
			c-6.3097229-0.3019104-12.2510071-3.3435669-16.3094788-8.1489868c-0.787735-0.9328308-2.2225037,0.2612305-1.6515503,1.2741394
			c5.450119,9.6700439,1.5046997,22.9374695-9.3061981,26.6802673c-4.8495941,1.678772-10.3928528,1.4926758-15.0462036-0.7249756
			c-4.6293182-2.206604-7.593338-6.2734985-9.1316223-11.0826111c-1.7511597-5.4745789-1.9273682-11.8127441,0.3354797-17.1698303
			c0.5113983-1.2106934-1.0874786-2.2527771-1.8159485-1.0615845c-6.3319092,10.3555603-20.5636902,14.5187988-30.9962769,7.8020935
			c-10.2661285-6.6096802-13.7884674-20.4390259-7.0473404-30.769104
			c3.7038879-5.6758423,9.8810501-9.6991882,16.6558609-10.3970642c1.0809937-0.1113281,1.540741-1.8225403,0.2795105-2.0654907
			c-6.6017761-1.2719116-12.2452545-5.71875-15.1432419-11.7843933c-2.9311523-6.1350708-2.294281-13.2649536,1.2027969-19.0344391
			c3.5014954-5.7768707,9.5542908-9.6176453,16.3517914-9.8429565c6.7195587-0.2228241,13.246994,2.7348175,17.4286957,7.9986572
			c0.6371765,0.8022156,2.1518402-0.0681915,1.7575226-1.0229797c-2.4919586-6.0354462-1.9096069-12.973938,1.4779968-18.5565338
			c3.4889679-5.7501678,9.7545319-9.0345764,16.4338379-9.1150818c6.6743774-0.0805206,13.0327911,3.0268555,16.6614075,8.6936493
			c3.5209961,5.4987946,4.2918854,12.4153137,1.944931,18.5129852c-0.4650879,1.2082367,1.2692261,1.6740417,1.9219208,0.8102112
			c5.7337494-7.5885162,16.709671-10.6952667,25.5200806-6.9820251
			c8.8101959,3.7128143,14.2506714,13.7410278,12.8226776,23.1430359
			C235.7777863,276.5110168,227.5699615,284.1445007,217.8984985,284.9465027z"/>
		<path class="st23" d="M178.4420776,251.8393555c-0.0891266-0.0236206-0.1714783-0.0564728-0.2770538-0.0564728
			c-13.1336212-0.0022736-23.6812134,11.2676544-28.0407715,22.8314667
			c-1.2174835,3.2293701-1.7990112,6.6585693-1.8332062,10.1015015c-0.377182,0.3966064-0.3764648,1.0950928,0.0017395,1.4992676
			c0.3249054,8.6225891,4.1686707,17.1659241,10.79776,22.7211914c10.7331543,8.9945374,26.2913666,9.6123047,37.9492493,2.0354919
			c11.6516113-7.5722961,16.9747925-21.8476868,13.5117188-35.2736816
			C206.8557281,261.3699341,193.0630493,251.5218353,178.4420776,251.8393555z M203.1485596,265.4095154
			c-4.9616394,5.1262207-10.4927673,9.6443481-16.4681396,13.5325623c-1.093338-1.1152039-2.4160767-1.9973145-3.8742523-2.5234985
			c1.906723-6.9980469,3.8135529-13.9960938,5.7202911-20.9941406
			C194.2345276,257.2670898,199.3997803,260.7199097,203.1485596,265.4095154z M176.9605865,253.9588623
			c0.033371,0.0006104,0.0570984,0.0151978,0.0922241,0.0127258c3.1886902-0.2107239,6.3792419,0.1082306,9.450058,0.8777924
			c-1.9153595,7.0296783-3.8306122,14.0589447-5.7459717,21.0884247l-1.2874146-0.0741577
			c-0.6403656,0.0065918-1.2730255,0.0846252-1.8913269,0.223053c-2.2193146-6.971344-4.4388275-13.9427185-6.6581421-20.9138489
			C172.8583679,254.4801025,174.8845215,254.0812683,176.9605865,253.9588623z M168.9720001,255.9834747
			c2.205658,6.9280243,4.4113159,13.8560333,6.6169739,20.784256c-1.588913,0.7348328-2.9941101,1.8796387-4.0681305,3.2733154
			c-5.2587128-3.9642029-10.5174103-7.9284058-15.776123-11.8926086c-0.0430145-0.0324707-0.0845032-0.0357361-0.1273346-0.059967
			C158.9153595,262.9063721,163.5731201,258.4611511,168.9720001,255.9834747z M150.905304,279.5247192
			c0.6539154-3.2576904,1.9276733-6.5634766,3.6744232-9.6763916c0.0377808,0.0375977,0.0582123,0.0819702,0.1035004,0.1160583
			c5.2410431,3.9510498,10.4819794,7.9017029,15.7230225,11.8525696c-0.4444275,0.8944092-0.7584534,1.8473816-0.9121857,2.8344116
			c-6.3716431-0.0714722-12.7433929-0.1431274-19.1151428-0.2148132
			C150.414856,282.7949524,150.5787506,281.1513367,150.905304,279.5247192z M150.4058228,286.5400391
			c6.3346863,0.0710449,12.6694641,0.1425171,19.0040436,0.2135925c0.0905762,1.1221924,0.3967896,2.2129517,0.862381,3.2367554
			c-4.9759064,3.8270264-9.9515991,7.6540222-14.9274902,11.4810486
			C152.4142151,297.058075,150.6777344,291.8599548,150.4058228,286.5400391z M164.6522827,310.2724915
			c-3.180069-1.8198547-5.8985596-4.2628174-8.0934448-7.1025696c4.9227142-3.7861633,9.8456268-7.5722961,14.7684326-11.3586426
			c0.8717346,1.2154236,1.9873505,2.2581177,3.2635651,3.0272522c-2.396759,5.5990295-4.7936249,11.1980286-7.1903839,16.7970581
			C166.4696655,311.2268982,165.5486603,310.7853394,164.6522827,310.2724915z M169.3382874,312.4121399
			c2.3810577-5.5620728,4.7619019-11.1239014,7.1429443-16.6859436c0.8066254,0.2817688,1.6466217,0.4678345,2.5093079,0.5175476
			c0.7493286,0.0431213,1.4929962-0.0197144,2.2223969-0.157135c1.8243866,5.6994629,3.6486511,11.3982849,5.4729156,17.0977478
			C180.9977112,314.6098633,174.9514771,314.4085999,169.3382874,312.4121399z M199.7482147,306.2688599
			c-3.2414856,2.9132996-7.0255737,5.0295105-11.0419464,6.3326111c-1.8270416-5.7076416-3.6540833-11.4155273-5.4811401-17.1229858
			c1.1829834-0.4957581,2.2771301-1.2084351,3.2218781-2.0862122c4.945816,3.7906494,9.8917236,7.5813293,14.8375397,11.3719788
			C200.7911224,305.280365,200.2845612,305.7868347,199.7482147,306.2688599z M202.6620178,303.2011108
			c-0.0118103-0.0098572-0.0159149-0.0229797-0.0283508-0.0324402c-4.9316406-3.7795715-9.8632812-7.5593567-14.7948151-11.3389282
			c1.0381775-1.4181213,1.732254-3.0749207,1.8937836-4.8358154c0.0064697-0.0702515,0.0029907-0.1398621,0.0077057-0.2098999
			c6.5526886-0.2392578,13.105484-0.4783325,19.6581726-0.7175903
			C208.9679413,292.2848816,206.679306,298.3318176,202.6620178,303.2011108z M209.4447327,283.961731
			c-6.6026001,0.2410889-13.205307,0.4819946-19.8079071,0.7229309c-0.2371063-1.4594421-0.8006592-2.8642273-1.6255646-4.1055298
			c5.9328613-3.8832703,11.4490051-8.3820801,16.3984222-13.4625244c0.8797302,1.285675,1.6611938,2.6479492,2.3230286,4.0853882
			c1.8634949,4.0471802,2.7453918,8.4168091,2.7385101,12.7642517
			C209.4612579,283.9662476,209.4547882,283.9613037,209.4447327,283.961731z"/>
		<path class="st21" d="M258.5016479,338.8531189c-2.2859802-2.9229431-9.0854187-1.003479-9.0854187-1.003479
			c-1.7684021,1.5852966-3.5598145,3.1977234-4.8336792,5.20224c-1.2738495,2.0044861-1.9862061,4.4866638-1.3867035,6.7848511
			c0.8643341,3.3133545,4.4628601,5.5057678,7.8770599,5.2420654c3.4142151-0.2632751,6.4480591-2.6551208,8.0100708-5.702301
			C260.7754822,346.0746155,260.7875061,341.7756348,258.5016479,338.8531189z"/>
		<path class="st21" d="M108.9324951,337.8496399c0,0-6.7994537-1.9194641-9.0854187,1.003479
			c-2.2858582,2.9225159-2.2738419,7.2214966-0.5813217,10.5233765c1.5620041,3.0471802,4.5958481,5.4390259,8.0100555,5.702301
			c3.4142075,0.2637024,7.0127335-1.9287109,7.8770676-5.2420654c0.5995026-2.2981873-0.112854-4.780365-1.3867111-6.7848511
			C112.4923096,341.0473633,110.7008972,339.4349365,108.9324951,337.8496399z"/>
		<g>
			<path class="st23" d="M137.1327667,315.795166c5.4129028,0,5.421875-8.4122925,0-8.4122925
				C131.7198639,307.3828735,131.7108917,315.795166,137.1327667,315.795166L137.1327667,315.795166z"/>
		</g>
		<g>
			<path class="st23" d="M137.9918976,265.9657898c5.4129028,0,5.4218597-8.4122925,0-8.4122925
				C132.5789948,257.5534973,132.5700226,265.9657898,137.9918976,265.9657898L137.9918976,265.9657898z"/>
		</g>
		<g>
			<path class="st23" d="M178.3708649,240.6215363c5.4129028,0,5.421875-8.4122772,0-8.4122772
				C172.957962,232.209259,172.9489899,240.6215363,178.3708649,240.6215363L178.3708649,240.6215363z"/>
		</g>
		<g>
			<path class="st23" d="M221.7567902,263.8179626c5.4129028,0,5.4218597-8.4122772,0-8.4122772
				C216.3438721,255.4056854,216.3349152,263.8179626,221.7567902,263.8179626L221.7567902,263.8179626z"/>
		</g>
		<g>
			<path class="st23" d="M219.608963,317.5134277c5.4129028,0,5.421875-8.4122925,0-8.4122925
				C214.1960602,309.1011353,214.1871033,317.5134277,219.608963,317.5134277L219.608963,317.5134277z"/>
		</g>
		<g>
			<path class="st23" d="M178.8004303,340.2802734c5.4129028,0,5.421875-8.412262,0-8.412262
				C173.3875275,331.8680115,173.3785553,340.2802734,178.8004303,340.2802734L178.8004303,340.2802734z"/>
		</g>
	</g>
	<g>
		<path class="st22" d="M381.8511963,443.0971375c-9.2707825,1.3316956-17.9604187,5.6331177-24.6974487,12.1058044
			c0-9.7562561,0-19.5127563,0-29.2692261c0-1.5438538,0-3.087677,0-4.6317139
			c7.4608765,4.9459229,15.4146423,9.356842,24.4633179,10.3210754c8.6282349,0.9194946,17.8056641-1.9995422,22.937439-9.3143005
			c4.3555603-6.208374,4.2345886-15.5089111-1.3241882-20.9933472c-6.315979-6.2319946-17.1923828-5.2178345-24.9868164-2.8880005
			c-8.3137817,2.4850464-15.6941528,7.4997864-21.0897522,14.2435608c0-3.8153076,0-7.6307983,0-11.4463196
			c0-2.0574951-1.2169495-3.3295898-2.7237244-3.8239441c2.7861633-1.0973206,5.3245239-2.8210754,7.2572327-5.1112366
			c2.2544556-2.6711426,4.1767883-6.274292,7.6355591-6.7797241c2.3503418-0.3434143,4.5894775,0.9264526,6.8475037,1.6635437
			c6.6482849,2.1704407,14.6023865-0.7633972,18.2489624-6.7308655c3.6466064-5.967865,2.6281433-14.3842468-2.3364563-19.3100281
			c9.8924255,0.230835,19.0321655-8.8020935,18.9176636-18.6964111c-0.1143799-9.8946838-9.4606323-18.713623-19.3451843-18.2539978
			c5.2609863-6.8563538,4.4932861-17.6099243-1.6882935-23.649292c-6.1815796-6.0393372-16.9501648-6.556488-23.6820374-1.1373596
			c1.5467834-6.1636047-1.9855042-13.0671997-7.697998-15.8508911c-5.7123718-2.7836914-13.0097656-1.512207-17.7889099,2.6758728
			c-4.0318909,3.5335388-6.2182312,8.8887634-6.3105469,14.2593994c-3.1947632-4.4431458-9.6489868-6.2026367-14.9363403-4.4587708
			c-5.8250427,1.9211121-10.0606384,7.3266602-11.7093201,13.2345886
			c-1.6485596,5.9078979-1.0035706,12.2462769,0.5792847,18.1722412
			c-9.3234558,3.2018433-15.8280945,13.1799316-14.9952698,23.0025635
			c0.8327942,9.8226013,8.9245911,18.5630798,18.6539612,20.1494446
			c-5.3715515,4.5603943-5.3807983,14.0236206-0.0181885,18.5945129c5.3627319,4.5708923,14.7050781,3.0621948,18.35672-2.9640198
			c2.0116577,6.1342468,7.5126038,10.9877319,13.8495483,12.2197876c1.776947,0.345459,3.5958557,0.3737793,5.3906555,0.1677856
			c-0.5566711,0.6543579-0.9171143,1.5214539-0.9171143,2.6268005c0,2.9463501,0,5.8927002,0,8.8390503
			c-4.3802795-4.6435852-9.7644958-8.266449-15.776001-10.5925598c-7.7129822-2.984375-18.6488342-4.7315063-25.9648132,0.1644897
			c-6.4144897,4.2928162-8.0881958,13.2626953-4.9130554,20.0500488
			c3.6673279,7.8396912,12.3625183,11.9716797,20.7093811,12.1107178
			c9.5046997,0.1581421,18.0766602-4.0264282,25.9444885-9.0263672c0,10.1300659,0,20.2601318,0,30.3901978
			c-5.4342957-4.5515747-11.9075928-7.8158569-18.8453674-9.3988953c-7.627533-1.7407837-17.1768188-2.0960999-23.9867249,2.4107056
			c-6.4867859,4.2928162-7.365387,12.4122314-2.9670105,18.5974121c5.1904297,7.2985229,14.5005188,8.4114685,22.7568359,7.0662231
			c8.138916-1.3261108,15.9847717-4.4951172,23.0422668-8.8250732c0,8.3017883,0,16.6035767,0,24.9051514
			c0,1.4456482,0,2.8911133,0,4.3369751c-6.0320435-3.4795227-12.3651733-6.6107178-19.3246155-7.4527588
			c-7.1540527-0.8658752-15.1309204,0.8087769-20.1629944,6.2970886
			c-4.9094849,5.3544312-6.1006775,14.4779358,0.2481995,19.2991943c6.0449829,4.5906067,15.1201172,2.2932434,21.6734314,0.2125549
			c6.2957764-1.9989624,12.2085876-5.0052795,17.565979-8.8187256c0,3.6117859,0,7.2231445,0,10.8347168
			c0,5.4129639,8.4122925,5.4217529,8.4122925,0c0-4.1658936,0-8.3315735,0-12.497467
			c5.0091858,3.9040222,10.5673218,7.0594482,16.5280151,9.3299255c6.6859741,2.5466919,15.6910706,5.3422852,22.6540222,2.2915955
			c7.2343445-3.1695862,8.3757324-12.210144,4.3356323-18.3780518c-4.0775757-6.2254028-11.6030579-8.9031372-18.7991943-8.7905884
			c-9.0084839,0.1410828-17.1207275,4.4875183-24.7184753,8.9916687c0-10.6794739,0-21.3589172,0-32.0383606
			c6.5559692,4.3400269,13.7817078,7.6186829,21.4445496,9.5044861c8.2950134,2.0410461,18.5892944,2.4312439,24.9725342-4.2677612
			c5.0336304-5.2823181,6.3756714-13.7484131,0.6426392-19.0660706
			C398.4252014,442.3353882,389.2185974,442.039032,381.8511963,443.0971375z M357.1537476,416.1741333
			c4.4342041-6.437561,10.7460022-11.5011597,17.9969788-14.4378662c7.0483704-2.8545532,16.7030945-4.6898193,23.7666626-0.9866333
			c6.9754639,3.6569519,8.3269348,13.0926514,4.4813538,19.4827576c-4.249176,7.0605164-12.7723694,9.9440002-20.6593933,9.3851624
			c-9.4927979-0.6727905-17.8493042-5.6160583-25.5856018-10.8400574
			C357.1537476,417.9095764,357.1537476,417.0420532,357.1537476,416.1741333z M348.7414551,499.2105408
			c-4.0100098,3.0092163-8.3673096,5.5435791-13.0049438,7.4884949c-6.1630859,2.5848999-14.032135,5.2802734-20.7776794,3.8512573
			c-8.4548035-1.7908936-9.6855469-11.49646-4.6497803-17.4760437c4.4034119-5.2286987,11.6086121-6.8785095,18.1720581-6.2705994
			c7.317749,0.6777649,13.9725952,4.1708374,20.2603455,7.8733826
			C348.7414551,496.1882019,348.7414551,497.6993713,348.7414551,499.2105408z M348.7414551,460.5497742
			c-5.4609985,3.463501-11.4067993,6.1436768-17.6420593,7.9043884c-7.706604,2.1759644-17.696106,3.4899902-24.1931458-2.3604126
			c-5.5293884-4.979187-6.6358643-13.6149292,0.0646057-18.1057434c6.0255737-4.0385437,14.5811157-3.8072815,21.3927917-2.4107056
			c7.6152039,1.5612793,14.6590576,5.1477966,20.3778076,10.350647
			C348.7414551,457.468689,348.7414551,459.0090332,348.7414551,460.5497742z M348.7414551,420.2722473
			c-6.0255737,3.9334106-12.3804932,7.439209-19.5032043,8.8335266c-8.172821,1.599884-17.2449951-0.0792847-22.8693542-6.638031
			c-4.7970276-5.5938721-5.3213501-14.8788147,0.4580994-20.0563965c6.0476685-5.4178772,16.382782-3.9621582,23.4511719-1.6668701
			c7.1895752,2.3347473,13.6230469,6.7052002,18.4632874,12.478363
			C348.7414551,415.5725708,348.7414551,417.9223022,348.7414551,420.2722473z M376.8632812,487.2164612
			c6.5017395-1.2975769,14.0343018-0.4175415,19.2003784,4.0516968c5.4376831,4.7039795,7.4503784,14.6724243-0.2391663,18.4140015
			c-6.1712952,3.0028381-14.5788574,0.2889709-20.6001282-1.888855c-6.5814514-2.380127-12.6832275-5.9233093-18.0706177-10.365448
			c0-0.4694824,0-0.9389954,0-1.4084778C363.3411865,492.3180542,369.7232056,488.6411743,376.8632812,487.2164612z
			 M402.8563232,464.414978c-5.4523621,6.6524048-14.9696045,6.5794983-22.6576233,4.8421936
			c-8.2499084-1.8641968-16.0953674-5.3987732-23.0449524-10.2095337c0-0.2990417,0-0.5980835,0-0.8970947
			c5.3748474-5.6737671,12.1929932-9.7901611,19.7346802-11.8741455c7.0063782-1.9363098,15.5680542-2.6099548,22.3229675,0.6009521
			c3.1345825,1.4902039,5.8427734,4.0360718,6.5594482,7.5509033
			C406.4928589,457.9698181,405.0945435,461.684082,402.8563232,464.414978z"/>
		<path class="st23" d="M402.0736389,333.8943481c-4.0872498-4.0385742-10.5585022-3.8948059-15.8399048-3.191803
			c-4.3100586,0.5736389-8.5265808,1.6091614-12.6014709,3.0505066c5.2298584-4.8471375,9.3421326-11.0723572,10.6747437-17.8186035
			c0.9002686-4.5573425-0.9366455-10.035614-6.1938171-10.5393982c-5.561615-0.532959-9.6401367,4.493042-12.6351624,8.4552002
			c-1.0140381,1.3415527-1.9546814,2.7327576-2.8245544,4.1652832c0.1996155-1.0730896,0.3805542-2.1507263,0.5221558-3.236969
			c0.8055115-6.1781921,1.4338684-13.9098511-2.952301-18.9754944c-3.8273315-4.4203491-9.9350586-4.2556458-14.1281738-0.4364319
			c-4.8104553,4.381134-4.9927368,11.5578613-4.2853088,17.558197c0.3328247,2.8233337,0.9002686,5.600647,1.6706543,8.3159485
			c-1.7180786-2.6627197-3.508667-5.2660828-5.4539185-7.7228394c-3.8859558-4.9072876-10.2325439-9.1968079-16.750824-6.9434204
			c-5.6207886,1.9432983-7.5551453,8.1822815-6.9073792,13.6141052c0.6784668,5.6897888,4.0044556,10.9561157,8.3871155,14.5978699
			c-0.3035583-0.0299683-0.6069946-0.0628357-0.9109497-0.0858459c-5.95578-0.4526672-12.7980347,0.6703491-16.9150391,5.4213562
			c-3.3014526,3.809967-4.384613,9.794281-1.1841125,13.9981689c3.7654114,4.946106,10.5115662,5.328125,16.1119995,4.1127014
			c4.0387573-0.87677,7.9872742-2.2636719,11.9304199-3.5154724c-1.4790344,0.923584-2.9223328,1.9077759-4.3219604,2.9576721
			c-4.4464417,3.3349304-10.1428223,8.0713501-9.7033081,14.2684326c0.3380432,4.7680359,4.5513916,7.8651428,9.030365,8.45047
			c4.7662048,0.6231384,8.9928894-1.7370911,12.1175232-5.1307373c-0.5579224,4.4431458-0.2760315,9.042572,1.9952393,12.8780212
			c2.5393982,4.2886963,8.1211548,7.2182007,12.9935608,5.2203064c5.5220947-2.2640991,7.0675659-9.1319275,7.8429871-14.4015198
			c0.5462952-3.7128296,0.6875916-7.4527588,0.4771729-11.1705322c0.5311279,0.880249,1.0900574,1.7461243,1.7084351,2.5779114
			c3.3436584,4.4981995,8.1627502,8.8244934,13.624176,10.4857788c4.8530884,1.4760437,10.9319763-0.4844971,11.4150085-6.2098083
			c0.4797668-5.6860962-3.9354553-11.3713684-7.5382996-15.3327026c-2.7567749-3.0309753-5.9494934-5.5998535-9.4413147-7.6819763
			c4.8965149,1.1934509,9.7425232,2.6563721,14.8092957,2.8502502c5.9382935,0.2267456,12.2892151-1.43396,15.7876282-6.5827637
			C405.4452209,343.6855469,405.9000244,337.675354,402.0736389,333.8943481z M388.1498108,352.3968506
			c-8.0109558,0.0729065-15.5361328-3.377655-23.4400024-4.2418823c-0.0023499-0.000824-0.0045166-0.0018311-0.0068665-0.002655
			c-0.0001221,0.0006104-0.0001221,0.0010071-0.0002136,0.0018311c-0.0935364-0.0102539-0.1856689-0.0299683-0.2792969-0.0394287
			c-1.2538452-0.126709-1.3171082,1.6855469-0.279541,2.0657043c5.9378052,2.1751404,11.2858276,5.7314758,15.5797729,10.3777466
			c3.3099976,3.5813904,11.2848206,13.5516663,4.9216003,17.7167358
			c-5.7472229,3.7619019-13.6170044-2.8859863-17.2652283-6.9746399c-2.5506897-2.8588562-4.5370178-6.1853638-5.8693848-9.7587585
			c-0.426178-2.4945068-1.0007019-4.9676819-1.7626648-7.3970947c-0.3360901-1.0714417-2.2073975-0.9515076-2.0655823,0.2795105
			c0.0107727,0.0936584,0.0295715,0.1856689,0.0410767,0.2791138c-0.0011292,0.0002136-0.0023804,0.0002136-0.0035095,0.0006104
			c0.0026855,0.0086365,0.0047302,0.0172729,0.0074158,0.0258789c0.3084717,2.4822083,0.8907166,4.9048462,1.7259827,7.2346497
			c0.9508972,5.5497437,1.0644836,11.2288513,0.2041321,16.822113c-0.899231,5.8475342-3.6144409,15.3674316-11.5692444,12.6800537
			c-7.6528931-2.5851135-7.9365234-11.867981-6.664917-18.4992371c0.0991821-0.5175476,0.2274475-1.0274963,0.3448181-1.5403442
			c3.5704956-5.8027344,5.1495361-12.6553955,8.9114685-18.3809204c0.6447754-0.9812927-0.9015198-2.2166443-1.6515503-1.274353
			c-0.0558777,0.0702209-0.1068115,0.1439514-0.1623535,0.2144165c-0.0007324-0.0006409-0.0013428-0.0010376-0.0020447-0.0016479
			c-0.0043335,0.0067749-0.0078125,0.0137634-0.0121155,0.0203247c-4.0446167,5.1404114-7.0727234,10.9889526-8.7521973,17.3248596
			c-0.1159363,0.4374695-0.2267456,0.8827209-0.3341675,1.3320923c-0.1010437,0.1585693-0.1862793,0.324707-0.2905884,0.4814148
			c-3.4463501,5.1732483-9.6951904,9.4231567-15.8865051,6.0730286c-2.8878174-1.5625305-4.3286743-4.5158691-3.4983215-7.7597961
			c0.8809814-3.4423523,3.725769-6.1418457,6.3640442-8.3283081c5.8470154-4.8450623,12.6173096-8.506134,19.8071899-10.9170532
			c1.2735596-0.4267883,0.743042-2.4324951-0.5590515-2.0279236c-8.3757324,2.6031799-16.7399597,5.6384583-25.2528687,7.7538452
			c-3.9101868,0.9714355-8.1756897,1.3900146-11.8850403-0.512207c-3.2604675-1.6721802-5.0941772-4.8843079-4.5471497-8.5490723
			c1.2264099-8.2173767,10.3690186-10.5597229,17.4295959-10.1023254c1.7149048,0.1111145,3.4138184,0.3345642,5.1045837,0.6027832
			c6.0064697,3.2679749,13.2491455,3.8157043,19.7682495,1.5731812c1.2901001-0.4436035,0.7684326-2.2685852-0.559021-2.0278931
			c-6.0965576,1.1057434-12.0671997-0.3782959-18.0678406-1.433136c-5.0483093-2.643219-9.0902405-7.1481934-10.749176-13.0653381
			c-1.3712158-4.8910522-0.5953064-11.8363342,4.8914795-13.820282c6.1933899-2.2390442,11.9451904,2.6327209,15.3561096,7.2670898
			c4.5331116,6.1593018,8.3813782,12.9125366,12.4945068,19.3572998c0.7253723,1.1367493,2.5368042,0.0922241,1.8159485-1.0614014
			c-4.0921631-6.5478516-6.7737732-13.9197083-7.6317444-21.6080322
			c-0.7277527-6.5215759-0.0983887-16.2583313,7.9142456-17.9208679c3.7368469-0.7752991,6.9366455,1.7590637,8.4430847,5.0153198
			c1.7020569,3.6789551,1.4849854,8.0670471,1.1749573,12.0057983c-0.6143799,7.8043518-2.8469543,15.4117737-6.4100342,22.3722229
			c-0.6156311,1.2026978,1.1983643,2.2680054,1.8159485,1.061615c0.2752075-0.5376892,0.5315247-1.083374,0.7911987-1.6276245
			c0.4771118,0.0817261,0.991272-0.1117249,1.1465454-0.7171936c1.5655823-6.1046448,4.2073669-11.8759766,7.9155579-16.9816589
			c1.8478088-2.5440369,4.0027161-5.3967285,6.7210083-7.0672913c3.1717529-1.9492188,7.3646545-1.6235046,8.7116394,2.2893677
			c1.0721741,3.114563-0.2442017,6.5708618-1.5293579,9.4208984c-1.1515503,2.5536499-2.5951538,4.9855347-4.2838745,7.2206726
			c-3.0219421,3.9995422-6.8251343,7.3110657-11.1311951,9.8326721c-0.7753906,0.4074707-1.5475159,0.8221436-2.307312,1.2612305
			c-1.1813354,0.6828918-0.1411133,2.4171143,1.0614929,1.8159485c0.7423401-0.3710938,1.4795532-0.78125,2.2131653-1.2086487
			c6.5770264-3.4642944,13.738739-5.7850647,21.137085-6.6534119c5.9064636-0.6933594,15.3303528-0.0714722,15.5136414,7.8598022
			C402.9508057,348.4753723,395.0470276,352.334198,388.1498108,352.3968506z"/>
		<circle class="st21" cx="352.1778259" cy="344.092804" r="16.7014904"/>
	</g>
</g>
</svg>
