<?xml version="1.0" encoding="utf-8"?>
<!-- Generator: Adobe Illustrator 26.2.1, SVG Export Plug-In . SVG Version: 6.00 Build 0)  -->
<svg version="1.1" id="Layer_1" xmlns="http://www.w3.org/2000/svg" xmlns:xlink="http://www.w3.org/1999/xlink" x="0px" y="0px"
	 viewBox="0 0 714 714" style="enable-background:new 0 0 714 714;" xml:space="preserve">
<style type="text/css">
	.st0{fill:#A7A9AC;}
	.st1{fill:#939598;}
	.st2{fill:#D9779B;}
	.st3{fill:#FBB040;}
	.st4{fill:#D69637;}
	.st5{fill:#F9ED32;}
	.st6{fill:#ED1C24;}
	.st7{fill:#8B5E3C;}
	.st8{fill:#785134;}
	.st9{fill:#8DC63F;}
	.st10{fill:#F1F2F2;}
	.st11{fill:#FFFFFF;}
	.st12{fill:#F2CC0C;}
	.st13{fill:#F28F38;}
	.st14{fill:#754C29;}
	.st15{fill:#663C14;}
	.st16{fill:#573412;}
	.st17{fill:#BCBEC0;}
	.st18{fill:#E6E7E8;}
	.st19{fill:#3DADF2;}
	.st20{fill:#A97C50;}
	.st21{fill:#3C2415;}
	.st22{fill:#6DCFF6;}
	.st23{fill:#03A65A;}
	.st24{fill:#F2E085;}
	.st25{fill:#00A14B;}
	.st26{fill:#FFF78F;}
	.st27{fill:#A0D9D9;}
	.st28{fill:#C7A70A;}
	.st29{fill:#FFCCA1;}
	.st30{fill:#F28379;}
	.st31{fill:#F28763;}
	.st32{fill:#F28B4E;}
	.st33{fill:#00BBD6;}
	.st34{fill:#F2D852;}
	.st35{fill:#231F20;}
</style>
<g>
	<rect x="54" y="339.0355225" class="st30" width="606" height="77.8459473"/>
	<rect x="54" y="268.3754883" class="st31" width="606" height="77.8458252"/>
	<rect x="54" y="197.7154541" class="st32" width="606" height="77.8458252"/>
	<rect x="54" y="127.0552979" class="st13" width="606" height="77.8459473"/>
	<rect x="54" y="416.8814697" class="st33" width="606" height="170.0631104"/>
	<path class="st34" d="M502.210022,416.3500977c17.9899902-27.3601074,28.4499512-60.1000977,28.4499512-95.2800293
		c0-95.9101562-77.75-173.6501465-173.6599731-173.6501465s-173.6599731,77.7399902-173.6599731,173.6501465
		c0,35.1799316,10.4599609,67.9199219,28.4500122,95.2800293c-52.0599976,0.8798828-85.3300171,2.2299805-85.3300171,3.7299805
		c0,1.5498047,35.5100098,2.9299316,90.5700073,3.7998047C255.8400269,424.5,304.3599854,424.8701172,357,424.8701172
		S458.1599731,424.5,496.9699707,423.8798828c55.0600586-0.869873,90.5700073-2.25,90.5700073-3.7998047
		C587.539978,418.5800781,554.2700195,417.2299805,502.210022,416.3500977z"/>
	<ellipse class="st34" cx="394.1264648" cy="436.8419189" rx="145.9110718" ry="2.7944336"/>
	<path class="st34" d="M452.2114868,447.2213135c0,1.543335-65.3266602,2.7945557-145.9110718,2.7945557
		s-145.9110718-1.2512207-145.9110718-2.7945557s65.3265991-2.7944336,145.9110718-2.7944336
		S452.2114868,445.6779785,452.2114868,447.2213135z"/>
	<path class="st34" d="M518.0311279,457.6008301c0,1.543335-65.3265991,2.7944336-145.9110718,2.7944336
		s-145.9110718-1.2510986-145.9110718-2.7944336s65.3265991-2.7945557,145.9110718-2.7945557
		S518.0311279,456.0574951,518.0311279,457.6008301z"/>
	<ellipse class="st34" cx="325.8084106" cy="467.9802246" rx="145.9110718" ry="2.7944336"/>
	<path class="st34" d="M468.0015869,480.2766113c0,1.543335-57.40625,2.7944336-128.220459,2.7944336
		s-128.22052-1.2510986-128.22052-2.7944336s57.40625-2.7945557,128.22052-2.7945557
		S468.0015869,478.7332764,468.0015869,480.2766113z"/>
	<path class="st34" d="M500.3405762,492.572876c0,1.543335-57.406311,2.7945557-128.22052,2.7945557
		s-128.22052-1.2512207-128.22052-2.7945557s57.406311-2.7944336,128.22052-2.7944336
		S500.3405762,491.029541,500.3405762,492.572876z"/>
	<ellipse class="st34" cx="321.8196411" cy="504.8692627" rx="95.6660919" ry="2.7944336"/>
	<path class="st34" d="M479.7476196,517.8057861c0,1.543335-42.8311768,2.7944336-95.6660767,2.7944336
		s-95.6660767-1.2510986-95.6660767-2.7944336s42.8311768-2.7945557,95.6660767-2.7945557
		S479.7476196,516.2624512,479.7476196,517.8057861z"/>
	<path class="st34" d="M435.4472046,533.2996826c0,1.543335-42.8311768,2.7944336-95.6660767,2.7944336
		c-52.8349609,0-95.6660767-1.2510986-95.6660767-2.7944336s42.8311157-2.7945557,95.6660767-2.7945557
		C392.6160278,530.505127,435.4472046,531.7563477,435.4472046,533.2996826z"/>
	<ellipse class="st34" cx="363.7337036" cy="548.7935791" rx="74.5054779" ry="2.7944336"/>
	<path d="M488.71698,251.357666c-14.2837524-2.7521973-29.711731,2.1342773-40.0474854,12.4851074
		c-7.5135498-8.5788574-20.4868774-11.7495117-30.8877563-7.2470703c-0.5932007,0.2524414-0.2025146,1.1386719,0.362915,0.9318848
		c5.3497925-1.8273926,11.230896-1.5263672,16.3878174,0.3718262c5.5195312,1.9145508,9.8395386,5.8486328,12.840271,10.4880371
		c0.8198853,0.640625,2.0038452,0.4953613,2.6444092-0.3244629c8.7505493-11.213623,23.8961792-17.5820312,38.5409546-15.7180176
		C489.2272339,252.4101562,489.2991943,251.4858398,488.71698,251.357666z"/>
	<path d="M524.52948,216.9875488c-14.2837524-2.7521973-29.711731,2.1342773-40.0474854,12.4851074
		c-7.5135498-8.5788574-20.4868774-11.7495117-30.8877563-7.2470703c-0.5932007,0.2524414-0.2025146,1.1386719,0.362915,0.9318848
		c5.3497925-1.8273926,11.230896-1.5263672,16.3878174,0.3718262c5.5195312,1.9145508,9.8395386,5.8486328,12.840271,10.4880371
		c0.8198853,0.640625,2.0038452,0.4953613,2.6444092-0.3244629c8.7505493-11.213623,23.8961792-17.5820312,38.5409546-15.7180176
		C525.0397339,218.0400391,525.1116943,217.1157227,524.52948,216.9875488z"/>
	<path d="M555.3347778,266.9108887c-14.2837524-2.7521973-29.711731,2.1342773-40.0474854,12.4851074
		c-7.5135498-8.5788574-20.4868774-11.7495117-30.8877563-7.2470703c-0.5932007,0.2524414-0.2025146,1.1386719,0.362915,0.9318848
		c5.3497925-1.8273926,11.230896-1.5263672,16.3878174,0.3718262c5.5195312,1.9145508,9.8395386,5.8486328,12.840271,10.4880371
		c0.8198853,0.640625,2.0038452,0.4953613,2.6444092-0.3244629c8.7505493-11.213623,23.8961792-17.5820312,38.5409546-15.7180176
		C555.8450317,267.9633789,555.9169922,267.0390625,555.3347778,266.9108887z"/>
</g>
</svg>
