<?xml version="1.0" encoding="utf-8"?>
<!-- Generator: Adobe Illustrator 26.1.0, SVG Export Plug-In . SVG Version: 6.00 Build 0)  -->
<svg version="1.1" id="Layer_1" xmlns="http://www.w3.org/2000/svg" xmlns:xlink="http://www.w3.org/1999/xlink" x="0px" y="0px"
	 viewBox="0 0 714 714" style="enable-background:new 0 0 714 714;" xml:space="preserve">
<style type="text/css">
	.st0{fill:#FCEE21;}
	.st1{fill:#D6B52B;}
	.st2{fill:#FAF06D;}
	.st3{fill:#FEF59B;}
	.st4{fill:#D1C674;}
	.st5{fill:#4C3F1F;}
	.st6{fill:#FFFFFF;}
	.st7{fill:#D696C2;}
	.st8{fill:#2E6C35;}
	.st9{fill:#84C554;}
	.st10{fill:#419444;}
	.st11{fill:#DDDBAC;}
	.st12{fill:#563E22;}
	.st13{fill:#6D6E71;}
	.st14{fill:#6D6E70;}
	.st15{fill:#FFD85D;}
	.st16{fill:#263A7F;}
	.st17{fill:#B5DDC0;}
	.st18{fill:#1B6634;}
</style>
<g>
	<rect x="0" y="-1.0212455" class="st17" width="714" height="714"/>
	<g>
		<g>
			<g>
				<g>
					<g>
						<path class="st6" d="M380.2506409,25.2283726c-4.0302429-1.9989643-8.7645569-0.8821449-12.6086426,1.0116081
							c-1.1330261,0.5584087-2.2255554,1.2058296-3.2695618,1.9260559c0.275177-1.4567051,0.4127502-2.937664,0.4289551-4.4186726
							c0.0404358-4.8233662-1.3919983-10.17274-5.3089294-13.3046751
							c-3.6256409-2.8891597-9.2501526-3.3909135-12.8757935-0.2266245
							c-3.8764648,3.3828125-3.3261414,9.2177868-1.8694458,13.6203098c0.250885,0.7445297,0.5179749,1.4729061,0.8092957,2.1931839
							c-3.6255798-1.8937531-8.4003906-2.2336388-11.8479309,0.2589779
							c-2.9134521,2.0960255-4.5158081,6.1991158-3.3423462,9.6790352
							c1.4243164,4.2083015,6.0534363,5.6569061,10.0351257,6.2800751c0.0162048,0,0.0404663,0.0080986,0.0566711,0.0080986
							c-3.131958,2.8001518-5.3493958,6.8789368-4.8395386,11.1762466c0.5341187,4.5158348,3.7388916,8.1414223,8.3842163,8.5056114
							c4.135437,0.3317871,8.2547302-2.1446266,10.6016235-5.4303284c0.453186-0.6393204,0.8497925-1.3029404,1.1815796-1.9908142
							c1.6994629,3.4232674,4.6210327,6.0696487,8.3923035,7.0326538c3.6175232,0.9144974,7.744873,0.3318329,10.5288086-2.2902451
							c1.6509399-1.5619202,2.7677612-3.9331245,2.6625366-6.2234192c-0.1213684-2.4845161-1.480957-4.5724869-3.1723938-6.3043747
							c-0.9630432-0.9873047-1.9827576-1.9341583-3.0510254-2.8325043c0.7931519,0.0324059,1.5943298,0.0081024,2.4036255-0.0890083
							c4.5805359-0.5260048,8.8697815-2.8891602,10.5854797-7.3483353
							C385.7133179,32.3419838,384.3618164,27.2596397,380.2506409,25.2283726z M338.7261353,37.756115
							c-1.4000549-0.3803902-3.0348206-0.8578415-3.9897766-2.0313187
							c-1.2705994-1.5700188-0.7283325-4.1839981,0.7445679-5.6650066c1.9341736-1.9503593,5.2522888-1.8046932,7.6072693-0.7445297
							c3.3423767,1.5052624,5.4869995,4.7505093,7.0893555,7.9147968c-1.3110352,0.3156357-2.5897217,0.7445793-3.8198547,1.2867889
							c-0.8092651,0.0566559-1.6185608,0.0728073-2.4359131,0.0404549
							C342.1575623,38.4925423,340.4256592,38.2255135,338.7261353,37.756115z M353.8112488,45.865181
							c-0.5664978,5.3979301-2.3226318,11.0791397-8.2628174,11.9935875
							c-2.8001099,0.420845-5.1389771-1.2786369-5.8025818-4.1273422c-0.7526245-3.2209473,1.052063-6.2800751,3.3423462-8.4085007
							c1.2463074-1.1572762,2.6706543-2.104126,4.2001953-2.8325043c2.3226624-0.1942215,4.6048584-0.6797714,6.8061523-1.472908
							C353.8760071,42.6280365,353.770813,44.2546616,353.8112488,45.865181z M356.9755859,35.7976532
							c-3.1238708-2.9943695-5.6407471-6.5552502-7.3726196-10.5369282
							c-1.3434143-3.0671787-3.0105286-7.6234665-1.2139587-10.8444605
							c1.5943298-2.8648567,5.4465332-2.8406038,7.9796143-1.2624855c3.1723938,1.9827623,4.2811279,6.2315168,4.3782349,9.7357435
							c0.1133118,4.2487545-1.0116272,8.3679962-3.1400452,11.9855347
							C357.380249,35.1744881,357.1697998,35.4820213,356.9755859,35.7976532z M372.4491577,55.7303886
							c-1.3434448,1.8694496-4.0869446,2.4683151-6.3448486,2.0960274c-3.010498-0.5017548-5.2037048-2.2417412-6.6442566-4.9771347
							c-1.0035095-1.9018059-1.480957-4.0544853-1.6266174-6.2395706c0.2023315-1.9180031,0.2670288-3.8603096,0.3155823-5.7216606
							c0.0080872-0.404644-0.0971069-0.7526321-0.2913208-1.0439606h0.0404358
							c0.1295166,0.1537628,0.2913818,0.2832298,0.4775085,0.3803406c3.7145996,1.99086,7.2350159,4.3377647,10.4397583,7.0731583
							C371.2594604,49.3693581,374.9255676,52.2989731,372.4491577,55.7303886z M380.5986633,34.1871338
							c-0.7607117,3.3100014-3.7875061,5.0742416-6.9760742,5.567894
							c-4.3215637,0.6636238-8.6431885-1.0844154-12.5682068-2.7434425c1.6913757-2.3469505,3.8197937-4.3782692,6.2719727-5.948288
							c2.6787415-1.699482,6.0210876-3.2532978,9.2825012-2.7920494
							C379.5951233,28.7001934,381.2703552,31.2494678,380.5986633,34.1871338z"/>
					</g>
				</g>
				<g>
					<g>
						<path class="st6" d="M419.2660522,51.7753258c-2.0745544-2.5560188-5.5652161-3.2523499-8.699646-3.1608696
							c-0.9239197,0.0271225-1.8479309,0.1258049-2.7618103,0.2876968c0.6260986-0.8858681,1.1680298-1.8297272,1.6291504-2.8105278
							c1.4936829-3.1980171,2.1669617-7.1940308,0.5123596-10.4696732
							c-1.5345764-3.0254784-5.1255493-5.0697956-8.5009155-4.0662403
							c-3.6087646,1.0727215-5.0168457,5.1236897-5.3860779,8.4968777
							c-0.0594177,0.5718307-0.1031494,1.1378365-0.1282654,1.7058296
							c-1.8372498-2.3629456-4.9118958-4.0411415-7.9644775-3.4304733
							c-2.5765076,0.5091057-4.8907166,2.7527618-5.1678772,5.4257584c-0.3317261,3.234066,2.3088074,5.6059036,4.7694092,7.2314606
							c0.0108032,0.0049248,0.0244751,0.0176926,0.0352478,0.0226212c-2.9360352,0.9113197-5.6522217,2.9517632-6.6196594,5.9669952
							c-1.0177307,3.1680527,0.0127869,6.555706,2.993866,8.2106972c2.6515503,1.4783783,6.1463013,1.0827713,8.707489-0.3904495
							c0.4960632-0.2876968,0.9618225-0.6087875,1.3918457-0.9657288c0.0901489,2.7952423,1.2299194,5.4450378,3.4471436,7.2327881
							c2.1296692,1.7087326,5.053894,2.5760117,7.7041931,1.6773834c1.573761-0.5375366,3.038147-1.7761459,3.6645813-3.3325043
							c0.6747437-1.6905441,0.4047852-3.4936905-0.1943665-5.1607361c-0.3407288-0.9499855-0.7315063-1.890274-1.169342-2.8130417
							c0.5180359,0.2627525,1.0586853,0.4902115,1.6268616,0.6716728c3.2086487,1.0428009,6.782074,0.7742653,9.2799988-1.671936
							C420.7387085,58.1711349,421.3846741,54.3774681,419.2660522,51.7753258z M387.8187561,47.4862862
							c-0.8161621-0.6789246-1.7590637-1.493824-2.0378113-2.5652542c-0.3682251-1.4313393,0.7875671-3.0062485,2.2182617-3.544075
							c1.8804016-0.7099571,4.0445862,0.3959999,5.2896118,1.8177567c1.7668762,2.0182457,2.207428,4.830368,2.3117065,7.4237137
							c-0.9685669-0.1885986-1.9500732-0.2919388-2.9337158-0.30513c-0.5558777-0.2083855-1.0994263-0.4437332-1.6335754-0.71381
							C389.8786926,49.0198975,388.8071899,48.3155174,387.8187561,47.4862862z M395.393158,57.4707336
							c-2.0185242,3.4204674-4.9149475,6.667717-9.146698,5.4700012c-1.9916382-0.5713806-3.0315247-2.4137383-2.6069641-4.51157
							c0.4785461-2.372654,2.6099548-3.8599472,4.7815552-4.5801239c1.1813965-0.3912697,2.4173584-0.5883408,3.6568909-0.6080055
							c1.60495,0.5770264,3.2715759,0.9478493,4.9779053,1.0893478
							C396.4206543,55.3358574,395.8559875,56.3865089,395.393158,57.4707336z M400.5606995,51.7322693
							c-1.1686096-2.9429283-1.7609558-6.0783234-1.7028503-9.255085c0.0385742-2.449955,0.3144836-5.9894753,2.4897156-7.5869675
							c1.9323425-1.4219627,4.4888916-0.2343979,5.6949463,1.5862465c1.5085449,2.2843742,0.9544678,5.449398-0.0465088,7.8112564
							c-1.2165833,2.8623314-3.217926,5.2619247-5.7346191,7.022438
							C401.0195312,51.4405518,400.7859497,51.5812531,400.5606995,51.7322693z M404.7981873,69.7043991
							c-1.4626465,0.8357315-3.4707642,0.4000549-4.8603516-0.5343399
							c-1.8511353-1.2494278-2.7817688-3.0744476-2.9087524-5.3331223
							c-0.0895996-1.5709534,0.2472229-3.1489143,0.8147583-4.6475525c0.7178955-1.2150536,1.351593-2.4881325,1.9499207-3.7122383
							c0.1284485-0.2668571,0.1642456-0.5304642,0.1235657-0.7834282l0.0269165,0.0123024
							c0.0394592,0.1417274,0.1078186,0.2771187,0.202179,0.3983498c1.8669434,2.4546471,3.4963684,5.0872192,4.7975769,7.8823662
							C405.9407043,65.1088715,407.4898987,68.173584,404.7981873,69.7043991z M416.7734375,57.8439026
							c-1.5128784,1.9717293-4.0639038,2.2255554-6.3362732,1.5844955c-3.078125-0.8724556-5.4229431-3.350071-7.5308533-5.6478424
							c1.839447-1.0477448,3.8737793-1.7525063,5.9833069-2.0517921c2.2996826-0.3165588,4.9967957-0.334362,7.0272522,0.9643974
							C417.7740173,53.8867531,418.1138,56.0929108,416.7734375,57.8439026z"/>
					</g>
				</g>
				<g>
					<g>
						<path class="st6" d="M295.5642395,60.4329262c2.4979248,2.4462013,6.0713501,2.7147369,9.2799988,1.671936
							c0.5681763-0.1814613,1.1088257-0.4089203,1.6268616-0.6716728c-0.4378357,0.9227676-0.8286133,1.8630562-1.169342,2.8130417
							c-0.5991516,1.6670456-0.8691101,3.470192-0.1943665,5.1607361c0.6264343,1.5563583,2.0908203,2.7949677,3.6645813,3.3325043
							c2.6502991,0.8986282,5.5745239,0.0313492,7.7041931-1.6773834c2.2172241-1.7877502,3.3569946-4.4375458,3.4471436-7.2327881
							c0.4300232,0.3569412,0.8957825,0.6780319,1.3918457,0.9657288c2.5611877,1.4732208,6.0559387,1.8688278,8.707489,0.3904495
							c2.9810791-1.6549911,4.0115967-5.0426445,2.993866-8.2106972c-0.9674377-3.0152321-3.6836243-5.0556755-6.6196594-5.9669952
							c0.0107727-0.0049286,0.0244446-0.0176964,0.0352478-0.0226212c2.4606018-1.6255569,5.1011353-3.9973946,4.7694092-7.2314606
							c-0.2771606-2.6729965-2.5913696-4.9166527-5.1678772-5.4257584
							c-3.0525818-0.6106682-6.1272278,1.0675278-7.9644775,3.4304733c-0.025116-0.5679932-0.0688477-1.1339989-0.1282654-1.7058296
							c-0.3692322-3.373188-1.7773132-7.4241562-5.3860779-8.4968777c-3.3753662-1.0035553-6.9663391,1.0407619-8.5009155,4.0662403
							c-1.6546021,3.2756424-0.9813232,7.271656,0.5123596,10.4696732c0.4611206,0.9808006,1.0030518,1.9246597,1.6291504,2.8105278
							c-0.9138794-0.1618919-1.8378906-0.2605743-2.7618103-0.2876968c-3.1344299-0.0914803-6.6250916,0.6048508-8.699646,3.1608696
							C292.6153259,54.3774681,293.2612915,58.1711349,295.5642395,60.4329262z M322.9667664,49.5994873
							c-0.5341492,0.2700768-1.0776978,0.5054245-1.6335754,0.71381c-0.9836426,0.0131912-1.9651489,0.1165314-2.9337158,0.30513
							c0.1042786-2.5933456,0.5448303-5.405468,2.3117065-7.4237137c1.2450256-1.4217567,3.4092102-2.5277138,5.2896118-1.8177567
							c1.4306946,0.5378265,2.5864868,2.1127357,2.2182617,3.544075c-0.2787476,1.0714302-1.2216492,1.8863297-2.0378113,2.5652542
							C325.1928101,48.3155174,324.1213074,49.0198975,322.9667664,49.5994873z M316.9441528,54.3303833
							c1.7063293-0.1414986,3.3729553-0.5123215,4.9779053-1.0893478c1.2395325,0.0196648,2.4754944,0.2167358,3.6568909,0.6080055
							c2.1716003,0.7201767,4.303009,2.2074699,4.7815552,4.5801239c0.4245605,2.0978317-0.6153259,3.9401894-2.6069641,4.51157
							c-4.2317505,1.1977158-7.1281738-2.0495338-9.146698-5.4700012
							C318.1440125,56.3865089,317.5793457,55.3358574,316.9441528,54.3303833z M312.7386169,51.3101578
							c-2.5166931-1.7605133-4.5180359-4.1601067-5.7346191-7.022438c-1.0009766-2.3618584-1.5550537-5.5268822-0.0465088-7.8112564
							c1.2060547-1.8206444,3.7626038-3.0082092,5.6949463-1.5862465c2.1752319,1.5974922,2.4511414,5.1370125,2.4897156,7.5869675
							c0.0581055,3.1767616-0.5342407,6.3121567-1.7028503,9.255085
							C313.2140503,51.5812531,312.9804688,51.4405518,312.7386169,51.3101578z M309.0559998,62.9867363
							c1.3012085-2.7951469,2.9306335-5.4277191,4.7975769-7.8823662c0.0943604-0.1212311,0.1627197-0.2566223,0.202179-0.3983498
							l0.0269165-0.0123024c-0.0406799,0.252964-0.0048828,0.516571,0.1235657,0.7834282
							c0.5983276,1.2241058,1.2320251,2.4971848,1.9499207,3.7122383c0.5675354,1.4986382,0.9043579,3.0765991,0.8147583,4.6475525
							c-0.1269836,2.2586746-1.0576172,4.0836945-2.9087524,5.3331223
							c-1.3895874,0.9343948-3.3977051,1.3700714-4.8603516,0.5343399
							C306.5101013,68.173584,308.0592957,65.1088715,309.0559998,62.9867363z M298.0831299,52.693161
							c2.0304565-1.2987595,4.7275696-1.2809563,7.0272522-0.9643974c2.1095276,0.2992859,4.1438599,1.0040474,5.9833069,2.0517921
							c-2.1079102,2.2977715-4.4527283,4.7753868-7.5308533,5.6478424
							c-2.2723694,0.6410599-4.8233948,0.3872337-6.3362732-1.5844955
							C295.8862,56.0929108,296.2259827,53.8867531,298.0831299,52.693161z"/>
					</g>
				</g>
			</g>
		</g>
	</g>
	<g>
		<path class="st6" d="M296.6836853,691.2790527H57.2243614c-16.7178421,0-30.2703323-13.5524902-30.2703323-30.2703857V193.9841461
			c0-16.7178497,13.5524902-30.27034,30.2703323-30.27034h239.4593201c16.717865,0,30.2703552,13.5524902,30.2703552,30.27034
			V661.008667C326.9540405,677.7265625,313.4015503,691.2790527,296.6836853,691.2790527z"/>
		<g>
			<path class="st18" d="M302.2584839,303.4894104H75.904953c-0.8286133,0-1.5,0.671875-1.5,1.5s0.6713867,1.5,1.5,1.5h226.3535309
				c0.8286133,0,1.5-0.671875,1.5-1.5S303.0870972,303.4894104,302.2584839,303.4894104z"/>
			<path class="st18" d="M302.2584839,353.4894104H75.904953c-0.8286133,0-1.5,0.671875-1.5,1.5s0.6713867,1.5,1.5,1.5h226.3535309
				c0.8286133,0,1.5-0.671875,1.5-1.5S303.0870972,353.4894104,302.2584839,353.4894104z"/>
			<path class="st18" d="M302.2584839,403.4894104H75.904953c-0.8286133,0-1.5,0.671875-1.5,1.5s0.6713867,1.5,1.5,1.5h226.3535309
				c0.8286133,0,1.5-0.671875,1.5-1.5S303.0870972,403.4894104,302.2584839,403.4894104z"/>
			<path class="st18" d="M302.2584839,453.4894104H75.904953c-0.8286133,0-1.5,0.671875-1.5,1.5s0.6713867,1.5,1.5,1.5h226.3535309
				c0.8286133,0,1.5-0.671875,1.5-1.5S303.0870972,453.4894104,302.2584839,453.4894104z"/>
			<path class="st18" d="M302.2584839,503.4894104H75.904953c-0.8286133,0-1.5,0.671875-1.5,1.5s0.6713867,1.5,1.5,1.5h226.3535309
				c0.8286133,0,1.5-0.671875,1.5-1.5S303.0870972,503.4894104,302.2584839,503.4894104z"/>
			<path class="st18" d="M302.2584839,553.4894409H75.904953c-0.8286133,0-1.5,0.671875-1.5,1.5s0.6713867,1.5,1.5,1.5h226.3535309
				c0.8286133,0,1.5-0.671875,1.5-1.5S303.0870972,553.4894409,302.2584839,553.4894409z"/>
			<path class="st18" d="M302.2584839,603.4894409H75.904953c-0.8286133,0-1.5,0.671875-1.5,1.5s0.6713867,1.5,1.5,1.5h226.3535309
				c0.8286133,0,1.5-0.671875,1.5-1.5S303.0870972,603.4894409,302.2584839,603.4894409z"/>
			<path class="st18" d="M302.2584839,653.4894409H75.904953c-0.8286133,0-1.5,0.671875-1.5,1.5s0.6713867,1.5,1.5,1.5h226.3535309
				c0.8286133,0,1.5-0.671875,1.5-1.5S303.0870972,653.4894409,302.2584839,653.4894409z"/>
			<path class="st18" d="M63.7770271,296.3067932c7.5146446,0,13.6279259-6.1132812,13.6279259-13.6279297
				c0-7.5136719-6.1132812-13.6269531-13.6279259-13.6269531c-7.5141602,0-13.6274414,6.1132812-13.6274414,13.6269531
				C50.1495857,290.193512,56.262867,296.3067932,63.7770271,296.3067932z M63.7770271,272.0519104
				c5.8603477,0,10.6279259,4.7675781,10.6279259,10.6269531c0,5.8603516-4.7675781,10.6279297-10.6279259,10.6279297
				c-5.8598633,0-10.6274414-4.7675781-10.6274414-10.6279297
				C53.1495857,276.8194885,57.9171638,272.0519104,63.7770271,272.0519104z"/>
			<path class="st18" d="M63.7770271,346.3067932c7.5146446,0,13.6279259-6.1132812,13.6279259-13.6279297
				c0-7.5136719-6.1132812-13.6269531-13.6279259-13.6269531c-7.5141602,0-13.6274414,6.1132812-13.6274414,13.6269531
				C50.1495857,340.193512,56.262867,346.3067932,63.7770271,346.3067932z M63.7770271,322.0519104
				c5.8603477,0,10.6279259,4.7675781,10.6279259,10.6269531c0,5.8603516-4.7675781,10.6279297-10.6279259,10.6279297
				c-5.8598633,0-10.6274414-4.7675781-10.6274414-10.6279297
				C53.1495857,326.8194885,57.9171638,322.0519104,63.7770271,322.0519104z"/>
			<path class="st18" d="M63.7770271,396.3067932c7.5146446,0,13.6279259-6.1132812,13.6279259-13.6279297
				c0-7.5136719-6.1132812-13.6269531-13.6279259-13.6269531c-7.5141602,0-13.6274414,6.1132812-13.6274414,13.6269531
				C50.1495857,390.193512,56.262867,396.3067932,63.7770271,396.3067932z M63.7770271,372.0519104
				c5.8603477,0,10.6279259,4.7675781,10.6279259,10.6269531c0,5.8603516-4.7675781,10.6279297-10.6279259,10.6279297
				c-5.8598633,0-10.6274414-4.7675781-10.6274414-10.6279297
				C53.1495857,376.8194885,57.9171638,372.0519104,63.7770271,372.0519104z"/>
			<path class="st18" d="M63.7770271,446.3067932c7.5146446,0,13.6279259-6.1132812,13.6279259-13.6279297
				c0-7.5136719-6.1132812-13.6269531-13.6279259-13.6269531c-7.5141602,0-13.6274414,6.1132812-13.6274414,13.6269531
				C50.1495857,440.193512,56.262867,446.3067932,63.7770271,446.3067932z M63.7770271,422.0519104
				c5.8603477,0,10.6279259,4.7675781,10.6279259,10.6269531c0,5.8603516-4.7675781,10.6279297-10.6279259,10.6279297
				c-5.8598633,0-10.6274414-4.7675781-10.6274414-10.6279297
				C53.1495857,426.8194885,57.9171638,422.0519104,63.7770271,422.0519104z"/>
			<path class="st18" d="M63.7770271,496.3067932c7.5146446,0,13.6279259-6.1132812,13.6279259-13.6279297
				c0-7.5136719-6.1132812-13.6269531-13.6279259-13.6269531c-7.5141602,0-13.6274414,6.1132812-13.6274414,13.6269531
				C50.1495857,490.193512,56.262867,496.3067932,63.7770271,496.3067932z M63.7770271,472.0519104
				c5.8603477,0,10.6279259,4.7675781,10.6279259,10.6269531c0,5.8603516-4.7675781,10.6279297-10.6279259,10.6279297
				c-5.8598633,0-10.6274414-4.7675781-10.6274414-10.6279297
				C53.1495857,476.8194885,57.9171638,472.0519104,63.7770271,472.0519104z"/>
			<path class="st18" d="M63.7770271,546.3068237c7.5146446,0,13.6279259-6.1132812,13.6279259-13.6279297
				c0-7.5136719-6.1132812-13.6269531-13.6279259-13.6269531c-7.5141602,0-13.6274414,6.1132812-13.6274414,13.6269531
				C50.1495857,540.1935425,56.262867,546.3068237,63.7770271,546.3068237z M63.7770271,522.0519409
				c5.8603477,0,10.6279259,4.7675781,10.6279259,10.6269531c0,5.8603516-4.7675781,10.6279297-10.6279259,10.6279297
				c-5.8598633,0-10.6274414-4.7675781-10.6274414-10.6279297C53.1495857,526.819519,57.9171638,522.0519409,63.7770271,522.0519409
				z"/>
			<path class="st18" d="M63.7770271,596.3068237c7.5146446,0,13.6279259-6.1132812,13.6279259-13.6279297
				c0-7.5136719-6.1132812-13.6269531-13.6279259-13.6269531c-7.5141602,0-13.6274414,6.1132812-13.6274414,13.6269531
				C50.1495857,590.1935425,56.262867,596.3068237,63.7770271,596.3068237z M63.7770271,572.0519409
				c5.8603477,0,10.6279259,4.7675781,10.6279259,10.6269531c0,5.8603516-4.7675781,10.6279297-10.6279259,10.6279297
				c-5.8598633,0-10.6274414-4.7675781-10.6274414-10.6279297C53.1495857,576.819519,57.9171638,572.0519409,63.7770271,572.0519409
				z"/>
			<path class="st18" d="M63.7770271,619.0519409c-7.5141602,0-13.6274414,6.1132812-13.6274414,13.6269531
				c0,7.5146484,6.1132812,13.6279297,13.6274414,13.6279297c7.5146446,0,13.6279259-6.1132812,13.6279259-13.6279297
				C77.404953,625.1652222,71.2916718,619.0519409,63.7770271,619.0519409z M63.7770271,643.3068237
				c-5.8598633,0-10.6274414-4.7675781-10.6274414-10.6279297c0-5.859375,4.7675781-10.6269531,10.6274414-10.6269531
				c5.8603477,0,10.6279259,4.7675781,10.6279259,10.6269531C74.404953,638.5392456,69.6373749,643.3068237,63.7770271,643.3068237z
				"/>
		</g>
		<g>
			<path class="st18" d="M145.7490234,190.8954315h-8.8769531l0.4916992,45.7744141
				c0.0092773,0.8417969-0.6660156,1.53125-1.5078125,1.5400391c-0.0053711,0-0.0112305,0-0.0166016,0
				c-0.8344727,0-1.5151367-0.6708984-1.5244141-1.5078125l-0.4916992-45.8066406h-8.5283203
				c-0.8417969,0-1.5244141-0.6826172-1.5244141-1.5244141s0.6826172-1.5253906,1.5244141-1.5253906h10.0200195
				c0.0058594,0,10.4287109,0,10.434082,0c0.8417969,0,1.5244141,0.6835938,1.5244141,1.5253906
				S146.5908203,190.8954315,145.7490234,190.8954315z"/>
			<path class="st18" d="M162.6181641,219.3602753c0.581543,5.3242188,1.1479492,11.3164062,1.6948242,17.9414062
				c0.0693359,0.8388672-0.5546875,1.5761719-1.394043,1.6445312c-0.8359375,0.0683594-1.5751953-0.5537109-1.6445312-1.3935547
				c-0.4990234-6.0429688-1.0146484-11.5576172-1.5419922-16.5136719h-11.8271484
				c-0.6323242,4.9638672-1.2631836,10.4892578-1.8891602,16.5449219c-0.0810547,0.7841797-0.7436523,1.3681641-1.5146484,1.3681641
				c-0.0527344,0-0.1054688-0.0029297-0.1586914-0.0078125c-0.8378906-0.0869141-1.4462891-0.8359375-1.3598633-1.6738281
				c1.3793945-13.34375,2.7836914-24.125,4.1733398-32.0410156c2.53125-14.4179688,4.5512695-17.3486328,6.9824219-17.3486328
				c0.0107422,0,0.0209961,0,0.0317383,0c2.4404297,0.0253906,4.4018555,2.9443359,6.6367188,17.3916016
				c0.6162109,3.9824219,1.2211914,8.6904297,1.8100586,14.0839844
				C162.6171875,219.3573456,162.6176758,219.3592987,162.6181641,219.3602753z M159.3974609,217.9901581
				c-0.4555664-4.0361328-0.9199219-7.6591797-1.3911133-10.8457031
				c-1.7651367-11.9462891-3.2480469-15.1503906-3.8701172-16.0019531
				c-0.640625,0.8417969-2.1967773,4.0292969-4.2182617,16.0166016c-0.5366211,3.1835938-1.0756836,6.8007812-1.6152344,10.8310547
				H159.3974609z"/>
			<path class="st18" d="M185.2783203,229.6825409c-0.2773438,1.6679688-1.1606445,4.7636719-3.9511719,6.7636719
				c-1.4467773,1.0371094-3.4604492,1.7666016-5.5893555,1.7666016c-1.425293,0-2.9018555-0.3261719-4.2954102-1.1064453
				c-3.8911133-2.1787109-5.6293945-7.0537109-4.1333008-11.5898438c0.2636719-0.7998047,1.1259766-1.234375,1.925293-0.9707031
				s1.2338867,1.1259766,0.9702148,1.9248047c-1.0229492,3.1035156,0.1494141,6.53125,2.7270508,7.9755859
				c2.2963867,1.2851562,5.0410156,0.6533203,6.6191406-0.4775391c1.9707031-1.4121094,2.5585938-3.8183594,2.7202148-4.7871094
				c0.7636719-4.5839844-2.7514648-8.7988281-6.8212891-13.6787109c-3.9414062-4.7265625-8.4082031-10.0830078-9.0786133-16.6582031
				c-0.4287109-4.2089844,0.9282227-6.5917969,1.7753906-7.6386719c1.7319336-2.1396484,4.5874023-3.3564453,7.4487305-3.1748047
				c1.5839844,0.1015625,3.9291992,0.6943359,6.1079102,2.9462891c3.5527344,3.671875,2.8339844,8.6689453,2.6542969,9.6337891
				c-0.1547852,0.8271484-0.9521484,1.3730469-1.7788086,1.21875c-0.8276367-0.1542969-1.3730469-0.9511719-1.21875-1.7783203
				c0.0810547-0.4335938,0.7158203-4.3046875-1.8476562-6.9541016c-1.5014648-1.5517578-3.0639648-1.9560547-4.1103516-2.0224609
				c-1.8632812-0.1191406-3.7817383,0.6855469-4.8857422,2.0488281c-0.5522461,0.6826172-1.4301758,2.2910156-1.1118164,5.4111328
				c0.5756836,5.6484375,4.5463867,10.4101562,8.3862305,15.0146484
				C182.1518555,218.7792206,186.2714844,223.7196503,185.2783203,229.6825409z"/>
			<path class="st18" d="M208.0429688,190.5624237l-15.4765625,32.9169922l13.234375,12.4130859
				c0.6142578,0.5751953,0.6450195,1.5400391,0.0688477,2.1542969c-0.2998047,0.3203125-0.7055664,0.4814453-1.1118164,0.4814453
				c-0.3740234,0-0.7485352-0.1367188-1.0429688-0.4121094l-11.5825195-10.8632812l0.1074219,10.1582031
				c0.0087891,0.8417969-0.6665039,1.5322266-1.5083008,1.5410156c-0.0058594,0-0.0112305,0-0.0166016,0
				c-0.8344727,0-1.5151367-0.671875-1.5239258-1.5087891l-0.5083008-48.0214844
				c-0.0087891-0.8417969,0.6665039-1.5322266,1.5083008-1.5410156c0.0058594,0,0.0112305,0,0.0166016,0
				c0.8344727,0,1.5151367,0.671875,1.5239258,1.5087891l0.296875,28.0683594l13.2553711-28.1923828
				c0.3579102-0.7626953,1.2661133-1.0898438,2.027832-0.7314453
				C208.0737305,188.8925018,208.4008789,189.7997284,208.0429688,190.5624237z"/>
			<path class="st18" d="M228.0092773,229.6825409c-0.2773438,1.6679688-1.1606445,4.7636719-3.9511719,6.7636719
				c-1.4467773,1.0371094-3.4604492,1.7666016-5.5893555,1.7666016c-1.425293,0-2.9018555-0.3261719-4.2954102-1.1064453
				c-3.8911133-2.1787109-5.6293945-7.0537109-4.1333008-11.5898438c0.2636719-0.7998047,1.1259766-1.234375,1.925293-0.9707031
				s1.2338867,1.1259766,0.9702148,1.9248047c-1.0229492,3.1035156,0.1494141,6.53125,2.7270508,7.9755859
				c2.2963867,1.2851562,5.0410156,0.6533203,6.6191406-0.4775391c1.9707031-1.4121094,2.5585938-3.8183594,2.7202148-4.7871094
				c0.7636719-4.5839844-2.7514648-8.7988281-6.8212891-13.6787109c-3.9414062-4.7265625-8.4082031-10.0830078-9.0786133-16.6582031
				c-0.4287109-4.2089844,0.9282227-6.5917969,1.7753906-7.6386719c1.7319336-2.1396484,4.5874023-3.3564453,7.4487305-3.1748047
				c1.5839844,0.1015625,3.9291992,0.6943359,6.1079102,2.9462891c3.5527344,3.671875,2.8339844,8.6689453,2.6542969,9.6337891
				c-0.1547852,0.8271484-0.9521484,1.3730469-1.7788086,1.21875c-0.8276367-0.1542969-1.3730469-0.9511719-1.21875-1.7783203
				c0.0810547-0.4335938,0.7158203-4.3046875-1.8476562-6.9541016c-1.5014648-1.5517578-3.0639648-1.9560547-4.1103516-2.0224609
				c-1.8632812-0.1191406-3.7817383,0.6855469-4.8857422,2.0488281c-0.5522461,0.6826172-1.4301758,2.2910156-1.1118164,5.4111328
				c0.5756836,5.6484375,4.5463867,10.4101562,8.3862305,15.0146484
				C224.8828125,218.7792206,229.0024414,223.7196503,228.0092773,229.6825409z"/>
		</g>
	</g>
	<g>
		<path class="st6" d="M658.6691284,692.8619995H419.2097778c-16.7178345,0-30.2703247-13.5524902-30.2703247-30.2703247
			V195.5671082c0-16.7178497,13.5524902-30.27034,30.2703247-30.27034h239.4593506
			c16.7178345,0,30.2703247,13.5524902,30.2703247,30.27034v467.0245667
			C688.9394531,679.3095093,675.3869629,692.8619995,658.6691284,692.8619995z"/>
		<g>
			<path class="st18" d="M487.4208984,189.4208221c-0.0073242-0.75,0.53125-1.3945312,1.2709961-1.5185547
				c0.7392578-0.1230469,1.4594727,0.3066406,1.6982422,1.0175781l13.0839844,38.9101562l-0.3779297-38.4091797
				c-0.0083008-0.8427734,0.6674805-1.53125,1.5092773-1.5400391c0.0053711,0,0.0102539,0,0.015625,0
				c0.8349609,0,1.515625,0.6728516,1.5239258,1.5097656l0.472168,48.0214844c0.0078125,0.75-0.53125,1.3945312-1.2705078,1.5185547
				c-0.0854492,0.0146484-0.1704102,0.0214844-0.2543945,0.0214844c-0.6450195,0-1.2329102-0.4101562-1.4443359-1.0390625
				l-13.0839844-38.9101562l0.3779297,38.4091797c0.0083008,0.8427734-0.6674805,1.53125-1.5092773,1.5400391
				c-0.8491211,0.0078125-1.53125-0.6679688-1.5395508-1.5097656L487.4208984,189.4208221z"/>
			<path class="st18" d="M530.6933594,212.9716034c0,12.1640625-3.5839844,25.0917969-10.2270508,25.0917969
				c-6.6425781,0-10.2270508-12.9277344-10.2270508-25.0917969c0-12.1630859,3.5844727-25.0908203,10.2270508-25.0908203
				C527.109375,187.8807831,530.6933594,200.8085175,530.6933594,212.9716034z M527.6445312,212.9716034
				c0-13.65625-4.1811523-22.0410156-7.1782227-22.0410156s-7.1777344,8.3847656-7.1777344,22.0410156
				c0,13.6572266,4.1806641,22.0419922,7.1777344,22.0419922
				C523.4638672,235.0135956,527.6445312,226.62883,527.6445312,212.9716034z"/>
			<path class="st18" d="M550.9262695,190.8954315h-8.8769531l0.4916992,45.7744141
				c0.0092773,0.8417969-0.6660156,1.53125-1.5078125,1.5400391c-0.0053711,0-0.0112305,0-0.0166016,0
				c-0.8344727,0-1.5151367-0.6708984-1.5244141-1.5078125l-0.4916992-45.8066406h-8.5283203
				c-0.8417969,0-1.5244141-0.6826172-1.5244141-1.5244141s0.6826172-1.5253906,1.5244141-1.5253906h10.0200195
				c0.0058594,0,10.4287109,0,10.434082,0c0.8417969,0,1.5244141,0.6835938,1.5244141,1.5253906
				S551.7680664,190.8954315,550.9262695,190.8954315z"/>
			<path class="st18" d="M556.8149414,190.8973846l0.315918,29.8457031h12.1342773
				c0.8417969,0,1.5249023,0.6826172,1.5249023,1.5244141s-0.6831055,1.5244141-1.5249023,1.5244141h-12.1020508
				l0.1279297,12.1113281h12.2285156c0.8417969,0,1.5244141,0.6826172,1.5244141,1.5244141
				s-0.6826172,1.5244141-1.5244141,1.5244141h-13.6430664c-0.0146484,0-0.0283203-0.0009766-0.0424805-0.0019531
				c-0.0117188,0.0009766-0.0234375,0.0019531-0.0351562,0.0019531c-0.0058594,0-0.0112305,0-0.0166016,0
				c-0.8344727,0-1.5151367-0.671875-1.5239258-1.5078125L553.75,189.4217987
				c-0.0087891-0.8359375,0.6567383-1.5224609,1.4921875-1.5400391l14.5834961-0.3105469
				c0.8374023-0.0078125,1.5390625,0.6494141,1.5566406,1.4912109c0.0180664,0.8427734-0.6499023,1.5390625-1.4916992,1.5576172
				L556.8149414,190.8973846z"/>
			<path class="st18" d="M591.5883789,229.6825409c-0.2773438,1.6679688-1.1606445,4.7636719-3.9511719,6.7636719
				c-1.4467773,1.0371094-3.4604492,1.7666016-5.5893555,1.7666016c-1.425293,0-2.9018555-0.3261719-4.2954102-1.1064453
				c-3.8911133-2.1787109-5.6293945-7.0537109-4.1333008-11.5898438c0.2636719-0.7998047,1.1259766-1.234375,1.925293-0.9707031
				s1.2338867,1.1259766,0.9702148,1.9248047c-1.0229492,3.1035156,0.1494141,6.53125,2.7270508,7.9755859
				c2.2963867,1.2851562,5.0410156,0.6533203,6.6191406-0.4775391c1.9707031-1.4121094,2.5585938-3.8183594,2.7202148-4.7871094
				c0.7636719-4.5839844-2.7514648-8.7988281-6.8212891-13.6787109c-3.9414062-4.7265625-8.4082031-10.0830078-9.0786133-16.6582031
				c-0.4287109-4.2089844,0.9282227-6.5917969,1.7753906-7.6386719c1.7319336-2.1396484,4.5874023-3.3564453,7.4487305-3.1748047
				c1.5839844,0.1015625,3.9291992,0.6943359,6.1079102,2.9462891c3.5527344,3.671875,2.8339844,8.6689453,2.6542969,9.6337891
				c-0.1547852,0.8271484-0.9521484,1.3730469-1.7788086,1.21875c-0.8276367-0.1542969-1.3730469-0.9511719-1.21875-1.7783203
				c0.0810547-0.4335938,0.7158203-4.3046875-1.8476562-6.9541016c-1.5014648-1.5517578-3.0639648-1.9560547-4.1103516-2.0224609
				c-1.8632812-0.1191406-3.7817383,0.6855469-4.8857422,2.0488281c-0.5522461,0.6826172-1.4301758,2.2910156-1.1118164,5.4111328
				c0.5756836,5.6484375,4.5463867,10.4101562,8.3862305,15.0146484
				C588.4619141,218.7792206,592.581543,223.7196503,591.5883789,229.6825409z"/>
		</g>
	</g>
	<g>
		<path class="st18" d="M266.7636719,70.3779297c0.3447266,0.2832031,0.7680664,0.4238281,1.2705078,0.4238281
			c0.0307617,0,0.0708008-0.0068359,0.1176758-0.0234375c0.046875-0.015625,0.0859375-0.0234375,0.1176758-0.0234375
			c0.5332031-0.0625,0.9648438-0.3134766,1.2939453-0.7529297c0.3295898-0.4394531,0.4624023-0.9248047,0.3999023-1.4589844
			c-0.1254883-1.0039062-0.7763672-1.6542969-1.9526367-1.953125c-1.1767578-0.2978516-3.4750977-0.4941406-6.8945312-0.5878906
			c-4.6430664-0.125-9.8354492-0.1416016-15.5766602-0.046875c-13.5219727,0.2197266-22.2119141,0.5175781-26.0708008,0.8935547
			c-0.5336914,0.0322266-0.9726562,0.2675781-1.3178711,0.7060547c-0.3452148,0.4394531-0.4868164,0.9257812-0.4233398,1.4589844
			c0.0307617,0.5341797,0.2587891,0.9726562,0.6821289,1.3173828c0.4238281,0.3457031,0.9018555,0.4873047,1.4355469,0.4238281
			c2.6352539-0.2509766,9.1450195-0.4863281,19.5297852-0.7060547c-2.4790039,7.5615234-4.3457031,13.2705078-5.6000977,17.1298828
			c-2.3530273,7.2470703-4.2670898,13.1455078-5.7412109,17.6943359c-1.4750977,4.5488281-2.7529297,8.6123047-3.8354492,12.1884766
			s-1.875,6.2587891-2.3764648,8.046875c-0.5024414,1.7880859-0.8632812,3.3105469-1.0825195,4.5654297
			c-0.2197266,1.2548828-0.3056641,2.0859375-0.2587891,2.4941406c0.046875,0.4072266,0.1958008,0.7841797,0.4472656,1.1289062
			c0.4389648,0.5966797,1.019043,0.8945312,1.7412109,0.8945312c0.5327148,0,0.9956055-0.1962891,1.3881836-0.5888672
			c0.3916016-0.3916016,0.5878906-0.8544922,0.5878906-1.3876953c0-0.3447266-0.0629883-0.6425781-0.1879883-0.8945312
			c0.2192383-2.4150391,4.5800781-16.7216797,13.0825195-42.9179688c2.7294922-8.3134766,4.7368164-14.4628906,6.0234375-18.4472656
			C256.8964844,69.7041016,264.6298828,69.8457031,266.7636719,70.3779297z"/>
		<path class="st18" d="M279.1875,109.9082031c-0.5024414-0.21875-1.0043945-0.21875-1.5058594,0l-0.6118164,0.2822266
			c-1.3178711,0.5341797-2.3999023,0.9414062-3.2470703,1.2236328s-2.0869141,0.5732422-3.7177734,0.8710938
			c-1.6318359,0.2978516-3.3105469,0.4472656-5.0351562,0.4472656c-1.9765625,0-3.7495117-0.2666016-5.3178711-0.8007812
			c0.5644531-1.7880859,0.847168-3.1523438,0.847168-4.09375c0-1.6308594-0.4472656-2.9726562-1.3413086-4.0234375
			s-2.0317383-1.5771484-3.4116211-1.5771484c-1.4750977,0-2.7143555,0.5810547-3.7177734,1.7412109l-0.0473633,0.0947266
			c-0.09375,0.03125-0.2280273,0.078125-0.3999023,0.140625c-0.1728516,0.0634766-0.3056641,0.1103516-0.3999023,0.1416016
			c-1.7885742,0.7529297-3.3496094,2.09375-4.6826172,4.0234375s-2,4.3378906-2,7.2236328
			c0,2.2275391,0.4707031,4.0166016,1.4121094,5.3652344c0.940918,1.3486328,2.2114258,2.0234375,3.8115234,2.0234375
			c1.6625977,0,3.215332-0.6982422,4.6591797-2.0947266c1.4423828-1.3955078,2.6977539-3.1601562,3.7646484-5.2939453
			c2.0703125,0.7216797,4.3447266,1.0820312,6.8237305,1.0820312c4.3291016,0,8.8154297-0.9404297,13.4589844-2.8232422
			l0.6118164-0.2353516c0.5327148-0.1884766,0.9091797-0.5410156,1.1293945-1.0585938
			c0.21875-0.5175781,0.21875-1.0273438,0-1.5292969C280.0498047,110.5048828,279.6889648,110.1279297,279.1875,109.9082031z
			 M252.2695312,117.5087891c-0.8789062,0.9882812-1.6943359,1.4824219-2.4472656,1.4824219
			c-0.3764648,0-0.6821289-0.3447266-0.9174805-1.0361328c-0.2353516-0.6894531-0.3530273-1.4736328-0.3530273-2.3525391
			c0-2.7919922,0.8779297-4.9882812,2.6352539-6.5878906c0.4707031,1.8515625,1.6469727,3.4511719,3.5292969,4.7998047
			C253.9633789,115.2890625,253.1474609,116.5205078,252.2695312,117.5087891z M256.5991211,107.8378906
			c0,0.6279297-0.1103516,1.3339844-0.3295898,2.1171875c-0.5649414-0.5009766-0.9575195-1.0507812-1.1767578-1.6464844
			c0.5649414,0.0634766,1.0664062-0.109375,1.5063477-0.5175781V107.8378906z"/>
		<path class="st18" d="M380.6010742,109.9082031c-0.5024414-0.21875-1.0043945-0.21875-1.5058594,0l-0.6118164,0.2822266
			c-1.3178711,0.5341797-2.3999023,0.9414062-3.2470703,1.2236328s-2.0869141,0.5732422-3.7177734,0.8710938
			c-1.6318359,0.2978516-3.3105469,0.4472656-5.0351562,0.4472656c-1.9765625,0-3.7495117-0.2666016-5.3178711-0.8007812
			c0.5644531-1.7880859,0.847168-3.1523438,0.847168-4.09375c0-1.6308594-0.4472656-2.9726562-1.3413086-4.0234375
			s-2.0317383-1.5771484-3.4116211-1.5771484c-1.4750977,0-2.7143555,0.5810547-3.7177734,1.7412109l-0.0473633,0.0947266
			c-0.09375,0.03125-0.2280273,0.078125-0.3999023,0.140625c-0.1728516,0.0634766-0.3056641,0.1103516-0.3999023,0.1416016
			c-1.7885742,0.7529297-3.3496094,2.09375-4.6826172,4.0234375c-0.4040527,0.5849609-0.7393188,1.2193604-1.0209961,1.8922119
			c-0.1375732,0.1240234-0.2640381,0.2639771-0.3676758,0.4368896c-1.9765625,3.0751953-4.8632812,6.1416016-8.6586914,9.2001953
			c-3.7963867,3.0595703-7.043457,4.5888672-9.7416992,4.5888672c-1.5371094,0-2.7607422-0.5019531-3.6704102-1.5058594
			c-0.9101562-1.0039062-1.3647461-2.9960938-1.3647461-5.9765625c0-2.3837891,0.2822266-4.8945312,0.847168-7.5302734
			c3.262207-2.0068359,6.6743164-4.8779297,10.2353516-8.6113281c3.5605469-3.7333984,6.5800781-7.6708984,9.059082-11.8125
			c2.4780273-4.140625,3.7177734-7.5595703,3.7177734-10.2587891c0-1.0976562-0.1494141-2.015625-0.4472656-2.7529297
			c-0.2983398-0.7363281-0.6904297-1.2539062-1.1762695-1.5527344c-0.4868164-0.2978516-0.9023438-0.5019531-1.2470703-0.6113281
			c-0.3457031-0.1103516-0.675293-0.1650391-0.9882812-0.1650391c-2.0400391,0-4.4165039,1.4511719-7.1298828,4.3525391
			c-2.7138672,2.9023438-5.2470703,6.3144531-7.6000977,10.2353516c-3.3256836,5.5224609-5.7573242,10.9814453-7.2939453,16.3769531
			c-0.2202148-0.4707031-0.5341797-0.9414062-0.9414062-1.4111328c-1.0351562-1.1923828-2.3222656-1.7890625-3.8588867-1.7890625
			c-2.1337891,0-4.0161133,0.8632812-5.6469727,2.5888672c-1.3178711,1.4111328-2.3139648,3.2548828-2.9882812,5.5292969
			c-0.6743164,2.2753906-0.9331055,4.3222656-0.7763672,6.1416016c0.1254883,1.5683594,0.5878906,2.7919922,1.3881836,3.6699219
			c0.7998047,0.8789062,1.8588867,1.3183594,3.1762695,1.3183594c2.1015625,0,4.6899414-1.9921875,7.7651367-5.9765625
			c-0.0317383,0.5019531-0.0473633,1.2548828-0.0473633,2.2587891c0,2.2587891,0.2661133,4.1806641,0.800293,5.7646484
			c0.5327148,1.5839844,1.262207,2.7607422,2.1879883,3.5292969c0.925293,0.7695312,1.8745117,1.3173828,2.847168,1.6474609
			c0.972168,0.3291016,2.0234375,0.4941406,3.152832,0.4941406c3.6708984,0,7.8901367-1.9296875,12.6591797-5.7890625
			c1.9949951-1.6054688,3.7632446-3.2581787,5.3137817-4.9560547c0.2113037,1.272522,0.6071167,2.3729858,1.2282104,3.2626953
			c0.940918,1.3486328,2.2114258,2.0234375,3.8115234,2.0234375c1.6625977,0,3.215332-0.6982422,4.6591797-2.0947266
			c1.4423828-1.3955078,2.6977539-3.1601562,3.7646484-5.2939453c2.0703125,0.7216797,4.3447266,1.0820312,6.8237305,1.0820312
			c4.3291016,0,8.8154297-0.9404297,13.4589844-2.8232422l0.6118164-0.2353516
			c0.5327148-0.1884766,0.9091797-0.5410156,1.1293945-1.0585938c0.21875-0.5175781,0.21875-1.0273438,0-1.5292969
			C381.4633789,110.5048828,381.1025391,110.1279297,380.6010742,109.9082031z M331.8466797,90.3320312
			c2.2592773-3.7958984,4.5957031-6.9492188,7.012207-9.4589844c1.6938477-1.7568359,3.0585938-2.8076172,4.0942383-3.1533203
			c0.09375,0.3759766,0.1411133,0.7373047,0.1411133,1.0820312c0,1.5058594-0.6352539,3.5146484-1.9057617,6.0234375
			c-1.2709961,2.5107422-3.0200195,5.1933594-5.2475586,8.0478516c-3.137207,4.078125-6.5571289,7.6083984-10.2587891,10.5878906
			C327.125,99.1630859,329.1801758,94.7871094,331.8466797,90.3320312z M317.8701172,109.7675781v0.2353516
			c-1.4433594,2.0703125-2.7456055,3.7021484-3.9057617,4.8935547c-1.1611328,1.1923828-1.9765625,1.8203125-2.4472656,1.8828125
			c-0.3457031,0-0.5493164-0.4394531-0.6118164-1.3183594c-0.09375-1.3798828,0.1015625-2.9248047,0.5883789-4.6347656
			c0.4858398-1.7099609,1.184082-3.0507812,2.0942383-4.0234375c0.847168-0.9101562,1.7719727-1.3652344,2.7763672-1.3652344
			c0.3447266,0,0.6274414,0.1416016,0.847168,0.4238281C317.9008789,106.6455078,318.1210938,107.9482422,317.8701172,109.7675781z
			 M353.6831055,117.5087891c-0.8789062,0.9882812-1.6943359,1.4824219-2.4472656,1.4824219
			c-0.3764648,0-0.6821289-0.3447266-0.9174805-1.0361328c-0.2353516-0.6894531-0.3530273-1.4736328-0.3530273-2.3525391
			c0-2.7919922,0.8779297-4.9882812,2.6352539-6.5878906c0.4707031,1.8515625,1.6469727,3.4511719,3.5292969,4.7998047
			C355.3769531,115.2890625,354.5610352,116.5205078,353.6831055,117.5087891z M358.0126953,107.8378906
			c0,0.6279297-0.1103516,1.3339844-0.3295898,2.1171875c-0.5649414-0.5009766-0.9575195-1.0507812-1.1767578-1.6464844
			c0.5649414,0.0634766,1.0664062-0.109375,1.5063477-0.5175781V107.8378906z"/>
		<path class="st18" d="M440.4838867,102.7548828c0.078125,0.0634766,0.1333008,0.1103516,0.1645508,0.1416016
			c0.0942383,0.0634766,0.2036133,0.1259766,0.3295898,0.1884766c0.0307617,0,0.0942383,0.015625,0.1879883,0.046875
			c0.0942383,0.03125,0.1567383,0.046875,0.1884766,0.046875c0.0942383,0.0322266,0.2192383,0.046875,0.3764648,0.046875
			c0.1567383,0,0.2822266-0.0146484,0.3764648-0.046875c0.0307617,0,0.0942383-0.015625,0.1879883-0.046875
			c0.0942383-0.03125,0.1567383-0.046875,0.1884766-0.046875c0.1567383-0.0625,0.2661133-0.125,0.3295898-0.1884766
			c0.0307617-0.03125,0.0859375-0.078125,0.1645508-0.1416016c0.078125-0.0625,0.1333008-0.109375,0.1645508-0.140625
			s0.0708008-0.078125,0.1176758-0.1416016c0.0473633-0.0625,0.0859375-0.109375,0.1176758-0.140625
			c0.0625-0.0625,0.125-0.171875,0.1884766-0.3300781c0-0.0625,0.0151367-0.125,0.046875-0.1875
			c0.0307617-0.0625,0.046875-0.125,0.046875-0.1884766c0.03125-0.09375,0.0473633-0.21875,0.0473633-0.3769531
			c0-0.1875-0.0161133-0.3291016-0.0473633-0.4228516c0-0.0625-0.0161133-0.1181641-0.046875-0.1650391
			c-0.0317383-0.046875-0.046875-0.1015625-0.046875-0.1650391c-0.0634766-0.1875-0.1259766-0.3125-0.1884766-0.3759766
			c-0.0317383-0.03125-0.0703125-0.078125-0.1176758-0.1416016c-0.046875-0.0625-0.0864258-0.109375-0.1176758-0.140625
			s-0.0864258-0.0712891-0.1645508-0.1181641c-0.0786133-0.046875-0.1337891-0.0859375-0.1645508-0.1171875
			c-0.0942383-0.0625-0.2045898-0.125-0.3295898-0.1884766c-0.0634766,0-0.1259766-0.015625-0.1884766-0.046875
			c-0.0629883-0.03125-0.1254883-0.0625-0.1879883-0.0947266c-0.2514648-0.0625-0.5024414-0.0625-0.7529297,0
			c-0.0634766,0.0322266-0.1259766,0.0634766-0.1884766,0.0947266c-0.0629883,0.03125-0.1254883,0.046875-0.1879883,0.046875
			c-0.1572266,0.0634766-0.2670898,0.1259766-0.3295898,0.1884766c-0.03125,0.03125-0.0864258,0.0703125-0.1645508,0.1171875
			c-0.0786133,0.046875-0.1337891,0.0869141-0.1645508,0.1181641c-0.0317383,0.03125-0.0708008,0.078125-0.1176758,0.140625
			c-0.0473633,0.0634766-0.0869141,0.1103516-0.1176758,0.1416016c-0.0634766,0.0634766-0.1259766,0.1884766-0.1884766,0.3759766
			c0,0.0634766-0.0161133,0.1181641-0.046875,0.1650391c-0.0317383,0.046875-0.0473633,0.1025391-0.0473633,0.1650391
			c-0.03125,0.09375-0.046875,0.2353516-0.046875,0.4228516c0,0.5341797,0.1884766,0.9882812,0.5649414,1.3652344
			C440.3500977,102.6455078,440.4052734,102.6923828,440.4838867,102.7548828z"/>
		<path class="st18" d="M516.5083008,85.9316406c-0.3139648-0.4541016-0.737793-0.7294922-1.2705078-0.8232422
			c-4.8945312-0.8476562-11.859375-1.3339844-20.8945312-1.4589844c1.2236328-2.8867188,2.2119141-5.0830078,2.9648438-6.5888672
			c0.2504883-0.5009766,0.2895508-1.0185547,0.1176758-1.5527344c-0.1728516-0.5332031-0.5102539-0.9091797-1.0117188-1.1289062
			c-0.5024414-0.2509766-1.012207-0.2900391-1.5297852-0.1181641c-0.5175781,0.1728516-0.8867188,0.5107422-1.105957,1.0117188
			c-0.8466797,1.6943359-2.0864258,4.4707031-3.7177734,8.3300781c-7.9692383,0.0625-13.7880859,0.3447266-17.4589844,0.8466797
			c-0.5332031,0.0634766-0.9643555,0.3134766-1.2939453,0.7529297s-0.4624023,0.9257812-0.3999023,1.4589844
			c0.0629883,0.5332031,0.3139648,0.9726562,0.7529297,1.3173828c0.4394531,0.3457031,0.9257812,0.4873047,1.4584961,0.4238281
			c3.2636719-0.4394531,8.3608398-0.7060547,15.2944336-0.7998047c-3.6002197,8.854126-6.0814209,16.2627563-7.4484253,22.2319946
			c-2.2565308,0.2301636-4.8601685,0.8000488-7.8220825,1.7211304c-3.027832,0.9414062-5.9223633,2.0869141-8.6826172,3.4355469
			h-0.0942383c-0.1879883-0.4082031-0.5805664-1.1767578-1.1762695-2.3066406
			c-0.9726562-1.7558594-1.4589844-2.9648438-1.4589844-3.6230469c0-0.5332031,0.2978516-1.0507812,0.894043-1.5527344
			c0.5957031-0.5019531,1.1606445-0.7529297,1.6943359-0.7529297c0.847168,0,1.4663086,0.2109375,1.8588867,0.6347656
			c0.3920898,0.4238281,0.7919922,1.2001953,1.2001953,2.3291016l0.046875,0.0478516
			c0.1879883,0.5019531,0.5249023,0.8632812,1.0117188,1.0820312c0.4858398,0.2197266,0.9956055,0.2353516,1.5292969,0.046875
			c0.5014648-0.1884766,0.862793-0.5244141,1.0825195-1.0117188c0.2192383-0.4863281,0.2353516-0.9951172,0.046875-1.5292969
			v-0.046875c-0.2514648-0.6591797-0.4941406-1.2158203-0.7290039-1.6708984
			c-0.2353516-0.4541016-0.6044922-1.0195312-1.105957-1.6943359c-0.5024414-0.6738281-1.1767578-1.2001953-2.0239258-1.5761719
			c-0.8466797-0.3769531-1.8198242-0.5644531-2.9174805-0.5644531c-1.5693359,0-3.0512695,0.6279297-4.4472656,1.8818359
			c-1.3959961,1.2548828-2.0942383,2.7138672-2.0942383,4.3769531c0,0.329834,0.0437622,0.6970215,0.1283569,1.0991211
			c-0.1629639,0.0952148-0.3181152,0.2087402-0.4574585,0.3598633c-0.784668,0.8154297-1.6396484,1.6230469-2.5644531,2.4228516
			c-0.9257812,0.8007812-2.0869141,1.7021484-3.4824219,2.7060547c-1.3964844,1.0048828-2.8945312,1.8125-4.4941406,2.4238281
			c-1.6000977,0.6113281-3.1376953,0.9179688-4.6123047,0.9179688c-1.2231445,0-2.0395508-0.3769531-2.4467773-1.1298828
			c-0.5961914-0.9716797-0.769043-2.3837891-0.5175781-4.2353516c0.2504883-1.8505859,0.8466797-3.6542969,1.7880859-5.4121094
			c0.2509766-0.5009766,0.3056641-1.0117188,0.1645508-1.5292969s-0.4628906-0.9013672-0.9643555-1.1523438
			c-0.5024414-0.2509766-1.012207-0.3066406-1.5297852-0.1650391s-0.9018555,0.4628906-1.152832,0.9648438
			c-0.6694946,1.2833862-1.2012329,2.6126099-1.6101685,3.9823608c-0.1179199,0.114563-0.2275391,0.2410278-0.3190308,0.3936157
			c-1.9765625,3.0751953-4.8632812,6.1416016-8.6586914,9.2001953c-3.7963867,3.0595703-7.043457,4.5888672-9.7416992,4.5888672
			c-1.5371094,0-2.7607422-0.5019531-3.6704102-1.5058594c-0.9101562-1.0039062-1.3647461-2.9960938-1.3647461-5.9765625
			c0-2.3837891,0.2822266-4.8945312,0.847168-7.5302734c3.262207-2.0068359,6.6743164-4.8779297,10.2353516-8.6113281
			c3.5605469-3.7333984,6.5800781-7.6708984,9.059082-11.8125c2.4780273-4.140625,3.7177734-7.5595703,3.7177734-10.2587891
			c0-1.0976562-0.1494141-2.015625-0.4472656-2.7529297c-0.2983398-0.7363281-0.6904297-1.2539062-1.1762695-1.5527344
			c-0.4868164-0.2978516-0.9023438-0.5019531-1.2475586-0.6113281c-0.3452148-0.1103516-0.6748047-0.1650391-0.987793-0.1650391
			c-2.0400391,0-4.4165039,1.4511719-7.1298828,4.3525391c-2.7138672,2.9023438-5.2470703,6.3144531-7.6000977,10.2353516
			c-2.9174805,4.8945312-5.1845703,9.84375-6.7998047,14.8476562c-1.6157227,5.0048828-2.4238281,9.6240234-2.4238281,13.859375
			c0,2.2587891,0.2670898,4.1806641,0.800293,5.7646484c0.5327148,1.5839844,1.262207,2.7607422,2.1879883,3.5292969
			c0.925293,0.7695312,1.8745117,1.3173828,2.847168,1.6474609c0.972168,0.3291016,2.0234375,0.4941406,3.152832,0.4941406
			c3.7016602,0,7.9370117-1.9296875,12.7060547-5.7890625c2.0888672-1.6740112,3.9314575-3.4225464,5.5454712-5.2398071
			c0.1872559,0.9035645,0.4781494,1.7318726,0.9017944,2.4634399c1.2231445,2.0712891,3.168457,3.1064453,5.8349609,3.1064453
			c1.8510742,0,3.7333984-0.3447266,5.6474609-1.0351562c1.9130859-0.6904297,3.6943359-1.6074219,5.3413086-2.7539062
			c1.6469727-1.1445312,2.9956055-2.171875,4.046875-3.0820312c0.7467041-0.6460571,1.4559937-1.314209,2.1473999-1.9924927
			c0.0762939,0.1465454,0.147583,0.2888184,0.2290649,0.4397583c0.5014648,0.9101562,0.894043,1.6943359,1.1762695,2.3525391
			c-4.5175781,2.7294922-6.7763672,5.3652344-6.7763672,7.90625c0,0.9726562,0.3691406,1.7578125,1.105957,2.3535156
			c0.7373047,0.5957031,1.7021484,0.8935547,2.894043,0.8935547c1.6943359,0,3.3720703-0.7529297,5.0356445-2.2587891
			c1.6621094-1.5058594,2.4941406-3.3564453,2.4941406-5.5527344c0-0.3134766-0.0317383-0.7841797-0.0942383-1.4121094
			c0.0307617-0.03125,0.0942383-0.0703125,0.1879883-0.1171875c0.0942383-0.0478516,0.1801758-0.0859375,0.2587891-0.1181641
			c0.078125-0.0302734,0.1489258-0.0625,0.2119141-0.09375c5.151123-2.5328369,9.8067017-4.0744629,13.977356-4.6455688
			c-0.3095093,1.9647827-0.4714966,3.7388916-0.4714966,5.303772c0,2.1337891,0.2119141,3.9462891,0.6352539,5.4355469
			c0.4238281,1.4902344,0.9804688,2.5654297,1.6708984,3.2236328c0.6894531,0.6591797,1.3564453,1.1220703,2,1.3886719
			c0.6425781,0.2666016,1.3095703,0.3994141,2,0.3994141c1.1601562,0,2.4472656-0.4306641,3.8588867-1.2939453
			c1.4116211-0.8623047,2.7368164-1.9052734,3.9765625-3.1289062c1.2387695-1.2236328,2.5332031-2.6669922,3.8823242-4.3300781
			c1.3486328-1.6621094,2.4545898-3.1054688,3.3178711-4.3291016c0.8623047-1.2236328,1.7011719-2.4628906,2.5175781-3.7177734
			c0.3129883-0.4707031,0.4155273-0.9648438,0.3056641-1.4824219s-0.3999023-0.9335938-0.8706055-1.2470703
			c-0.4702148-0.3134766-0.9643555-0.4072266-1.4819336-0.2822266c-0.5180664,0.1259766-0.934082,0.4228516-1.2475586,0.8935547
			c-2.7924805,4.3300781-5.5371094,7.90625-8.2353516,10.7294922c-2.6982422,2.8242188-4.7055664,4.2353516-6.0234375,4.2353516
			c-0.5336914,0-0.9726562-0.265625-1.3178711-0.7998047c-0.3452148-0.5332031-0.5805664-1.2304688-0.7055664-2.09375
			c-0.1259766-0.8623047-0.2119141-1.5605469-0.2587891-2.0947266c-0.0473633-0.5322266-0.0708008-1.0351562-0.0708008-1.5058594
			c0-6.4306641,3.0117188-16.9716797,9.0356445-31.6240234c9.0976562,0.0634766,16.3764648,0.5498047,21.8354492,1.4589844
			c0.0307617,0,0.0859375,0.0087891,0.1645508,0.0234375c0.078125,0.0166016,0.1333008,0.0234375,0.1650391,0.0234375
			c0.4702148,0,0.894043-0.15625,1.2705078-0.4697266s0.6118164-0.7060547,0.7060547-1.1767578
			C516.9316406,86.8808594,516.8212891,86.3867188,516.5083008,85.9316406z M420.9306641,90.3320312
			c2.2592773-3.7958984,4.5957031-6.9492188,7.012207-9.4589844c1.6625977-1.7255859,3.0424805-2.7773438,4.1411133-3.1533203
			c0.0625,0.2509766,0.0942383,0.6113281,0.0942383,1.0820312c0,1.5058594-0.6352539,3.5146484-1.90625,6.0234375
			c-1.2705078,2.5107422-3.0195312,5.1933594-5.2470703,8.0478516c-3.137207,4.078125-6.5571289,7.6083984-10.2587891,10.5878906
			C416.2089844,99.1630859,418.2641602,94.7871094,420.9306641,90.3320312z M460.1547852,123.1787109
			c-0.7060547,0.5341797-1.3261719,0.8476562-1.8588867,0.9414062c0.4702148-0.7832031,1.5527344-1.7568359,3.2470703-2.9169922
			C461.3227539,121.9873047,460.8603516,122.6464844,460.1547852,123.1787109z"/>
	</g>
</g>
</svg>
