<?xml version="1.0" encoding="utf-8"?>
<!-- Generator: Adobe Illustrator 23.0.3, SVG Export Plug-In . SVG Version: 6.00 Build 0)  -->
<svg version="1.1" id="Layer_1" xmlns="http://www.w3.org/2000/svg" xmlns:xlink="http://www.w3.org/1999/xlink" x="0px" y="0px"
	 viewBox="0 0 864 864" style="enable-background:new 0 0 864 864;" xml:space="preserve">
<style type="text/css">
	.st0{fill:#8D8C4E;}
	.st1{fill:#D79E5C;}
	.st2{fill:#DF853E;}
	.st3{fill:#AD4827;}
	.st4{fill:#2E2622;}
	.st5{fill:#F5DBBB;}
	.st6{fill:#C88749;}
	.st7{fill:#E68B69;}
	.st8{fill:#DFAE7A;}
	.st9{fill:#B76128;}
	.st10{fill:#F8B74B;}
	.st11{fill:#D0994E;}
	.st12{fill:#DEA76B;}
	.st13{fill:#BB6E32;}
	.st14{fill:#CD8050;}
	.st15{fill:#B26447;}
	.st16{fill:#C49A6C;}
	.st17{fill:#F2DEB8;}
	.st18{fill:#EECA98;}
	.st19{fill:#D2C1B8;}
	.st20{fill:#E4BC7F;}
	.st21{fill:#B2BFAE;}
	.st22{fill:#9B752B;}
	.st23{fill:#DC9834;}
	.st24{fill:#A18266;}
	.st25{fill:none;}
	.st26{fill:#EBD2AA;}
	.st27{fill:#5D4632;}
	.st28{fill:#906E46;}
	.st29{display:none;}
	.st30{display:inline;}
	.st31{opacity:0.98;fill:#FFF5CB;}
	.st32{opacity:0.98;fill:#DABC52;}
	.st33{opacity:0.98;fill:#695E3D;}
</style>
<g>
	<path class="st24" d="M263.1171875,586.8076172l83.1386719,136.1044922
		c4.1054688,6.7202148,12.9111328,8.8432617,19.6279297,4.7412109l161.578125-98.6992188
		c6.71875-4.1040039,8.8457031-12.9091797,4.7412109-19.6274414L449.0644531,473.222168
		c-1.9873047-3.2543945-5.1240234-5.5400391-8.8310547-6.4355469c-1.1210938-0.2709961-2.2539063-0.4047852-3.3789063-0.4047852
		c-2.5947266,0-5.1464844,0.7119141-7.4169922,2.0991211l-161.578125,98.6992188
		C261.140625,571.2836914,259.0136719,580.0888672,263.1171875,586.8076172z M349.5302734,690.5483398
		c2.09375,4.3125,5.8671875,10.0639648,11.9521484,12.9755859c5.5390625,2.6503906,12.203125,2.0400391,16.2060547-1.4824219
		l1.9824219,2.2519531c-2.9208984,2.5703125-6.8398438,3.8964844-10.9355469,3.8964844
		c-2.8554688,0-5.796875-0.644043-8.5478516-1.9599609c-6.8671875-3.2856445-11.0537109-9.628418-13.3564453-14.3710938
		L349.5302734,690.5483398z M286.3037109,587.1357422l56.4638672,92.4345703l-2.5605469,1.5634766l-56.4638672-92.4345703
		L286.3037109,587.1357422z"/>
	<path class="st25" d="M390.6650391,254.7773438c-1.9326172,11.4228516,2.4863281,26.1547852,14.4833984,30.9575195
		c9.2802734,3.7167969,21.1181641-0.5888672,25.8408203-9.4067383c2.8457031-5.3129883,3.0556641-11.7670898,0.5917969-18.1738281
		c-3.1992188-8.3178711-10.2763672-15.3125-18.46875-18.2543945c-4.8330078-1.7353516-10.0634766-2.5351563-15.7255859-2.3837891
		C394.2001953,242.8505859,391.7089844,248.6113281,390.6650391,254.7773438z"/>
	<path class="st26" d="M200.7353516,428.1640625l2.7246094,107.7084961
		c0.0117188,0.4902344,0.1542969,0.9707031,0.4091797,1.3896484l128.3291016,210.0834961
		c6.3447266,10.387207,19.9599609,13.6791992,30.3486328,7.3310547l189.9628906-116.0380859
		c5.0332031-3.0737305,8.5673828-7.9238281,9.9521484-13.6557617c1.3847656-5.7324219,0.4541016-11.6606445-2.6201172-16.6928711
		L431.5126953,398.2060547c-0.2548828-0.418457-0.6171875-0.7636719-1.0488281-0.9985352l-94.5859375-51.5947266
		l-63.2553711,38.6392822c1.8557129,9.227356,5.6308594,17.6546021,11.75,24.3579712
		c0.3100586-0.1867065,0.6166992-0.3820801,0.9194336-0.5866089c4.8837891-3.2988281,7.9912109-8.3671875,8.3125-13.5571289
		l2.9941406,0.1855469c-0.3779297,6.112793-3.9765625,12.0410156-9.6279297,15.8574219
		c-3.8291016,2.5874023-8.2080078,3.9379883-12.4414063,3.9379883c-2.0126953,0-3.9921875-0.3051758-5.8642578-0.9277344
		l0.9453125-2.8466797c3.7375488,1.2419434,8.0068359,0.972168,11.980957-0.6638184
		c-5.9909668-6.7897339-9.8164063-15.0386963-11.8220215-24.0140991L200.7353516,428.1640625z M427.8730469,465.9204102
		c3.9384766-2.4047852,8.5791016-3.1342773,13.0644531-2.0498047c4.4863281,1.0834961,8.2822266,3.8496094,10.6875,7.7880859
		l83.1386719,136.1040039c4.9667969,8.1298828,2.3925781,18.784668-5.7373047,23.7519531l-161.578125,98.6992188
		c-2.8046875,1.7128906-5.9101563,2.5288086-8.9785156,2.5288086c-5.8271484,0-11.5205078-2.9414063-14.7744141-8.2666016
		l-83.1386719-136.1049805c-4.9658203-8.1303711-2.3916016-18.7851563,5.7382813-23.7514648L427.8730469,465.9204102z"/>
	<path class="st25" d="M649.9921875,104.0297852h-99.6142578c-8.5019531,0-15.4189453,6.9165039-15.4189453,15.418457v39.0795898
		c0,8.5019531,6.9169922,15.4189453,15.4189453,15.4189453h99.6142578c8.5019531,0,15.4189453-6.9169922,15.4189453-15.4189453
		v-39.0795898C665.4111328,110.9462891,658.4941406,104.0297852,649.9921875,104.0297852z"/>
	<path d="M649.9921875,101.0297852h-99.6142578c-10.15625,0-18.4189453,8.2626953-18.4189453,18.418457v19.9967651
		l-0.6083984-1.8844604c-48.2568359,15.5712891-91.3222656,44.0517578-124.5410156,82.3632813
		c-3.8457031,4.4360352-7.8007813,9.3217773-11.1464844,14.659668c-8.9033203,0.496582-18.7744141,3.1391602-29.78125,7.9462891
		c-36.1591797,15.7929688-66.4111328,43.6025391-85.1845703,78.3061523
		c-9.9030762,18.3049927-15.0878906,41.7224121-11.5471191,62.0219116l-2.4069824,1.4702759l-69.0507813,42.1796875
		l2.7675781,109.4418945c0.0263672,1.0146484,0.3203125,2.0087891,0.8486328,2.8754883L329.6376953,748.909668
		c4.7216797,7.7290039,12.9863281,11.9985352,21.4423828,11.9985352c4.453125-0.0004883,8.9599609-1.1845703,13.03125-3.6708984
		l189.9628906-116.0380859c5.7158203-3.4921875,9.7304688-9.0009766,11.3037109-15.5117188
		c1.5732422-6.5112305,0.515625-13.2451172-2.9755859-18.9609375L434.0732422,396.6430664
		c-0.5283203-0.8666992-1.2792969-1.5820313-2.171875-2.0693359l-96.1074219-52.4248047l-63.7294922,38.9287109
		c-2.9506836-19.4417725,2.0749512-41.8156738,11.2714844-58.8139648
		c18.4560547-34.1181641,48.1982422-61.4584961,83.7470703-76.9848633
		c9.8398438-4.2978516,18.6992188-6.8085938,26.7119141-7.5483398c-2.8662109,5.1245117-5.0878906,10.6391602-6.0869141,16.5458984
		c-2.1289063,12.5800781,2.8691406,28.8564453,16.3251953,34.2436523
		c10.640625,4.2592773,24.1923828-0.6767578,29.6005859-10.7758789c3.2636719-6.0932617,3.5292969-13.4331055,0.7470703-20.6669922
		c-3.5029297-9.1083984-11.2646484-16.7724609-20.2548828-20.0004883
		c-4.6181641-1.6582031-9.5517578-2.5185547-14.8388672-2.5761719c3.0078125-4.5405273,6.4404297-8.7485352,9.7900391-12.6113281
		c32.7861328-37.814209,75.2729492-65.944458,122.8818359-81.3690186v18.0076904
		c0,10.15625,8.2626953,18.4189453,18.4189453,18.4189453h99.6142578c10.15625,0,18.4189453-8.2626953,18.4189453-18.4189453
		v-39.0795898C668.4111328,109.2924805,660.1484375,101.0297852,649.9921875,101.0297852z M281.5913086,410.0090332
		c-3.9741211,1.6359863-8.2434082,1.9057617-11.980957,0.6638184l-0.9453125,2.8466797
		c1.8720703,0.6225586,3.8515625,0.9277344,5.8642578,0.9277344c4.2333984,0,8.6123047-1.3505859,12.4414063-3.9379883
		c5.6513672-3.8164063,9.25-9.7446289,9.6279297-15.8574219l-2.9941406-0.1855469
		c-0.3212891,5.1899414-3.4287109,10.2583008-8.3125,13.5571289c-0.3027344,0.2045288-0.609375,0.3999023-0.9194336,0.5866089
		c-6.1191406-6.7033691-9.8942871-15.1306152-11.75-24.3579712l63.2553711-38.6392822l94.5859375,51.5947266
		c0.4316406,0.2348633,0.7939453,0.5800781,1.0488281,0.9985352l128.3291016,210.0839844
		c3.0742188,5.0322266,4.0048828,10.9604492,2.6201172,16.6928711c-1.3847656,5.7319336-4.9189453,10.5820313-9.9521484,13.6557617
		L362.546875,754.6767578c-10.3886719,6.3481445-24.0039063,3.0561523-30.3486328-7.3310547L203.8691406,537.262207
		c-0.2548828-0.4189453-0.3974609-0.8994141-0.4091797-1.3896484l-2.7246094-107.7084961l69.0339355-42.1691284
		C271.7749023,394.9703369,275.6003418,403.2192993,281.5913086,410.0090332z M413.1123047,239.8999023
		c8.1923828,2.9418945,15.2695313,9.9365234,18.46875,18.2543945c2.4638672,6.4067383,2.2539063,12.8608398-0.5917969,18.1738281
		c-4.7226563,8.8178711-16.5605469,13.1235352-25.8408203,9.4067383
		c-11.9970703-4.8027344-16.4160156-19.534668-14.4833984-30.9575195
		c1.0439453-6.1660156,3.5351563-11.9267578,6.7216797-17.2612305
		C403.0488281,237.3647461,408.2792969,238.1645508,413.1123047,239.8999023z M665.4111328,158.527832
		c0,8.5019531-6.9169922,15.4189453-15.4189453,15.4189453h-99.6142578c-8.5019531,0-15.4189453-6.9169922-15.4189453-15.4189453
		v-39.0795898c0-8.5019531,6.9169922-15.418457,15.4189453-15.418457h99.6142578
		c8.5019531,0,15.4189453,6.9165039,15.4189453,15.418457V158.527832z"/>
	<path d="M260.5566406,588.3710938l83.1386719,136.1049805c3.2539063,5.3251953,8.9472656,8.2666016,14.7744141,8.2666016
		c3.0683594,0,6.1738281-0.815918,8.9785156-2.5288086l161.578125-98.6992188
		c8.1298828-4.9672852,10.7041016-15.6220703,5.7373047-23.7519531L451.625,471.6586914
		c-2.4052734-3.9384766-6.2011719-6.7045898-10.6875-7.7880859c-4.4853516-1.0844727-9.1259766-0.3549805-13.0644531,2.0498047
		l-161.578125,98.6992188C258.1650391,569.5859375,255.5908203,580.2407227,260.5566406,588.3710938z M429.4375,468.480957
		c2.2705078-1.387207,4.8222656-2.0991211,7.4169922-2.0991211c1.125,0,2.2578125,0.1337891,3.3789063,0.4047852
		c3.7070313,0.8955078,6.84375,3.1811523,8.8310547,6.4355469l83.1386719,136.1044922
		c4.1044922,6.7182617,1.9775391,15.5234375-4.7412109,19.6274414l-161.578125,98.6992188
		c-6.7167969,4.1020508-15.5224609,1.9790039-19.6279297-4.7412109l-83.1386719-136.1044922
		c-4.1035156-6.71875-1.9765625-15.5239258,4.7421875-19.6274414L429.4375,468.480957z"/>
	
		<rect x="311.7553101" y="579.9768677" transform="matrix(0.8533801 -0.5212892 0.5212892 0.8533801 -284.6381226 256.273407)" class="st27" width="3.0001433" height="108.3158264"/>
	<path class="st27" d="M360.1875,706.2299805c2.7509766,1.315918,5.6923828,1.9599609,8.5478516,1.9599609
		c4.0957031,0,8.0146484-1.3261719,10.9355469-3.8964844l-1.9824219-2.2519531
		c-4.0029297,3.5224609-10.6669922,4.1328125-16.2060547,1.4824219c-6.0849609-2.9116211-9.8583984-8.6630859-11.9521484-12.9755859
		l-2.6992188,1.3105469C349.1337891,696.6015625,353.3203125,702.9443359,360.1875,706.2299805z"/>
	<path class="st28" d="M585.767334,118.2321167c-10.7775879,4.2051392-18.8688965,12.5682373-21.6442871,22.3712769
		c-0.2148438,0.7584839-0.416748,2.1074219-0.3481445,3.7365723c8.9111328,0.4459229,17.5085449,0.0298462,25.7182617-1.2467651
		c5.736084-8.557373,12.6394043-16.2590942,20.5227051-22.8926392l0.4824219,0.5734253
		c-7.6513672,6.4381104-14.3706055,13.8911133-19.989502,22.1581421c2.3161621-0.3817139,4.6010742-0.8322754,6.8530273-1.3518677
		c3.1374512-0.723938,6.2958984-1.6034546,9.3500977-2.4541626c1.706543-0.4752197,3.4711914-0.9666748,5.2145996-1.4260254
		c1.4831543-0.3909912,2.9885254-0.7681274,4.4819336-1.1367188c4.1352539-4.4776611,8.4729004-8.8686523,12.8981934-13.0528564
		l0.5144043,0.5442505c-4.1369629,3.9122314-8.1960449,8.0061646-12.0856934,12.1820068
		c0.3469238-0.0849609,0.6948242-0.1703491,1.0385742-0.2543945c8.1850586-2.0015869,16.6484375-4.0712891,24.1970215-7.9917603
		l0.3452148,0.664917c-7.6286621,3.9619141-16.1364746,6.0424805-24.3640137,8.0545044
		c-0.0131836,0.0032959-0.0268555,0.0065308-0.0397949,0.0097656c3.8928223,1.670105,8.2336426,3.4204712,12.6672363,3.5754395
		l-0.026123,0.7488403c-4.9040527-0.1715698-9.6296387-2.2091675-13.7990723-4.0067749l0.0163574-0.0378418
		c-0.3212891,0.0787354-0.642334,0.157959-0.9655762,0.2376099c-0.0031738,0.0036621-0.0068359,0.0073242-0.0102539,0.0110474
		l-0.0070801-0.0067139c-1.5559082,0.3834229-3.1262207,0.7761841-4.6706543,1.1832275
		c-1.7380371,0.4580078-3.5002441,0.9487305-5.2043457,1.4232178c-3.0622559,0.8527832-6.2287598,1.7347412-9.3825684,2.4625244
		c-2.3520508,0.5427246-4.7404785,1.0093994-7.1621094,1.4026489c5.456543,4.7381592,12.0412598,8.0906372,19.0888672,9.7018433
		l-0.1669922,0.7304688c-7.3720703-1.6855469-14.2497559-5.2398682-19.8894043-10.2788086
		c-8.170166,1.2550659-16.7194824,1.6637573-25.5749512,1.2261353c0.2077637,2.2738037,0.965332,4.9628906,2.8859863,7.3376465
		c0.2885742,0.3569336,0.6030273,0.7061157,0.9465332,1.0462646c7.3154297,7.2502441,18.4279785,10.7095337,29.7250977,9.2532349
		c9.7385254-1.2553101,19.4929199-5.8018799,28.9919434-13.5134888
		c8.3015137-6.7396851,15.3625488-15.0004883,22.1794434-23.0227661
		c-3.1894531-1.2509155-21.2397461-8.2397461-30.8666992-10.0083618
		C605.654541,113.9741211,594.9147949,114.6627197,585.767334,118.2321167z"/>
	<path class="st26" d="M649.9921875,104.0297852h-99.6142578c-8.5019531,0-15.4189453,6.9165039-15.4189453,15.418457v39.0795898
		c0,8.5019531,6.9169922,15.4189453,15.4189453,15.4189453h99.6142578c8.5019531,0,15.4189453-6.9169922,15.4189453-15.4189453
		v-39.0795898C665.4111328,110.9462891,658.4941406,104.0297852,649.9921875,104.0297852z M649.4645996,126.2796021
		c-6.9438477,8.1726685-14.1242676,16.623291-22.6171875,23.5184326
		c-9.6086426,7.8005981-19.489502,12.4014893-29.3681641,13.6748657
		c-11.5246582,1.4854736-22.869873-2.0525513-30.3486328-9.4641724c-0.3613281-0.3580933-0.6936035-0.7272339-0.9978027-1.1030273
		c-2.0559082-2.541687-2.848877-5.4261475-3.0551758-7.850708c-4.1071777-0.2246704-8.2792969-0.630127-12.5097656-1.2182007
		l0.1027832-0.7420654c4.1799316,0.5810547,8.302002,0.9832153,12.3601074,1.2077026
		c-0.0654297-1.7005615,0.1462402-3.1082153,0.3713379-3.9031982c2.8388672-10.0273438,11.0979004-18.5750122,22.0927734-22.8652344
		c9.2792969-3.6205444,20.1560059-4.3223267,32.3286133-2.0856934
		c10.6044922,1.9481812,31.2866211,10.1581421,31.4943848,10.2407837l0.484375,0.1930542L649.4645996,126.2796021z"/>
	<path class="st27" d="M617.8234863,115.4483032c-12.1726074-2.2366333-23.0493164-1.5348511-32.3286133,2.0856934
		c-10.994873,4.2902222-19.2539063,12.8378906-22.0927734,22.8652344c-0.2250977,0.7949829-0.4367676,2.2026367-0.3713379,3.9031982
		c-4.0581055-0.2244873-8.1801758-0.6266479-12.3601074-1.2077026l-0.1027832,0.7420654
		c4.2304688,0.5880737,8.4025879,0.9935303,12.5097656,1.2182007c0.2062988,2.4245605,0.9992676,5.309021,3.0551758,7.850708
		c0.3041992,0.3757935,0.6364746,0.7449341,0.9978027,1.1030273c7.4787598,7.4116211,18.8239746,10.949646,30.3486328,9.4641724
		c9.8786621-1.2733765,19.7595215-5.8742676,29.3681641-13.6748657
		c8.4929199-6.8951416,15.6733398-15.3457642,22.6171875-23.5184326l0.3376465-0.3974609l-0.484375-0.1930542
		C649.1101074,125.6064453,628.4279785,117.3964844,617.8234863,115.4483032z M626.3752441,149.2163086
		c-9.4990234,7.7116089-19.253418,12.2581787-28.9919434,13.5134888
		c-11.2971191,1.4562988-22.409668-2.0029907-29.7250977-9.2532349c-0.3435059-0.3401489-0.657959-0.6893311-0.9465332-1.0462646
		c-1.9206543-2.3747559-2.6782227-5.0638428-2.8859863-7.3376465c8.8554688,0.4376221,17.4047852,0.0289307,25.5749512-1.2261353
		c5.6396484,5.0389404,12.517334,8.5932617,19.8894043,10.2788086l0.1669922-0.7304688
		c-7.0476074-1.6112061-13.6323242-4.9636841-19.0888672-9.7018433c2.4216309-0.3932495,4.8100586-0.8599243,7.1621094-1.4026489
		c3.1538086-0.7277832,6.3203125-1.6097412,9.3825684-2.4625244c1.7041016-0.4744873,3.4663086-0.96521,5.2043457-1.4232178
		c1.5444336-0.4070435,3.1147461-0.7998047,4.6706543-1.1832275l0.0070801,0.0067139
		c0.003418-0.0037231,0.0070801-0.0073853,0.0102539-0.0110474c0.3232422-0.0796509,0.6442871-0.1588745,0.9655762-0.2376099
		l-0.0163574,0.0378418c4.1694336,1.7976074,8.8950195,3.8352051,13.7990723,4.0067749l0.026123-0.7488403
		c-4.4335938-0.1549683-8.7744141-1.9053345-12.6672363-3.5754395c0.0129395-0.0032349,0.0266113-0.0064697,0.0397949-0.0097656
		c8.2275391-2.0120239,16.7353516-4.0925903,24.3640137-8.0545044l-0.3452148-0.664917
		c-7.548584,3.9204712-16.0119629,5.9901733-24.1970215,7.9917603c-0.34375,0.0840454-0.6916504,0.1694336-1.0385742,0.2543945
		c3.8896484-4.1758423,7.9487305-8.2697754,12.0856934-12.1820068l-0.5144043-0.5442505
		c-4.425293,4.1842041-8.7629395,8.5751953-12.8981934,13.0528564c-1.4934082,0.3685913-2.9987793,0.7457275-4.4819336,1.1367188
		c-1.7434082,0.4593506-3.5080566,0.9508057-5.2145996,1.4260254c-3.0541992,0.850708-6.2126465,1.7302246-9.3500977,2.4541626
		c-2.2519531,0.5195923-4.5368652,0.9701538-6.8530273,1.3518677c5.6188965-8.2670288,12.3381348-15.7200317,19.989502-22.1581421
		l-0.4824219-0.5734253c-7.8833008,6.6335449-14.7866211,14.3352661-20.5227051,22.8926392
		c-8.2097168,1.2766113-16.8071289,1.692688-25.7182617,1.2467651c-0.0686035-1.6291504,0.1333008-2.9780884,0.3481445-3.7365723
		c2.7753906-9.8030396,10.8666992-18.1661377,21.6442871-22.3712769c9.1474609-3.569397,19.887207-4.2579956,31.9206543-2.046936
		c9.6269531,1.7686157,27.6772461,8.7574463,30.8666992,10.0083618
		C641.737793,134.2158203,634.6767578,142.4766235,626.3752441,149.2163086z"/>
</g>
</svg>
